<svg width="89" height="26" viewBox="0 0 89 26" fill="none" xmlns="http://www.w3.org/2000/svg">
<g clip-path="url(#clip0_102_2941)">
<path d="M3.32041 24.724H2.58441C2.58441 22.9533 3.08574 19.7213 4.08841 15.028C5.09108 10.3347 5.64574 7.52936 5.75241 6.61202C5.88041 5.67335 5.95508 4.96935 5.97641 4.50002C3.97108 4.54269 2.37108 4.85202 1.17641 5.42802C0.557747 4.72402 0.173747 3.68935 0.0244141 2.32402C1.06974 1.96135 2.86174 1.78002 5.40041 1.78002L15.4804 2.10002C15.9711 2.10002 16.7497 2.07869 17.8164 2.03602C17.9017 2.71869 17.9444 3.29469 17.9444 3.76402C17.9444 4.76669 17.3151 5.26802 16.0564 5.26802C15.6724 5.26802 15.0644 5.20402 14.2324 5.07603C13.4217 4.94802 12.7071 4.87336 12.0884 4.85203C12.0244 5.5347 11.4697 8.30802 10.4244 13.172C9.40041 18.036 8.88841 21.6093 8.88841 23.892C7.94974 24.4467 6.09374 24.724 3.32041 24.724ZM19.9852 24.884C18.3212 24.884 17.0092 24.3613 16.0492 23.316C15.0892 22.2493 14.6092 20.756 14.6092 18.836C14.6092 16.4893 15.3025 14.5053 16.6892 12.884C18.0758 11.2413 19.8998 10.42 22.1612 10.42L23.6012 10.548C24.1132 10.3987 24.5932 10.324 25.0412 10.324C26.1078 10.324 26.8652 10.6867 27.3132 11.412C27.7825 12.1373 28.0492 13.172 28.1132 14.516C29.0092 14.4733 29.8625 14.3347 30.6732 14.1L31.1212 13.972C31.2705 14.1213 31.3772 14.5693 31.4412 15.316L31.4732 15.668C30.5132 16.1587 29.3398 16.5427 27.9532 16.82C27.4838 19.0813 26.5558 20.9907 25.1692 22.548C23.7825 24.1053 22.0545 24.884 19.9852 24.884ZM20.6252 18.708C20.6252 20.692 21.1265 21.684 22.1292 21.684C22.8332 21.684 23.5478 21.236 24.2732 20.34C25.0198 19.444 25.5318 18.356 25.8092 17.076C23.6332 17.076 22.5452 16.0307 22.5452 13.94C22.5452 13.5773 22.5772 13.204 22.6412 12.82C22.4278 12.82 22.2678 12.852 22.1612 12.916C21.7985 13.3 21.4465 14.0787 21.1052 15.252C20.7852 16.404 20.6252 17.556 20.6252 18.708ZM33.6754 10.42L40.2354 10.58C40.9821 10.58 41.6754 10.548 42.3154 10.484L42.6034 11.572C39.5101 15.156 37.3021 17.8653 35.9794 19.7C38.0914 20.2547 39.4247 20.5427 39.9794 20.564C40.5554 20.564 41.0247 20.116 41.3874 19.22L42.7634 19.7C42.3794 23.4547 41.1527 25.332 39.0834 25.332C38.3581 25.332 37.3661 24.98 36.1074 24.276C34.8701 23.572 34.0701 23.156 33.7074 23.028C32.6834 24.116 31.9154 24.66 31.4034 24.66C30.9127 24.66 30.3687 24.372 29.7714 23.796C29.1741 23.1987 28.8754 22.644 28.8754 22.132C28.8754 21.62 29.2487 20.9907 29.9954 20.244C30.7634 19.4973 31.5741 19.124 32.4274 19.124C32.6407 19.124 32.9607 19.1453 33.3874 19.188C34.6461 18.0147 35.7554 16.468 36.7154 14.548C34.1127 14.548 32.1501 14.932 30.8274 15.7C30.5714 14.676 30.4434 13.7907 30.4434 13.044C30.4434 12.2973 30.4647 11.6467 30.5074 11.092C30.8487 10.644 31.9047 10.42 33.6754 10.42ZM51.0772 12.5C51.0772 13.4387 50.8105 14.9 50.2772 16.884C49.7438 18.8467 49.4772 20.1267 49.4772 20.724C49.4772 21.3213 49.5945 21.62 49.8292 21.62C50.0638 21.62 50.4905 21.5133 51.1092 21.3L51.3972 21.172L51.9732 22.772C51.2478 23.3267 50.3412 23.8173 49.2532 24.244C48.1865 24.6707 47.2158 24.884 46.3412 24.884C45.4665 24.884 44.7732 24.6387 44.2612 24.148C43.7705 23.6573 43.5251 22.9533 43.5251 22.036C43.5251 21.0973 43.7812 19.6787 44.2932 17.78C44.8265 15.86 45.0932 14.644 45.0932 14.132C45.0932 13.3427 44.8158 12.596 44.2612 11.892L44.0052 11.54L44.1012 10.996C45.2105 10.6547 47.3652 10.484 50.5652 10.484C50.9065 10.868 51.0772 11.54 51.0772 12.5ZM48.6772 7.98802C47.7172 7.98802 46.9598 7.73202 46.4052 7.22002C45.8718 6.70802 45.6052 6.05735 45.6052 5.26802C45.6052 4.45736 45.9358 3.78536 46.5972 3.25203C47.2798 2.69736 48.1012 2.42002 49.0612 2.42002C50.0212 2.42002 50.7678 2.64402 51.3012 3.09202C51.8345 3.54002 52.1012 4.16935 52.1012 4.98002C52.1012 5.79069 51.7705 6.49469 51.1092 7.09202C50.4692 7.68935 49.6585 7.98802 48.6772 7.98802ZM61.6629 22.708C60.9802 23.3053 60.0842 23.8173 58.9749 24.244C57.8656 24.6707 56.8522 24.884 55.9349 24.884C55.0389 24.884 54.3029 24.628 53.7269 24.116C53.1509 23.5827 52.8629 22.8253 52.8629 21.844C52.8629 20.8627 53.3962 18.132 54.4629 13.652C55.5509 9.1507 56.0949 5.81203 56.0949 3.63602C56.0949 3.16669 56.0309 2.56935 55.9029 1.84402C57.9082 1.28936 59.8496 1.01202 61.7269 1.01202C61.9189 1.35336 62.0149 1.90803 62.0149 2.67603C62.0149 4.1267 61.4709 7.29469 60.3829 12.18C59.3162 17.044 58.7829 19.8493 58.7829 20.596C58.7829 21.3427 58.9109 21.716 59.1669 21.716C59.3802 21.716 59.8389 21.5773 60.5429 21.3L60.8949 21.14L61.6629 22.708Z" fill="#333333"/>
<path d="M71.1623 22.708C70.4796 23.3053 69.5836 23.8173 68.4743 24.244C67.365 24.6707 66.3516 24.884 65.4343 24.884C64.5383 24.884 63.8023 24.628 63.2263 24.116C62.6503 23.5827 62.3623 22.8253 62.3623 21.844C62.3623 20.8627 62.8956 18.132 63.9623 13.652C65.0503 9.1507 65.5943 5.81203 65.5943 3.63602C65.5943 3.16669 65.5303 2.56935 65.4023 1.84402C67.4076 1.28936 69.349 1.01202 71.2263 1.01202C71.4183 1.35336 71.5143 1.90803 71.5143 2.67603C71.5143 4.1267 70.9703 7.29469 69.8823 12.18C68.8156 17.044 68.2823 19.8493 68.2823 20.596C68.2823 21.3427 68.4103 21.716 68.6663 21.716C68.8796 21.716 69.3383 21.5773 70.0423 21.3L70.3943 21.14L71.1623 22.708ZM87.6383 11.54C87.1903 12.9267 86.8063 14.58 86.4863 16.5C86.1663 18.3987 86.0063 19.732 86.0063 20.5C86.0063 21.2467 86.1236 21.62 86.3583 21.62L87.9583 21.172L88.5343 22.772C87.8516 23.3053 86.977 23.796 85.9103 24.244C84.865 24.6707 83.937 24.884 83.1263 24.884C81.7396 24.884 80.865 24.2867 80.5023 23.092C78.817 24.2867 77.3236 24.884 76.0223 24.884C74.7423 24.884 73.7503 24.4147 73.0463 23.476C72.3423 22.5373 71.9903 21.1933 71.9903 19.444C71.9903 17.0333 72.609 14.9107 73.8463 13.076C75.0836 11.2413 76.7156 10.324 78.7423 10.324C79.8516 10.324 80.9823 10.6333 82.1343 11.252C82.305 10.868 82.4436 10.5907 82.5503 10.42C84.0863 10.42 85.7823 10.7933 87.6383 11.54ZM78.0063 19.06C78.0063 20.1267 78.081 20.7987 78.2303 21.076C78.3796 21.3533 78.657 21.492 79.0623 21.492C79.4676 21.492 79.8623 21.332 80.2463 21.012C80.3316 18.5373 80.737 15.9453 81.4623 13.236C81.1423 13.044 80.769 12.948 80.3423 12.948C79.937 12.948 79.5636 13.1827 79.2223 13.652C78.9023 14.1213 78.657 14.708 78.4863 15.412C78.1663 16.756 78.0063 17.972 78.0063 19.06Z" fill="#FF6C00"/>
</g>
<defs>
<clipPath id="clip0_102_2941">
<rect width="89" height="25" fill="white" transform="translate(0 0.5)"/>
</clipPath>
</defs>
</svg>
