<svg width="47" height="47" viewBox="0 0 47 47" fill="none" xmlns="http://www.w3.org/2000/svg">
<path d="M43.0833 32.7825V9.1454C43.0833 6.7954 41.1641 5.05248 38.8337 5.24832H38.7162C34.6037 5.60082 28.3566 7.69623 24.8708 9.88957L24.5379 10.105C23.97 10.4575 23.03 10.4575 22.462 10.105L21.9725 9.81123C18.4866 7.63748 12.2591 5.56165 8.14663 5.22873C5.81621 5.0329 3.91663 6.7954 3.91663 9.12582V32.7825C3.91663 34.6625 5.44413 36.425 7.32413 36.66L7.89204 36.7383C12.1416 37.3062 18.702 39.4604 22.462 41.5167L22.5404 41.5558C23.0691 41.8496 23.9112 41.8496 24.4204 41.5558C28.1804 39.48 34.7604 37.3062 39.0295 36.7383L39.6758 36.66C41.5558 36.425 43.0833 34.6625 43.0833 32.7825Z" stroke="#FF6C00" stroke-width="1.5" stroke-linecap="round" stroke-linejoin="round"/>
<path d="M23.5 10.7512V40.1262" stroke="#FF6C00" stroke-width="1.5" stroke-linecap="round" stroke-linejoin="round"/>
<path d="M15.1771 16.6262H10.7709" stroke="#FF6C00" stroke-width="1.5" stroke-linecap="round" stroke-linejoin="round"/>
<path d="M16.6459 22.5012H10.7709" stroke="#FF6C00" stroke-width="1.5" stroke-linecap="round" stroke-linejoin="round"/>
</svg>
