<svg width="47" height="47" viewBox="0 0 47 47" fill="none" xmlns="http://www.w3.org/2000/svg">
<path d="M39.1666 23.8915V27.2208C39.1666 33.3896 35.6416 36.0333 30.3541 36.0333H12.7291C7.44163 36.0333 3.91663 33.3896 3.91663 27.2208V16.6458C3.91663 10.477 7.44163 7.83325 12.7291 7.83325H18.0166C17.762 8.57742 17.625 9.39992 17.625 10.2812V17.9187C17.625 19.8183 18.2516 21.4241 19.3679 22.5404C20.4841 23.6566 22.09 24.2833 23.9895 24.2833V27.0054C23.9895 28.0042 25.1254 28.6111 25.9675 28.0627L31.627 24.2833H36.7187C37.6 24.2833 38.4225 24.1461 39.1666 23.8915Z" stroke="#FF6C00" stroke-width="1.5" stroke-miterlimit="10" stroke-linecap="round" stroke-linejoin="round"/>
<path d="M43.0833 10.2813V17.9189C43.0833 20.8368 41.595 23.03 39.1667 23.8917C38.4225 24.1462 37.6 24.2835 36.7187 24.2835H31.6271L25.9675 28.0629C25.1254 28.6112 23.9896 28.0043 23.9896 27.0056V24.2835C22.09 24.2835 20.4842 23.6568 19.3679 22.5405C18.2517 21.4243 17.625 19.8185 17.625 17.9189V10.2813C17.625 9.40008 17.7621 8.57758 18.0167 7.83341C18.8783 5.40508 21.0717 3.91675 23.9896 3.91675H36.7187C40.5375 3.91675 43.0833 6.46258 43.0833 10.2813Z" stroke="#FF6C00" stroke-width="1.5" stroke-miterlimit="10" stroke-linecap="round" stroke-linejoin="round"/>
<path d="M14.4917 43.0833H28.5917" stroke="#FF6C00" stroke-width="1.5" stroke-miterlimit="10" stroke-linecap="round" stroke-linejoin="round"/>
<path d="M21.5416 36.0334V43.0834" stroke="#FF6C00" stroke-width="1.5" stroke-miterlimit="10" stroke-linecap="round" stroke-linejoin="round"/>
<path d="M36.2204 14.1979H36.238" stroke="#FF6C00" stroke-width="1.5" stroke-linecap="round" stroke-linejoin="round"/>
<path d="M30.7374 14.1979H30.7551" stroke="#FF6C00" stroke-width="1.5" stroke-linecap="round" stroke-linejoin="round"/>
<path d="M25.2536 14.1979H25.2712" stroke="#FF6C00" stroke-width="1.5" stroke-linecap="round" stroke-linejoin="round"/>
</svg>
