<svg width="156" height="66" viewBox="0 0 156 66" fill="none" xmlns="http://www.w3.org/2000/svg">
<path d="M32.286 4.84055C21.4301 7.13415 12.7788 12.5796 7.76929 18.9661C5.48374 21.8162 3.69624 25.0319 2.48224 28.4776C1.53335 31.0801 0.955387 33.8031 0.765363 36.5666C0.647371 38.3372 0.713246 40.1153 0.96195 41.8723C1.1737 43.0835 1.33054 43.6981 1.41273 43.6996C1.49492 43.7012 1.15017 41.1439 1.69094 36.7185C2.49923 30.5687 5.09625 24.7918 9.15951 20.1053C14.084 14.1824 22.519 9.25826 32.9577 7.28565C38.4746 6.23447 44.1207 6.04079 49.6967 6.7114C55.8037 7.41846 61.7094 9.3322 67.0704 12.3414C72.6935 15.5313 77.3939 20.124 80.7134 25.6715C82.5564 28.7118 83.8541 32.0508 84.5477 35.5378C82.2373 34.702 79.8299 33.8023 77.2862 33.0063C74.2626 32.0082 71.1249 31.3965 67.9479 31.1857C64.6168 30.994 61.2843 31.5341 58.1843 32.768C55.0182 33.9904 52.1901 35.9517 49.9356 38.4886C47.6811 41.0256 46.0655 44.0645 45.2235 47.3523C44.3367 51.0727 44.7807 54.986 46.4784 58.4131C47.4502 60.3173 48.8997 61.9367 50.685 63.1128C52.408 64.2056 54.3365 64.934 56.3517 65.2531C58.166 65.559 60.0067 65.6797 61.8454 65.6135C63.645 65.5688 65.4384 65.3855 67.2099 65.0651C68.9598 64.7729 70.6819 64.3339 72.3581 63.7526C74.0386 63.1887 75.6601 62.4624 77.1998 61.5841C78.742 60.7143 80.1754 59.6643 81.4699 58.4562C82.802 57.2825 83.9748 55.9395 84.9584 54.4614C86.9392 51.4954 88.1918 48.1037 88.6144 44.5622C88.7374 43.5881 88.8055 42.6079 88.8183 41.6262C89.9824 41.9931 91.1531 42.3321 92.3189 42.6168C97.3617 43.8396 102.61 43.9538 107.701 42.9514C111.885 42.116 115.918 40.6506 119.662 38.6052C125.315 35.4606 130.343 31.3054 134.496 26.3462C137.288 23.0837 139.827 19.6136 142.092 15.9659C143.899 13.1104 145.144 10.89 146.029 9.22224C146.738 7.90811 147.246 6.89504 147.587 6.14348L147.685 7.00961C147.864 8.12891 148.16 9.22613 148.57 10.2829C149.242 12.0088 150.125 13.6452 151.197 15.1552C153.016 17.6862 154.456 18.9667 154.891 18.7443C155.327 18.5219 154.641 16.7162 153.502 14.0497C152.841 12.5539 152.279 11.0159 151.82 9.4459C151.568 8.58277 151.392 7.69905 151.295 6.80502L151.193 5.30117C151.165 4.99382 151.135 4.66838 151.064 4.29205C150.982 3.84532 150.844 3.41079 150.653 2.99891C150.413 2.49177 150.065 2.04316 149.634 1.68448C149.202 1.3258 148.698 1.06573 148.155 0.922397C147.894 0.857188 147.628 0.814591 147.36 0.795077C147.085 0.783875 146.804 0.800631 146.668 0.804073L145.82 0.900343C144.764 1.0248 143.765 1.16235 142.814 1.32285C141.124 1.59889 139.45 1.96896 137.802 2.43137C135.013 3.23498 133.403 4.06686 133.54 4.56475C133.677 5.06264 135.543 5.12795 138.439 4.99815C139.892 4.93736 141.595 4.81709 143.488 4.68841L145.247 4.58127C144.705 5.23279 144.052 6.15895 143.167 7.44368C142.091 9.01957 140.666 11.0741 138.776 13.8097C136.43 17.2047 133.88 20.4533 131.139 23.5376C127.181 28.0628 122.457 31.855 117.183 34.7403C113.794 36.5488 110.156 37.8452 106.388 38.5871C101.947 39.4554 97.3711 39.3478 92.9764 38.2717C91.4769 37.9266 89.9741 37.445 88.4136 36.9322C87.7097 32.3549 86.0777 27.9697 83.6176 24.0459C79.885 17.9857 74.6419 12.9993 68.4021 9.57523C62.6155 6.43181 56.2582 4.47833 49.7049 3.82993C43.8486 3.24603 37.9369 3.58096 32.184 4.82259L32.286 4.84055ZM84.7838 43.8481C84.3892 46.8519 83.2914 49.7202 81.5797 52.2198C80.7459 53.4525 79.751 54.568 78.6214 55.5369C77.4853 56.5384 76.2376 57.4057 74.9029 58.1217C73.5606 58.8695 72.1487 59.4849 70.6872 59.9591C69.1992 60.4568 67.6722 60.8291 66.1222 61.0721C64.5609 61.3266 62.9822 61.4597 61.4003 61.4702C59.8425 61.5157 58.2841 61.4057 56.7482 61.1417C55.3854 60.9895 54.0806 60.5057 52.9479 59.7328C51.8152 58.9598 50.8891 57.9212 50.2505 56.7077C49.0615 54.1817 48.7791 51.3231 49.4509 48.6133C49.7503 47.2858 50.2476 46.0108 50.926 44.8311C51.5925 43.6255 52.4086 42.509 53.355 41.508C55.2174 39.5235 57.4942 37.9737 60.0235 36.9689C62.5528 35.9641 65.2725 35.5289 67.989 35.6943C70.7641 35.9044 73.5028 36.4545 76.1437 37.3322C79.11 38.2626 82.0322 39.4066 84.9559 40.4684C84.9686 41.608 84.9029 42.7471 84.7592 43.8777" fill="#FF6C00"/>
</svg>
