<svg width="603" height="193" viewBox="0 0 603 193" fill="none" xmlns="http://www.w3.org/2000/svg">
<path d="M156.988 34.6134C156.988 32.2152 158.977 30.2266 161.375 30.2266C163.773 30.2266 165.762 32.2152 165.762 34.6134C165.762 37.0115 163.773 39.0001 161.375 39.0001C158.977 39.0001 156.988 37.0115 156.988 34.6134Z" fill="#80C342"/>
<path d="M25.2094 22.6812C25.2094 27.7699 23.8641 31.6302 21.1151 34.3793C18.366 37.1283 14.5641 38.4736 9.59245 38.4736H0V8.05853H10.2943C15.0321 8.05853 18.717 9.28683 21.3491 11.8019C23.8641 14.3755 25.2094 17.9434 25.2094 22.6812ZM16.8453 22.9736C16.8453 20.1661 16.3189 18.1189 15.2075 16.7736C14.1547 15.4283 12.517 14.7849 10.2943 14.7849H7.95472V31.8057H9.76792C12.2245 31.8057 13.9792 31.1038 15.1491 29.6416C16.3189 28.1793 16.8453 25.9566 16.8453 22.9736Z" fill="#021F5A" fill-opacity="0.66"/>
<path d="M59.4259 8H51.7637V38.5321H59.4259V8Z" fill="#021F5A" fill-opacity="0.66"/>
<path d="M84.461 27.126C84.461 30.8109 83.4667 33.7354 81.5365 35.7826C79.6063 37.8297 76.8572 38.8826 73.3478 38.8826C70.0138 38.8826 67.3233 37.8297 65.3346 35.7241C63.3459 33.6184 62.3516 30.7524 62.3516 27.126C62.3516 23.441 63.3459 20.575 65.2761 18.5278C67.2063 16.4807 69.9553 15.4863 73.4648 15.4863C75.6289 15.4863 77.5591 15.9543 79.2553 16.8901C80.9516 17.826 82.1799 19.1712 83.1157 20.9844C84.0516 22.6807 84.461 24.7863 84.461 27.126ZM70.1308 27.126C70.1308 29.0561 70.3648 30.5769 70.8912 31.5712C71.4176 32.5656 72.2365 33.092 73.4648 33.092C74.6346 33.092 75.5119 32.5656 75.9799 31.5712C76.4478 30.5769 76.7402 29.0561 76.7402 27.126C76.7402 25.1958 76.5063 23.7335 75.9799 22.7392C75.5119 21.7448 74.6346 21.2769 73.4648 21.2769C72.295 21.2769 71.4761 21.7448 70.9497 22.7392C70.4233 23.7335 70.1308 25.1958 70.1308 27.126Z" fill="#021F5A" fill-opacity="0.66"/>
<path d="M95.1642 15.8377H87.5019V38.532H95.1642V15.8377Z" fill="#021F5A" fill-opacity="0.66"/>
<path d="M95.1642 8H87.5019V13.0887H95.1642V8Z" fill="#021F5A" fill-opacity="0.66"/>
<path d="M110.606 32.7418C111.659 32.7418 112.887 32.5078 114.291 31.9814V37.7135C113.238 38.1814 112.302 38.4738 111.366 38.7078C110.43 38.8833 109.319 39.0003 108.091 39.0003C105.517 39.0003 103.704 38.3569 102.534 37.0701C101.423 35.7833 100.838 33.7946 100.838 31.1625V21.804H98.1475V15.955H100.838V10.0474L108.559 8.70215V15.838H113.413V21.6871H108.559V30.5191C108.559 31.9814 109.261 32.7418 110.606 32.7418Z" fill="#021F5A" fill-opacity="0.66"/>
<path d="M128.328 32.7411C129.38 32.7411 130.609 32.5071 132.013 31.9807V37.7128C130.96 38.1807 130.024 38.4732 129.088 38.7071C128.152 38.8826 127.041 38.9996 125.813 38.9996C123.239 38.9996 121.426 38.3562 120.256 37.0694C119.145 35.7826 118.56 33.7939 118.56 31.1619V21.8034H115.869V15.9543H118.56V10.1053L126.28 8.87695V16.0128H131.135V21.8619H126.28V30.6939C126.222 31.9807 126.924 32.7411 128.328 32.7411Z" fill="#021F5A" fill-opacity="0.66"/>
<path d="M152.426 18.1193C150.613 16.3646 148.039 15.4287 144.705 15.4287C141.196 15.4287 138.505 16.4231 136.634 18.5287C134.762 20.5759 133.826 23.5004 133.826 27.3608C133.826 31.0457 134.821 33.9117 136.868 35.9589C138.915 37.9476 141.781 38.9419 145.466 38.9419C147.221 38.9419 148.741 38.8249 150.028 38.591C151.315 38.357 152.543 37.9476 153.713 37.3042L152.543 32.2155C151.666 32.5664 150.847 32.8589 150.087 33.0344C148.975 33.2683 147.747 33.4438 146.402 33.4438C144.939 33.4438 143.77 33.0929 142.892 32.391C142.015 31.6891 141.605 30.6947 141.547 29.408H155.175V25.957C155.117 22.4476 154.239 19.874 152.426 18.1193ZM141.664 24.3778C141.781 23.1495 142.132 22.2136 142.717 21.6287C143.302 21.0438 144.062 20.7514 144.998 20.7514C145.992 20.7514 146.753 21.1023 147.337 21.7457C147.922 22.3891 148.215 23.2664 148.273 24.3778H141.664Z" fill="#021F5A" fill-opacity="0.66"/>
<path d="M46.0902 18.1193C44.277 16.3646 41.7034 15.4287 38.3695 15.4287C34.86 15.4287 32.1695 16.4231 30.2978 18.5287C28.4261 20.5759 27.4902 23.5004 27.4902 27.3608C27.4902 31.0457 28.4846 33.9117 30.5317 35.9589C32.5789 37.9476 35.445 38.9419 39.1299 38.9419C40.8846 38.9419 42.4053 38.8249 43.6921 38.591C44.9789 38.357 46.2072 37.9476 47.377 37.3042L46.2072 32.2155C45.3299 32.5664 44.511 32.8589 43.7506 33.0344C42.6393 33.2683 41.411 33.4438 40.0657 33.4438C38.6034 33.4438 37.4336 33.0929 36.5563 32.391C35.6789 31.6891 35.2695 30.6947 35.211 29.408H48.8393V25.957C48.8393 22.4476 47.9034 19.874 46.0902 18.1193ZM35.328 24.3778C35.445 23.1495 35.7959 22.2136 36.3808 21.6287C36.9657 21.0438 37.7261 20.7514 38.6619 20.7514C39.6563 20.7514 40.4166 21.1023 41.0016 21.7457C41.5865 22.3891 41.8789 23.2664 41.9374 24.3778H35.328Z" fill="#021F5A" fill-opacity="0.66"/>
<path d="M309.881 16.0406H316.409V36.5574H309.881V16.0406ZM291.229 30.5889C296.265 30.5889 299.436 27.6046 299.436 22.1957C299.436 16.9732 296.265 13.8025 291.229 13.8025H288.245V30.4024L291.229 30.5889ZM281.53 7.64743H290.669C300.368 7.64743 305.964 13.0564 305.964 22.1957C305.964 31.3349 300.368 36.7439 290.669 36.7439H281.53V7.64743Z" fill="#021F5A" fill-opacity="0.66"/>
<path d="M313.051 12.8698C315.111 12.8698 316.781 11.1997 316.781 9.1395C316.781 7.0793 315.111 5.40918 313.051 5.40918C310.99 5.40918 309.32 7.0793 309.32 9.1395C309.32 11.1997 310.99 12.8698 313.051 12.8698Z" fill="#021F5A" fill-opacity="0.66"/>
<path d="M326.48 36.7435L318.833 16.0402H325.921L330.397 28.9098H330.584L335.06 16.0402H341.775L334.128 36.7435H326.48ZM350.727 36.7435L343.08 16.0402H350.168L354.644 28.9098H354.831L359.307 16.0402H366.022L358.375 36.7435H350.727ZM372.177 45.8828H378.891L391.388 16.0402H384.3L379.637 28.1638H379.451L374.788 16.0402H367.327L375.721 36.93L372.177 45.8828ZM249.263 44.7637C253.18 42.5255 254.858 37.6761 253.366 33.5727C247.584 17.1593 236.393 3.54367 236.393 3.54367C233.596 -0.000132129 228.56 -0.932713 224.643 1.30548C220.726 3.54367 219.047 8.20656 220.539 12.4964C226.321 28.9098 237.512 42.5255 237.512 42.5255C240.31 46.0693 245.16 47.0019 249.263 44.7637Z" fill="#021F5A" fill-opacity="0.66"/>
<path d="M260.64 18.2785C265.688 18.2785 269.78 14.1868 269.78 9.13927C269.78 4.09179 265.688 0 260.64 0C255.593 0 251.501 4.09179 251.501 9.13927C251.501 14.1868 255.593 18.2785 260.64 18.2785Z" fill="#021F5A" fill-opacity="0.66"/>
<path d="M543.694 43.7414C534.636 50.4078 521.477 53.997 510.197 53.997C494.345 53.997 480.074 48.144 469.263 38.3577C468.41 37.5899 469.178 36.5631 470.205 37.1603C481.868 43.9547 496.267 48.013 511.181 48.013C521.224 48.013 532.247 45.9199 542.414 41.6025C543.907 40.9657 545.233 42.6323 543.694 43.7414Z" fill="#FF9900"/>
<path d="M547.496 39.4274C546.342 37.9314 539.849 38.7449 536.9 39.0861C536.004 39.2141 535.873 38.4036 536.686 37.8461C541.857 34.2143 550.36 35.241 551.342 36.478C552.326 37.7181 551.086 46.2187 546.214 50.2801C545.489 50.9199 544.76 50.5787 545.102 49.7256C546.174 47.0322 548.651 40.9233 547.496 39.4274Z" fill="#FF9900"/>
<path d="M537.115 12.1249V8.57838C537.115 8.02386 537.542 7.68262 538.011 7.68262H553.864C554.375 7.68262 554.759 8.06652 554.759 8.57838V11.613C554.759 12.1249 554.333 12.7678 553.562 13.8341L545.357 25.5827C548.391 25.4973 551.636 25.9666 554.415 27.5052C555.055 27.8464 555.225 28.3583 555.268 28.8732V32.633C555.268 33.1449 554.714 33.7451 554.113 33.4434C549.242 30.8811 542.749 30.6221 537.365 33.4861C536.811 33.7847 536.253 33.1875 536.253 32.6756V29.0865C536.253 28.4893 536.253 27.5052 536.85 26.6521L546.378 12.978H538.087C537.499 13.0206 537.115 12.6794 537.115 12.1249Z" fill="#021F5A" fill-opacity="0.66"/>
<path d="M479.22 34.2569H474.391C473.922 34.2142 473.581 33.873 473.538 33.4464V8.6636C473.538 8.15174 473.965 7.76784 474.48 7.76784H478.964C479.434 7.76784 479.818 8.15174 479.818 8.57829V11.8262H479.903C481.058 8.70626 483.279 7.25293 486.271 7.25293C489.305 7.25293 491.185 8.70626 492.55 11.8262C493.705 8.70626 496.353 7.25293 499.217 7.25293C501.224 7.25293 503.446 8.10603 504.814 9.94326C506.352 12.0364 506.011 15.0711 506.011 17.7187V33.358C506.011 33.8699 505.584 34.2538 505.07 34.2538H500.24C499.771 34.2111 499.387 33.8273 499.387 33.358V20.2415C499.387 19.2147 499.473 16.6097 499.259 15.5829C498.918 13.9163 497.806 13.4471 496.438 13.4471C495.283 13.4471 494.046 14.2149 493.531 15.4976C493.019 16.7377 493.105 18.8308 493.105 20.2415V33.358C493.105 33.8699 492.678 34.2538 492.163 34.2538H487.334C486.865 34.2111 486.481 33.8273 486.481 33.358V20.2415C486.481 17.4628 486.95 13.4044 483.489 13.4044C480.028 13.4044 480.156 17.3775 480.156 20.2415V33.358C480.159 33.8303 479.732 34.2569 479.22 34.2569Z" fill="#021F5A" fill-opacity="0.66"/>
<path d="M568.434 7.25305C575.612 7.25305 579.457 13.4046 579.457 21.2257C579.457 28.7879 575.186 34.7688 568.434 34.7688C561.383 34.7688 557.581 28.6173 557.581 20.9668C557.581 13.2339 561.469 7.25305 568.434 7.25305ZM568.476 12.2955C564.93 12.2955 564.717 17.1247 564.717 20.1563C564.717 23.1909 564.674 29.6411 568.476 29.6411C572.236 29.6411 572.407 24.4279 572.407 21.2654C572.407 19.1722 572.322 16.6921 571.682 14.6842C571.081 12.978 570.015 12.2955 568.476 12.2955Z" fill="#021F5A" fill-opacity="0.66"/>
<path d="M588.771 34.257H583.985C583.516 34.2143 583.132 33.8304 583.132 33.3612V8.57841C583.174 8.1092 583.558 7.76796 584.073 7.76796H588.558C588.985 7.76796 589.326 8.06655 589.411 8.45045V12.2529H589.497C590.865 8.877 592.744 7.25305 596.078 7.25305C598.256 7.25305 600.349 8.02085 601.717 10.1597C603 12.1249 603 15.4581 603 17.8499V33.4465C602.957 33.8731 602.531 34.2143 602.059 34.2143H597.144C596.717 34.1717 596.334 33.8731 596.291 33.4465V19.9857C596.291 17.2954 596.59 13.3193 593.256 13.3193C592.102 13.3193 590.992 14.0871 590.478 15.2845C589.795 16.7804 589.71 18.3191 589.71 19.9857V33.3155C589.713 33.8304 589.283 34.257 588.771 34.257Z" fill="#021F5A" fill-opacity="0.66"/>
<path d="M533.054 29.6866C532.159 28.4465 531.217 27.4655 531.217 25.2017V17.6821C531.217 14.4769 531.43 11.5733 529.081 9.39175C527.244 7.59717 524.167 7 521.818 7C517.244 7 512.077 8.70926 511.008 14.3916C510.88 14.9887 511.349 15.333 511.733 15.4183L516.391 15.9302C516.818 15.9302 517.159 15.5037 517.244 15.0345C517.628 13.0693 519.295 12.1278 521.132 12.1278C522.116 12.1278 523.268 12.5117 523.822 13.3678C524.505 14.352 524.42 15.7169 524.42 16.8717V17.5115C521.641 17.8101 517.966 18.0234 515.361 19.1781C512.327 20.5035 510.234 23.1512 510.234 27.0816C510.234 32.0814 513.396 34.6011 517.455 34.6011C520.873 34.6011 522.753 33.7906 525.401 31.0973C526.254 32.38 526.555 32.9771 528.179 34.3025C528.521 34.4731 528.99 34.4731 529.334 34.1745C530.318 33.3214 532.07 31.7828 533.051 30.9693C533.441 30.6677 533.356 30.1131 533.054 29.6866ZM523.57 27.5051C522.802 28.8731 521.562 29.6835 520.236 29.6835C518.399 29.6835 517.287 28.2729 517.287 26.1797C517.287 22.0787 520.961 21.3078 524.465 21.3078V22.3346C524.468 24.3029 524.511 25.8385 523.57 27.5051Z" fill="#021F5A" fill-opacity="0.66"/>
<path d="M469.778 29.6866C468.882 28.4465 467.941 27.4655 467.941 25.2017V17.6821C467.941 14.4769 468.154 11.5733 465.805 9.39175C463.968 7.59717 460.89 7 458.541 7C453.968 7 448.843 8.70926 447.731 14.3916C447.603 14.9887 448.072 15.333 448.456 15.4183L453.158 15.9302C453.584 15.9302 453.925 15.5037 454.011 15.0345C454.395 13.0693 456.061 12.1278 457.898 12.1278C458.883 12.1278 460.034 12.5117 460.589 13.3678C461.271 14.352 461.186 15.7169 461.186 16.8717V17.5115C458.407 17.8101 454.733 18.0234 452.128 19.1781C449.093 20.5035 447 23.1512 447 27.0816C447 32.0814 450.163 34.6011 454.221 34.6011C457.639 34.6011 459.519 33.7906 462.167 31.0973C463.063 32.38 463.322 32.9771 464.946 34.3025C465.287 34.4731 465.756 34.4731 466.1 34.1745C467.085 33.3214 468.837 31.7828 469.818 30.9693C470.162 30.6677 470.077 30.1131 469.778 29.6866ZM460.29 27.5051C459.522 28.8731 458.325 29.6835 456.957 29.6835C455.12 29.6835 454.008 28.2729 454.008 26.1797C454.008 22.0787 457.682 21.3078 461.186 21.3078V22.3346C461.189 24.3029 461.232 25.8385 460.29 27.5051Z" fill="#021F5A" fill-opacity="0.66"/>
<path d="M352.72 127.577H352.917C353.049 127.577 353.142 127.557 353.197 127.513C353.251 127.469 353.277 127.413 353.277 127.346C353.277 127.278 353.252 127.223 353.201 127.18C353.151 127.13 353.061 127.11 352.941 127.11H352.729V127.57L352.72 127.577ZM352.265 126.797H353.083C353.315 126.797 353.483 126.844 353.587 126.937C353.691 127.032 353.743 127.157 353.743 127.314C353.743 127.438 353.703 127.544 353.623 127.634C353.545 127.724 353.42 127.79 353.25 127.83C353.32 127.85 353.37 127.88 353.405 127.91C353.451 127.95 353.5 128.01 353.55 128.09L353.848 128.62H353.308C353.132 128.27 353.014 128.063 352.955 127.995C352.895 127.927 352.835 127.895 352.775 127.895C352.761 127.895 352.743 127.895 352.719 127.9V128.62H352.259V126.797H352.265ZM354.422 127.714C354.422 127.332 354.287 127.006 354.018 126.736C353.748 126.466 353.423 126.331 353.041 126.331C352.661 126.331 352.341 126.467 352.071 126.736C351.801 127.006 351.671 127.332 351.671 127.714C351.671 128.094 351.807 128.421 352.076 128.691C352.346 128.961 352.672 129.096 353.052 129.096C353.435 129.096 353.76 128.961 354.03 128.691C354.3 128.421 354.435 128.095 354.435 127.714H354.422ZM354.755 127.714C354.755 128.021 354.679 128.306 354.525 128.571C354.373 128.836 354.165 129.045 353.9 129.198C353.635 129.35 353.35 129.426 353.042 129.426C352.737 129.426 352.452 129.35 352.188 129.198C351.923 129.045 351.714 128.836 351.561 128.571C351.411 128.306 351.331 128.021 351.331 127.714C351.331 127.409 351.411 127.124 351.561 126.858C351.721 126.592 351.931 126.383 352.191 126.23C352.461 126.07 352.741 126 353.051 126C353.359 126 353.645 126.07 353.911 126.23C354.175 126.38 354.384 126.59 354.537 126.85C354.69 127.113 354.767 127.4 354.767 127.704L354.755 127.714ZM270.23 168.561H270.43C270.562 168.561 270.655 168.541 270.71 168.496C270.763 168.454 270.79 168.398 270.79 168.331C270.79 168.261 270.764 168.207 270.713 168.165C270.66 168.121 270.573 168.1 270.448 168.1H270.231V168.56L270.23 168.561ZM269.778 167.781H270.596C270.828 167.781 270.996 167.828 271.1 167.921C271.203 168.016 271.255 168.141 271.255 168.299C271.255 168.421 271.215 168.529 271.137 168.619C271.057 168.709 270.932 168.773 270.762 168.814C270.832 168.841 270.884 168.87 270.918 168.899C270.963 168.941 271.013 169.004 271.063 169.085L271.361 169.615H270.821C270.651 169.268 270.531 169.058 270.471 168.991C270.411 168.923 270.351 168.888 270.291 168.888C270.281 168.888 270.261 168.888 270.241 168.895V169.615H269.789V167.781H269.778ZM271.935 168.698C271.935 168.316 271.799 167.991 271.53 167.721C271.26 167.451 270.935 167.316 270.554 167.316C270.174 167.316 269.848 167.45 269.578 167.721C269.308 167.991 269.174 168.316 269.174 168.698C269.174 169.078 269.308 169.406 269.578 169.676C269.848 169.946 270.173 170.081 270.554 170.081C270.934 170.081 271.26 169.945 271.53 169.676C271.8 169.406 271.935 169.079 271.935 168.698ZM272.268 168.698C272.268 169.005 272.192 169.29 272.038 169.555C271.886 169.82 271.676 170.029 271.411 170.182C271.151 170.342 270.861 170.412 270.561 170.412C270.261 170.412 269.971 170.342 269.711 170.182C269.447 170.032 269.237 169.822 269.084 169.562C268.932 169.3 268.854 169.012 268.854 168.708C268.854 168.402 268.932 168.118 269.084 167.852C269.237 167.586 269.447 167.377 269.712 167.225C269.978 167.073 270.262 166.995 270.568 166.995C270.874 166.995 271.158 167.073 271.424 167.225C271.69 167.378 271.9 167.585 272.054 167.853C272.204 168.121 272.282 168.403 272.282 168.713L272.268 168.698ZM266.252 160.703H274.254L280.014 145.578L279.374 160.703H287.857L300.82 126.013H292.9L286.977 141.338L287.937 126.013H279.375L266.252 160.703ZM302.102 126.013L289.217 160.703H297.219L310.18 126.013H302.1H302.102ZM321.065 158.303L332.67 126.931L320.344 140.057L321.064 158.302L321.065 158.303ZM265.07 149.058C265.07 149.058 261.77 155.3 261.77 160.702C261.77 160.702 261.47 173.432 274.614 173.432H276.414C276.414 173.432 279.054 174.272 324.546 160.712H313.024L312.424 146.427L307.022 160.707H298.74L311.824 126.016H319.746L316.146 135.978L324.666 126.015H349.634L347.472 131.777H338.95L336.31 139.099H344.232L341.712 145.579H333.91L330.79 154.101H340.152L339.432 156.621C339.432 156.621 373.4 147.859 377 146.899C377 146.899 280.19 192.777 264.345 192.777C264.345 192.777 249.047 192.87 249.047 180.387C249.047 180.387 247.307 168.745 265.071 149.059L265.07 149.058Z" fill="#021F5A" fill-opacity="0.66"/>
<path d="M558.052 119H486.913L458 153.444L486.913 188.391H558.052L586.446 153.444L558.052 119ZM556.531 185.111H488.439L462.031 153.444L488.439 122.505H556.531L582.435 153.444L556.531 185.111ZM495.474 150.667C495.474 150.667 498.478 149.665 498.478 144.132C498.478 137.85 491.694 137.349 490.192 137.349H484.409V165.511H488.439V152.442H490.441C493.946 152.442 494.222 155.446 494.222 155.446L494.722 165.51H498.727C498.727 165.51 498.477 160.228 498.227 155.696C497.727 151.167 495.474 150.667 495.474 150.667ZM488.439 149.165V141.129C489.441 141.129 494.472 140.628 494.472 144.634C494.472 149.916 488.439 149.165 488.439 149.165ZM508.04 144.633C501.757 144.633 501.507 151.667 501.507 151.667C501.507 151.667 501.256 154.946 501.507 158.476C501.757 161.73 502.258 165.761 508.54 165.761C514.824 165.761 515.075 160.057 515.075 158.727V151.667C515.075 149.165 514.324 144.633 508.04 144.633ZM511.078 157.778C511.078 160.807 510.543 162.231 508.291 162.231C505.261 162.231 505.512 157.976 505.512 157.976V151.668C505.512 147.914 508.291 147.914 508.291 147.914C511.045 147.914 511.045 151.943 511.045 151.943C511.045 151.943 511.078 156.526 511.078 157.778ZM555.029 160.228C554.772 157.199 555.029 156.198 555.029 156.198H565.086C565.086 154.695 565.086 154.195 564.839 151.417C564.592 148.913 563.565 144.633 558.052 144.633C551.749 144.633 551.245 151.667 551.245 151.667C551.245 151.667 550.998 155.196 551.245 158.476C551.749 161.73 552.253 166.011 558.28 166.011C564.335 166.011 564.839 159.978 564.839 158.726H560.561C560.561 164.009 555.523 163.508 555.029 160.228ZM558.052 147.913C561.056 147.913 560.561 152.943 560.561 152.943H555.276C555.276 147.412 558.052 147.913 558.052 147.913ZM542.709 144.383C540.18 144.383 538.678 146.135 538.678 146.135V137.1H534.925V165.511H538.935V150.667C538.935 150.667 538.935 147.914 541.464 147.914C543.964 147.914 544.211 149.916 544.211 150.667V165.511H547.738V150.417C547.738 150.417 547.738 144.383 542.709 144.383ZM524.862 144.633C518.604 144.633 518.604 151.417 518.604 151.417C518.604 151.417 518.104 155.196 518.604 158.476C518.855 161.73 519.606 165.761 525.363 165.761C531.396 165.761 531.897 159.978 531.897 158.727V158.226H527.867C527.867 160.73 527.366 162.231 524.863 162.231C522.11 162.231 522.334 157.7 522.334 157.7C522.334 157.7 522.109 154.946 522.334 151.668C522.584 147.663 525.113 147.914 525.113 147.914C528.117 147.914 528.117 152.444 528.117 152.444H531.897V151.418C531.646 148.914 531.146 144.633 524.862 144.633Z" fill="#021F5A" fill-opacity="0.66"/>
<path d="M172.99 149.351C172.748 148.954 172.482 148.58 172.192 148.223C171.803 147.667 171.359 147.155 170.863 146.699L170.394 146.231L169.334 145.333L168.267 144.595L167.675 144.266C165.623 143.127 163.313 142.534 160.967 142.543C158.618 142.518 156.304 143.112 154.258 144.266L153.667 144.595L152.54 145.333L151.472 146.231L151.003 146.699C150.509 147.16 150.064 147.671 149.674 148.223C148.433 149.87 147.587 151.779 147.201 153.804C146.986 154.745 146.879 155.694 146.871 156.654C146.891 158.075 147.113 159.485 147.534 160.838C147.736 161.494 147.982 162.134 148.272 162.755L148.935 163.954L149.332 164.482C149.558 164.883 149.828 165.268 150.13 165.61C150.706 166.312 151.353 166.951 152.047 167.527L153.115 168.325C153.464 168.587 153.845 168.809 154.242 168.988C156.289 170.135 158.597 170.731 160.943 170.718C163.285 170.726 165.583 170.155 167.651 169.063L168.255 168.662C168.832 168.325 169.385 167.949 169.91 167.535C170.239 167.205 170.632 166.943 170.902 166.638L171.799 165.645L172.597 164.577L172.998 163.986C174.307 161.763 174.998 159.23 174.999 156.65C175.031 154.082 174.34 151.546 173.006 149.354H172.978V149.351H172.99ZM171.359 153.193L166.175 158.242L167.374 165.419L160.927 162.037L154.564 165.419L155.759 158.242L150.587 153.193L157.763 152.133L161.014 145.619L164.202 152.133L171.359 153.193Z" fill="#F8991D"/>
<path d="M10.5708 135H17.3467L17.1244 150.679C17.1244 158.575 14.2386 162.894 8.04219 164.235C5.855 164.751 3.60033 165.12 1.3536 165.347L0.0595424 165.482L0 158.158L1.15909 158.11C3.44563 158.022 5.70993 157.626 7.89135 156.935C9.09807 156.467 10.5549 155.32 10.408 150.731V150.703L10.5708 140.851V135ZM91.8738 136.203C92.5368 137.04 92.8583 138.053 92.8146 139.089V163.648H86.2411V148.302L77.4368 161.869C77.0557 162.473 76.5119 163.017 75.8808 163.386C75.2655 163.755 74.6145 163.942 73.8563 163.93C72.3876 163.93 71.0062 163.12 70.2679 161.81L61.3485 148.143V163.648H54.7631V138.803C54.7035 137.862 55.0251 136.889 55.6761 136.111C56.3787 135.373 57.3194 134.992 58.2642 135.024C59.5304 134.964 60.8205 135.627 61.5827 136.774L73.904 154.895L85.9712 136.814C86.6619 135.667 87.956 134.948 89.3254 135.024C90.2146 134.988 91.207 135.409 91.8738 136.203ZM130.711 137.346C129.786 135.393 127.417 134.547 125.448 135.449C124.622 135.857 123.947 136.52 123.55 137.346L107.835 163.684H115.77L119.827 156.439L134.32 156.38L138.464 163.644H146.097L130.711 137.346ZM130.295 149.655H123.669L126.948 144.17L130.295 149.655ZM50.4363 154.915C50.6229 157.384 49.5511 159.837 47.5862 161.393L47.4513 161.48C45.145 162.822 42.5807 163.525 39.9529 163.525C39.5838 163.525 33.6494 163.485 33.6494 163.485C32.8833 163.485 32.0933 163.457 31.3074 163.426C30.4525 163.397 29.602 163.289 28.7669 163.104C27.9293 162.929 27.1156 162.659 26.3257 162.298C25.5159 161.917 24.7974 161.401 24.194 160.742L24.1821 160.73C23.5374 160.029 23.0346 159.209 22.7015 158.317C22.297 157.221 22.1083 156.058 22.1458 154.891V135.028H28.6319V154.653C28.6319 155.181 28.6319 156.785 33.0976 156.785H39.5758C43.9423 156.785 43.9423 155.181 43.9423 154.653V135.028H50.4403L50.4363 154.915ZM97.3716 135.294H104.179V163.763H97.3716V135.294Z" fill="#021F5A" fill-opacity="0.66"/>
</svg>
