<svg width="133" height="25" viewBox="0 0 133 25" fill="none" xmlns="http://www.w3.org/2000/svg">
<g clip-path="url(#clip0_1091_79474)">
<path d="M4.34064 3.39473V13.7368C4.34064 15.2456 4.4024 16.2719 4.52591 16.8158C4.64943 17.3597 4.81706 17.7105 5.0288 17.8684C5.50522 18.2368 6.27278 18.421 7.33149 18.421H7.96671V18.8421H0.529297V18.421H0.820441C1.84386 18.386 2.61142 18.1666 3.12313 17.7632C3.47603 17.4474 3.68777 16.7105 3.75835 15.5526C3.79364 15.1316 3.81129 14.5176 3.81129 13.7105V2.97368C3.81129 2.23684 3.61719 1.73684 3.229 1.47368C2.8408 1.21052 2.22323 1.07894 1.37626 1.07894V0.657888H9.39596L13.9749 12.5526L17.8656 0.657888H24.6413V1.07894H22.9474V18.421H24.6413V18.8421H16.0129V18.421H17.7068V3.39473H17.5215L12.4662 18.8421H11.9633C10.9399 18.8421 10.1812 18.193 9.68711 16.8947L4.44651 3.39473H4.34064ZM27.6886 7.15789H25.8094V6.73684H27.3975C29.3208 6.73684 31.0853 6.57017 32.691 6.23684V18.421H34.332V18.8421H26.0476V18.421H27.6886V7.15789ZM30.1766 5.13157C29.4884 5.13157 28.8973 4.89473 28.4033 4.42105C27.9268 3.92982 27.6886 3.3421 27.6886 2.65789C27.6886 1.95613 27.9268 1.36842 28.4033 0.894732C28.8973 0.403503 29.4972 0.157888 30.2031 0.157888C30.9089 0.157888 31.5 0.403503 31.9764 0.894732C32.4528 1.36842 32.691 1.95613 32.691 2.65789C32.691 3.3421 32.444 3.92982 31.9499 4.42105C31.4735 4.89473 30.8824 5.13157 30.1766 5.13157ZM36.7327 7.15789H34.8535V6.73684H36.4415C38.3649 6.73684 40.1294 6.57017 41.7351 6.23684V8.81578H41.8674C42.5556 7.09651 43.7908 6.23684 45.5729 6.23684C47.0904 6.23684 48.1579 6.71052 48.7755 7.65789C49.3931 8.58769 49.7018 9.92105 49.7018 11.6579V18.421H51.3428V18.8421H43.1643V18.421H44.8053V12.7632C44.8053 10.9737 44.7259 9.67545 44.5671 8.86841C44.4083 8.06138 44.0554 7.65789 43.5084 7.65789C42.8909 7.65789 42.4232 8.31578 42.1056 9.63157C41.788 10.9298 41.6292 12.3684 41.6292 13.9474V18.8421H35.0917V18.421H36.7327V7.15789ZM57.6083 13.8421C57.6083 15.4386 57.8023 16.6491 58.1906 17.4737C58.5964 18.2982 59.3287 18.7105 60.3874 18.7105C61.4637 18.7105 62.3901 18.3684 63.1665 17.6842C63.9605 17 64.4722 16.0789 64.7016 14.921L64.7545 14.6842L65.2309 14.7632C64.9839 16.2018 64.3752 17.3245 63.4047 18.1316C62.4342 18.9386 61.1726 19.3421 59.6198 19.3421C57.273 19.3421 55.4556 18.7895 54.1675 17.6842C52.8794 16.5614 52.2353 14.9561 52.2353 12.8684C52.2353 10.7807 52.8529 9.15789 54.0881 7.99999C55.3232 6.82453 56.9995 6.23684 59.1169 6.23684C60.8461 6.23684 62.2842 6.5614 63.4311 7.21052C64.5957 7.8421 65.178 8.82453 65.178 10.1579C65.178 11.4912 64.6399 12.4386 63.5635 13C62.4871 13.5614 61.0843 13.8421 59.3551 13.8421H57.6083ZM57.5818 11.4737V13.3684H58.2435C59.0375 13.3684 59.5845 13.1053 59.8845 12.5789C60.2021 12.0351 60.3609 11.2456 60.3609 10.2105C60.3609 7.87717 59.9462 6.71052 59.1169 6.71052C58.5699 6.71052 58.1729 7.02631 57.9259 7.65789C57.6965 8.28947 57.5818 9.56138 57.5818 11.4737Z" fill="#1D1D1D"/>
<path d="M66.7962 11.3947C66.7962 9.74558 67.3871 8.47368 68.5695 7.57894C69.7513 6.6842 71.1898 6.23683 72.8838 6.23683C73.4303 6.23683 73.9689 6.28946 74.4983 6.39473C74.0569 5.9035 73.8366 5.30701 73.8366 4.60525C73.8366 3.9035 74.0748 3.29823 74.5512 2.78946C75.0448 2.2807 75.6364 2.02631 76.3246 2.02631C77.0299 2.02631 77.6122 2.22806 78.0714 2.63157C78.53 3.03508 78.7596 3.55262 78.7596 4.1842C78.7596 4.81578 78.5743 5.33333 78.2038 5.73683C77.8332 6.1228 77.3654 6.31578 76.801 6.31578C76.2538 6.31578 75.7952 6.15789 75.4247 5.8421C75.0713 5.50876 74.8953 5.08771 74.8953 4.57894C74.8953 4.07017 75.0713 3.66666 75.4247 3.36841C75.6893 3.2456 75.8217 3.10525 75.8217 2.94736C75.8217 2.78947 75.7423 2.71052 75.5835 2.71052C75.4776 2.71052 75.3453 2.76315 75.1864 2.86841C74.6042 3.30701 74.313 3.89473 74.313 4.63157C74.313 5.56139 74.851 6.29823 75.9275 6.8421C77.9563 7.71927 78.9713 9.23683 78.9713 11.3947C78.9713 13.0439 78.3798 14.3158 77.198 15.2105C76.0155 16.1053 74.5777 16.5526 72.8838 16.5526C71.7192 16.5526 70.6777 16.3508 69.7606 15.9474C68.6311 16.421 68.0666 16.9123 68.0666 17.421C68.0666 17.7719 68.2076 18.0087 68.4901 18.1316C68.772 18.2368 69.2577 18.2895 69.9458 18.2895C70.634 18.2895 71.7278 18.114 73.2278 17.7631C74.7451 17.4123 75.7423 17.2368 76.2187 17.2368C77.2417 17.2368 78.0536 17.5 78.6537 18.0263C79.2532 18.5526 79.5536 19.2456 79.5536 20.1053C79.5536 21.4561 78.9799 22.6053 77.8332 23.5526C76.6858 24.5 75.3095 24.9737 73.7043 24.9737C71.7986 24.9737 70.2456 24.2281 69.0459 22.7368C68.1811 22.6666 67.4844 22.3421 66.955 21.7632C66.4257 21.1842 66.1606 20.4824 66.1606 19.6579C66.1606 18.8508 66.4257 18.0877 66.955 17.3684C67.5016 16.6491 68.2605 16.0789 69.2312 15.6579C67.6074 14.7456 66.7962 13.3245 66.7962 11.3947ZM72.275 15.921C72.451 16.0263 72.6542 16.0789 72.8838 16.0789C73.1127 16.0789 73.3072 16.0263 73.466 15.921C73.6421 15.7982 73.7744 15.614 73.8631 15.3684C73.9689 15.1053 74.0483 14.8597 74.1013 14.6316C74.1714 14.386 74.2157 14.0439 74.2336 13.6053C74.2508 13.1666 74.2601 12.8158 74.2601 12.5526C74.2773 12.2895 74.2865 11.9035 74.2865 11.3947C74.2865 10.886 74.2773 10.5 74.2601 10.2368C74.2601 9.97368 74.2508 9.62282 74.2336 9.1842C74.2157 8.74558 74.1714 8.41229 74.1013 8.1842C74.0483 7.93861 73.9689 7.69295 73.8631 7.44736C73.7744 7.1842 73.6421 6.99999 73.466 6.89473C73.3072 6.7719 73.1127 6.71052 72.8838 6.71052C72.6542 6.71052 72.451 6.7719 72.275 6.89473C72.1162 6.99999 71.9839 7.1842 71.878 7.44736C71.7893 7.69295 71.7099 7.93861 71.6398 8.1842C71.5868 8.41229 71.5511 8.74558 71.5339 9.1842C71.516 9.62282 71.4982 9.97368 71.481 10.2368C71.481 10.5 71.481 10.886 71.481 11.3947C71.481 11.9035 71.481 12.2895 71.481 12.5526C71.4982 12.8158 71.516 13.1666 71.5339 13.6053C71.5511 14.0439 71.5868 14.386 71.6398 14.6316C71.7099 14.8597 71.7893 15.1053 71.878 15.3684C71.9839 15.614 72.1162 15.7982 72.275 15.921ZM76.0599 21.7368C75.5656 21.7368 74.5248 21.8947 72.9367 22.2105C71.3486 22.5263 70.2721 22.7018 69.7076 22.7368C70.6955 23.9123 72.0275 24.5 73.7043 24.5C74.6214 24.5 75.4776 24.3158 76.2716 23.9474C77.0829 23.5965 77.4891 23.1842 77.4891 22.7105C77.4891 22.0614 77.0127 21.7368 76.0599 21.7368ZM87.1485 8.36841H87.2808C87.5634 7.73683 87.9604 7.22808 88.4719 6.8421C88.984 6.43859 89.6014 6.23683 90.3246 6.23683C91.0657 6.23683 91.6923 6.48245 92.2038 6.97368C92.7332 7.44736 92.9979 8.02631 92.9979 8.71052C92.9979 9.39473 92.7954 9.96493 92.3891 10.421C91.9835 10.8772 91.4627 11.1053 90.8275 11.1053C90.1923 11.1053 89.6722 10.921 89.2659 10.5526C88.8782 10.1842 88.6836 9.72808 88.6836 9.1842C88.6836 8.62282 88.8424 8.16664 89.16 7.81578C89.4955 7.44736 89.9104 7.26315 90.404 7.26315C90.8983 7.26315 91.2953 7.43861 91.5951 7.78946C91.7367 8.05262 91.8776 8.1842 92.0186 8.1842C92.1774 8.1842 92.2568 8.10525 92.2568 7.94736C92.2568 7.8421 92.2038 7.71052 92.098 7.55262C91.6745 6.99124 91.075 6.71052 90.2982 6.71052C88.1278 6.71052 87.0426 8.86841 87.0426 13.1842V18.421H89.0277V18.8421H80.5051V18.421H82.1461V7.15789H80.2669V6.73683H81.855C83.7785 6.73683 85.5432 6.57017 87.1485 6.23683V8.36841ZM101.536 14.8684V12.421C101.465 12.421 101.403 12.421 101.35 12.421C100.521 12.421 99.8239 12.6491 99.2594 13.1053C98.6944 13.5439 98.4125 14.2544 98.4125 15.2368C98.4125 16.2018 98.5534 16.9123 98.836 17.3684C99.1178 17.807 99.4977 18.0263 99.9741 18.0263C100.45 18.0263 100.83 17.693 101.112 17.0263C101.394 16.3597 101.536 15.6403 101.536 14.8684ZM107.014 17.8421C107.685 17.8421 108.117 16.9649 108.311 15.2105L108.788 15.2631C108.452 17.9824 107.226 19.3421 105.109 19.3421C104.226 19.3421 103.511 19.0526 102.965 18.4737C102.418 17.8772 102.109 17.1666 102.039 16.3421H101.88C101.632 17.2895 101.218 18.0263 100.636 18.5526C100.053 19.0789 99.1271 19.3421 97.8567 19.3421C96.6034 19.3421 95.5447 19.0702 94.6805 18.5263C93.8336 17.9649 93.4101 17.0789 93.4101 15.8684C93.4101 13.2544 96.1184 11.9474 101.536 11.9474V11.0789C101.536 9.37716 101.324 8.2544 100.9 7.71052C100.706 7.46493 100.415 7.24558 100.027 7.05262C99.6565 6.85966 99.2065 6.76315 98.6772 6.76315C97.6714 6.76315 96.7801 6.99124 96.0039 7.44736C95.245 7.90348 94.8658 8.40348 94.8658 8.94736C94.8658 9.10525 94.9452 9.1842 95.104 9.1842C95.2099 9.1842 95.28 9.15789 95.3158 9.10525C95.3508 9.03506 95.3773 8.97368 95.3952 8.92104C95.4124 8.85085 95.4302 8.79821 95.4481 8.76315C95.4653 8.71052 95.501 8.63157 95.554 8.52631C95.6241 8.42104 95.7829 8.28071 96.0304 8.10525C96.2772 7.92979 96.6127 7.8421 97.0362 7.8421C97.4596 7.8421 97.8209 8.03506 98.1213 8.42104C98.4389 8.78946 98.5978 9.24558 98.5978 9.78946C98.5978 10.3333 98.3946 10.7982 97.989 11.1842C97.5827 11.5526 97.0712 11.7368 96.4539 11.7368C95.8359 11.7368 95.3065 11.5263 94.8658 11.1053C94.4423 10.6666 94.2306 10.1403 94.2306 9.52631C94.2306 8.50874 94.6978 7.71052 95.6334 7.13157C96.5684 6.53508 97.9096 6.23683 99.6565 6.23683C101.421 6.23683 102.823 6.46491 103.865 6.92104C104.906 7.37716 105.612 8.02631 105.982 8.86841C106.353 9.69295 106.538 10.8333 106.538 12.2895V16.7631C106.538 17.4824 106.697 17.8421 107.014 17.8421ZM127.09 6.23683C128.608 6.23683 129.675 6.71052 130.293 7.65789C130.911 8.58769 131.219 9.92104 131.219 11.6579V18.421H132.86V18.8421H124.682V18.421H126.323V12.7631C126.323 10.9737 126.243 9.67545 126.084 8.86841C125.926 8.06137 125.573 7.65789 125.026 7.65789C124.408 7.65789 123.941 8.31578 123.623 9.63157C123.305 10.9298 123.147 12.3684 123.147 13.9474V18.8421H117.165V18.421H118.806V12.7631C118.806 10.9737 118.726 9.67545 118.568 8.86841C118.409 8.06137 118.056 7.65789 117.509 7.65789C116.892 7.65789 116.424 8.31578 116.106 9.63157C115.788 10.9298 115.63 12.3684 115.63 13.9474V18.8421H109.092V18.421H110.733V7.15789H108.854V6.73683H110.442C112.366 6.73683 114.13 6.57017 115.736 6.23683V8.81578H115.868C116.556 7.0965 117.791 6.23683 119.573 6.23683C121.373 6.23683 122.591 7.10525 123.226 8.8421L123.252 8.81578H123.385C124.073 7.0965 125.308 6.23683 127.09 6.23683Z" fill="#FF6C00"/>
</g>
<defs>
<clipPath id="clip0_1091_79474">
<rect width="133" height="25" fill="white"/>
</clipPath>
</defs>
</svg>
