<svg width="47" height="47" viewBox="0 0 47 47" fill="none" xmlns="http://www.w3.org/2000/svg">
<path d="M23.5 23.5001C28.9078 23.5001 33.2917 19.1162 33.2917 13.7084C33.2917 8.30063 28.9078 3.91675 23.5 3.91675C18.0923 3.91675 13.7084 8.30063 13.7084 13.7084C13.7084 19.1162 18.0923 23.5001 23.5 23.5001Z" stroke="#FF6C00" stroke-width="1.67764" stroke-linecap="round" stroke-linejoin="round"/>
<path d="M6.67792 43.0833C6.67792 35.5046 14.2175 29.375 23.5 29.375C25.38 29.375 27.2013 29.6296 28.905 30.0996" stroke="#FF6C00" stroke-width="1.67764" stroke-linecap="round" stroke-linejoin="round"/>
<path d="M43.0834 35.2501C43.0834 36.7188 42.6721 38.1092 41.9475 39.2842C41.5363 39.9892 41.0075 40.6159 40.4004 41.1251C39.0296 42.3588 37.2279 43.0834 35.25 43.0834C32.3909 43.0834 29.9037 41.5559 28.5525 39.2842C27.8279 38.1092 27.4167 36.7188 27.4167 35.2501C27.4167 32.7826 28.5525 30.5697 30.3542 29.1401C31.7054 28.063 33.4092 27.4167 35.25 27.4167C39.5779 27.4167 43.0834 30.9222 43.0834 35.2501Z" stroke="#FF6C00" stroke-width="1.67764" stroke-miterlimit="10" stroke-linecap="round" stroke-linejoin="round"/>
<path d="M32.1951 35.2502L34.1338 37.1889L38.3051 33.3311" stroke="#FF6C00" stroke-width="1.67764" stroke-linecap="round" stroke-linejoin="round"/>
</svg>
