<svg width="632" height="422" viewBox="0 0 632 422" fill="none" xmlns="http://www.w3.org/2000/svg">
<path d="M578.634 379.434C578.634 379.552 461.04 379.653 316.017 379.653C170.994 379.653 53.3828 379.535 53.3828 379.434C53.3828 379.333 170.952 379.215 316.017 379.215C461.082 379.215 578.634 379.308 578.634 379.434Z" fill="#D2D2D2"/>
<path d="M565.072 343.484H67.5448C62.351 343.484 58.1406 347.695 58.1406 352.889C58.1406 358.082 62.351 362.293 67.5448 362.293H565.072C570.266 362.293 574.476 358.082 574.476 352.889C574.476 347.695 570.266 343.484 565.072 343.484Z" fill="#C7C7C7"/>
<path d="M528.703 59.3203H103.906V343.484H528.703V59.3203Z" fill="#DBDBDB"/>
<path d="M525.628 62.7832H107V340.012H525.628V62.7832Z" fill="#858D91"/>
<path d="M507.082 73.8652H125.531V315.449H507.082V73.8652Z" fill="white"/>
<path d="M507.082 80.6055H125.531V89.9001H507.082V80.6055Z" fill="#D0DDE4"/>
<path d="M134.288 85.2573C134.288 85.6056 134.185 85.9461 133.991 86.2357C133.798 86.5253 133.523 86.7511 133.201 86.8844C132.879 87.0177 132.525 87.0526 132.183 86.9846C131.842 86.9166 131.528 86.7489 131.281 86.5026C131.035 86.2563 130.867 85.9425 130.799 85.6009C130.732 85.2592 130.766 84.9051 130.9 84.5833C131.033 84.2615 131.259 83.9864 131.548 83.7929C131.838 83.5994 132.178 83.4961 132.527 83.4961C132.994 83.4961 133.442 83.6816 133.772 84.0119C134.102 84.3422 134.288 84.7902 134.288 85.2573Z" fill="#C7C7C7"/>
<path d="M141.468 85.2573C141.468 85.606 141.364 85.9468 141.17 86.2366C140.976 86.5264 140.701 86.7521 140.379 86.8852C140.056 87.0182 139.702 87.0526 139.36 86.984C139.018 86.9153 138.704 86.7468 138.458 86.4996C138.212 86.2525 138.045 85.9379 137.978 85.5957C137.911 85.2535 137.947 84.8991 138.082 84.5775C138.216 84.2558 138.443 83.9813 138.734 83.7888C139.025 83.5963 139.366 83.4944 139.715 83.4961C139.946 83.4961 140.174 83.5417 140.388 83.6303C140.601 83.7189 140.794 83.8488 140.957 84.0125C141.12 84.1761 141.249 84.3703 141.337 84.584C141.424 84.7976 141.469 85.0264 141.468 85.2573Z" fill="white"/>
<path d="M148.616 85.2573C148.616 85.6056 148.513 85.9461 148.319 86.2357C148.126 86.5253 147.851 86.7511 147.529 86.8844C147.207 87.0177 146.853 87.0526 146.511 86.9846C146.17 86.9166 145.856 86.7489 145.61 86.5026C145.363 86.2563 145.196 85.9425 145.128 85.6009C145.06 85.2592 145.095 84.9051 145.228 84.5833C145.361 84.2615 145.587 83.9864 145.876 83.7929C146.166 83.5994 146.507 83.4961 146.855 83.4961C147.322 83.4961 147.77 83.6816 148.1 84.0119C148.431 84.3422 148.616 84.7902 148.616 85.2573Z" fill="#FF6C00"/>
<path d="M489.416 175.145C487.443 174.848 485.427 175.035 483.541 175.688C481.655 176.341 479.956 177.441 478.588 178.894C474.181 183.318 455.836 199.472 455.836 199.472L429.225 194.147L425.5 206.045C425.5 206.045 456.931 215.82 459.207 214.977C461.482 214.135 478.588 202.599 478.588 202.599L489.416 175.145Z" fill="#FF6C00"/>
<path d="M462.647 134.174L334.531 151.564L348.434 253.987L476.549 236.596L462.647 134.174Z" fill="#EBEBEB"/>
<path d="M348.614 253.75L334.768 151.745L462.466 134.411L476.312 236.416L348.614 253.75Z" stroke="#444444" stroke-opacity="0.5" stroke-width="0.421333"/>
<path d="M351.992 246.907L386.036 185.611L416.532 216.925L431.481 195.934L471.103 230.728L351.992 246.907Z" fill="#D3D3D3"/>
<path d="M421.809 173.805C422.061 175.66 421.757 177.548 420.935 179.23C420.114 180.912 418.812 182.312 417.194 183.254C415.576 184.196 413.716 184.637 411.847 184.522C409.979 184.406 408.187 183.739 406.698 182.605C405.209 181.47 404.089 179.92 403.482 178.149C402.874 176.379 402.805 174.468 403.283 172.658C403.761 170.849 404.766 169.221 406.169 167.982C407.572 166.744 409.311 165.949 411.166 165.698C413.653 165.363 416.17 166.028 418.166 167.548C420.162 169.068 421.472 171.319 421.809 173.805Z" fill="#D3D3D3"/>
<rect x="235.094" y="128.418" width="161.792" height="128.928" fill="#F5F4F4"/>
<path d="M334.354 227.231C334.354 228.628 333.222 229.759 331.826 229.759H299.075C297.679 229.759 296.547 228.628 296.547 227.231V215.86C296.547 215.184 297.094 214.637 297.77 214.637C298.445 214.637 298.993 215.184 298.993 215.86V224.048C298.993 225.444 300.125 226.576 301.521 226.576H329.38C330.776 226.576 331.908 225.444 331.908 224.048V216.622C331.908 215.947 332.455 215.399 333.131 215.399C333.806 215.399 334.354 215.947 334.354 216.622V227.231Z" fill="#FF6C00"/>
<path d="M344.074 212.677H283.631V212.581C280.801 212.208 278.22 210.773 276.41 208.567C274.6 206.361 273.696 203.549 273.884 200.701C274.071 197.853 275.334 195.184 277.417 193.233C279.501 191.283 282.248 190.198 285.102 190.199C285.473 190.199 285.837 190.199 286.195 190.254C286.575 187.073 288.107 184.141 290.502 182.013C292.898 179.885 295.99 178.708 299.193 178.706C300.972 178.699 302.732 179.062 304.363 179.771C306.211 175.24 309.544 171.47 313.816 169.082C318.088 166.694 323.045 165.828 327.873 166.628C332.702 167.427 337.115 169.843 340.39 173.48C343.664 177.118 345.606 181.76 345.895 186.645C349.301 186.951 352.45 188.581 354.668 191.183C356.885 193.785 357.994 197.154 357.755 200.564C357.517 203.975 355.95 207.156 353.392 209.425C350.834 211.693 347.489 212.869 344.074 212.698V212.677ZM284.744 211.302H344.074C347.173 211.447 350.203 210.355 352.497 208.266C354.791 206.177 356.161 203.262 356.306 200.163C356.451 197.064 355.359 194.034 353.27 191.74C351.181 189.446 348.266 188.076 345.167 187.931L344.562 187.876V187.271C344.419 182.577 342.646 178.079 339.548 174.55C336.449 171.021 332.218 168.681 327.582 167.933C322.945 167.184 318.193 168.074 314.142 170.449C310.09 172.824 306.992 176.536 305.38 180.947L305.112 181.675L304.425 181.325C302.8 180.506 301.006 180.082 299.187 180.088C296.205 180.091 293.337 181.23 291.166 183.273C288.995 185.316 287.684 188.11 287.501 191.086L287.46 191.849L286.703 191.718C286.174 191.629 285.638 191.585 285.102 191.588C282.549 191.588 280.096 192.577 278.258 194.348C276.42 196.119 275.34 198.533 275.245 201.084C275.15 203.634 276.047 206.123 277.748 208.026C279.449 209.929 281.821 211.098 284.366 211.289L284.744 211.302Z" fill="#FF6C00"/>
<path d="M320.871 199.568H310.426C309.03 199.568 307.898 200.7 307.898 202.096V216.989C307.898 218.385 309.03 219.517 310.426 219.517H320.871C322.267 219.517 323.399 218.385 323.399 216.989V202.096C323.399 200.7 322.267 199.568 320.871 199.568Z" fill="#FF6C00"/>
<path d="M304.13 200.782C302.578 202.386 303.715 205.067 305.947 205.067H325.367C327.599 205.067 328.736 202.386 327.184 200.782L317.474 190.744C316.48 189.716 314.834 189.716 313.84 190.744L304.13 200.782Z" fill="#FF6C00"/>
<path d="M401.944 277.57H230.883C227.625 277.57 224.984 280.211 224.984 283.469C224.984 286.727 227.625 289.368 230.883 289.368H401.944C405.202 289.368 407.843 286.727 407.843 283.469C407.843 280.211 405.202 277.57 401.944 277.57Z" fill="#EBEBEB"/>
<path d="M315.989 280.098H231.722C229.861 280.098 228.352 281.607 228.352 283.468C228.352 285.33 229.861 286.839 231.722 286.839H315.989C317.85 286.839 319.36 285.33 319.36 283.468C319.36 281.607 317.85 280.098 315.989 280.098Z" fill="#FF6C00"/>
<g opacity="0.5">
<path d="M145.827 123.252V116.123H148.74C149.488 116.123 150.068 116.302 150.479 116.659C150.89 117.009 151.096 117.502 151.096 118.135C151.096 118.553 151.001 118.911 150.813 119.207C150.631 119.497 150.371 119.719 150.034 119.875C149.704 120.03 149.316 120.107 148.871 120.107L149.053 119.976H149.255C149.532 119.976 149.778 120.043 149.993 120.178C150.216 120.313 150.391 120.539 150.519 120.855L151.531 123.252H150.61L149.64 120.896C149.525 120.592 149.353 120.397 149.124 120.309C148.895 120.215 148.608 120.168 148.264 120.168H146.667V123.252H145.827ZM146.667 119.511H148.618C149.158 119.511 149.565 119.396 149.842 119.167C150.125 118.931 150.267 118.594 150.267 118.156C150.267 117.717 150.125 117.384 149.842 117.154C149.565 116.925 149.158 116.811 148.618 116.811H146.667V119.511ZM154.884 123.343C154.089 123.343 153.462 123.114 153.003 122.655C152.545 122.19 152.316 121.546 152.316 120.724C152.316 120.191 152.417 119.73 152.619 119.339C152.821 118.941 153.104 118.634 153.468 118.418C153.832 118.196 154.25 118.085 154.722 118.085C155.187 118.085 155.578 118.182 155.895 118.378C156.212 118.573 156.455 118.853 156.623 119.217C156.792 119.575 156.876 119.999 156.876 120.491V120.795H152.943V120.279H156.34L156.168 120.41C156.168 119.871 156.047 119.45 155.804 119.146C155.562 118.843 155.201 118.691 154.722 118.691C154.217 118.691 153.822 118.87 153.539 119.227C153.256 119.578 153.114 120.053 153.114 120.653V120.744C153.114 121.378 153.27 121.86 153.58 122.19C153.896 122.514 154.338 122.676 154.904 122.676C155.208 122.676 155.491 122.632 155.754 122.544C156.023 122.45 156.28 122.298 156.522 122.089L156.805 122.665C156.583 122.881 156.3 123.05 155.956 123.171C155.619 123.286 155.262 123.343 154.884 123.343ZM158.129 123.252V115.81H158.949V123.252H158.129ZM162.47 123.343C162.019 123.343 161.624 123.238 161.287 123.029C160.95 122.814 160.687 122.51 160.499 122.119C160.317 121.728 160.226 121.26 160.226 120.714C160.226 120.161 160.317 119.689 160.499 119.298C160.687 118.907 160.95 118.607 161.287 118.398C161.624 118.189 162.019 118.085 162.47 118.085C162.929 118.085 163.323 118.203 163.653 118.439C163.991 118.668 164.213 118.981 164.321 119.379H164.2L164.311 118.176H165.099C165.079 118.371 165.059 118.57 165.039 118.772C165.025 118.968 165.019 119.16 165.019 119.349V123.252H164.2V122.059H164.311C164.203 122.456 163.98 122.77 163.643 122.999C163.306 123.228 162.915 123.343 162.47 123.343ZM162.632 122.676C163.118 122.676 163.502 122.51 163.785 122.18C164.068 121.843 164.21 121.354 164.21 120.714C164.21 120.067 164.068 119.578 163.785 119.248C163.502 118.911 163.118 118.742 162.632 118.742C162.154 118.742 161.769 118.911 161.479 119.248C161.196 119.578 161.055 120.067 161.055 120.714C161.055 121.354 161.196 121.843 161.479 122.18C161.769 122.51 162.154 122.676 162.632 122.676ZM168.402 123.343C167.903 123.343 167.522 123.201 167.26 122.918C166.997 122.628 166.865 122.194 166.865 121.614V118.813H165.874V118.176H166.865V116.79L167.684 116.558V118.176H169.14V118.813H167.684V121.523C167.684 121.927 167.752 122.217 167.886 122.392C168.028 122.561 168.237 122.645 168.513 122.645C168.641 122.645 168.756 122.635 168.857 122.615C168.958 122.588 169.049 122.558 169.13 122.524V123.212C169.036 123.252 168.921 123.282 168.786 123.303C168.658 123.329 168.53 123.343 168.402 123.343ZM172.343 123.343C171.548 123.343 170.921 123.114 170.462 122.655C170.004 122.19 169.775 121.546 169.775 120.724C169.775 120.191 169.876 119.73 170.078 119.339C170.28 118.941 170.563 118.634 170.927 118.418C171.291 118.196 171.709 118.085 172.181 118.085C172.646 118.085 173.037 118.182 173.354 118.378C173.671 118.573 173.914 118.853 174.082 119.217C174.251 119.575 174.335 119.999 174.335 120.491V120.795H170.402V120.279H173.799L173.627 120.41C173.627 119.871 173.506 119.45 173.263 119.146C173.021 118.843 172.66 118.691 172.181 118.691C171.676 118.691 171.281 118.87 170.998 119.227C170.715 119.578 170.573 120.053 170.573 120.653V120.744C170.573 121.378 170.729 121.86 171.039 122.19C171.355 122.514 171.797 122.676 172.363 122.676C172.667 122.676 172.95 122.632 173.213 122.544C173.482 122.45 173.739 122.298 173.981 122.089L174.264 122.665C174.042 122.881 173.759 123.05 173.415 123.171C173.078 123.286 172.721 123.343 172.343 123.343ZM177.51 123.343C177.065 123.343 176.674 123.238 176.337 123.029C176 122.814 175.737 122.51 175.548 122.119C175.366 121.728 175.275 121.26 175.275 120.714C175.275 120.161 175.366 119.689 175.548 119.298C175.737 118.907 176 118.607 176.337 118.398C176.674 118.189 177.065 118.085 177.51 118.085C177.968 118.085 178.363 118.199 178.693 118.429C179.03 118.658 179.256 118.968 179.37 119.359H179.249V115.81H180.068V123.252H179.259V122.039H179.37C179.262 122.443 179.04 122.763 178.703 122.999C178.366 123.228 177.968 123.343 177.51 123.343ZM177.682 122.676C178.16 122.676 178.545 122.51 178.834 122.18C179.124 121.843 179.269 121.354 179.269 120.714C179.269 120.067 179.124 119.578 178.834 119.248C178.545 118.911 178.16 118.742 177.682 118.742C177.203 118.742 176.819 118.911 176.529 119.248C176.246 119.578 176.104 120.067 176.104 120.714C176.104 121.354 176.246 121.843 176.529 122.18C176.819 122.51 177.203 122.676 177.682 122.676ZM186.078 123.343C185.478 123.343 185.023 123.178 184.713 122.847C184.41 122.517 184.258 122.012 184.258 121.331V118.176H185.077V121.31C185.077 121.776 185.171 122.119 185.36 122.342C185.549 122.558 185.842 122.665 186.24 122.665C186.685 122.665 187.042 122.521 187.312 122.231C187.581 121.941 187.716 121.553 187.716 121.068V118.176H188.535V123.252H187.737V122.109H187.868C187.726 122.5 187.497 122.804 187.18 123.019C186.87 123.235 186.503 123.343 186.078 123.343ZM190.124 125.436V119.349C190.124 119.16 190.114 118.968 190.094 118.772C190.081 118.57 190.064 118.371 190.044 118.176H190.832L190.944 119.379H190.822C190.93 118.981 191.149 118.668 191.479 118.439C191.81 118.203 192.204 118.085 192.663 118.085C193.121 118.085 193.515 118.189 193.846 118.398C194.183 118.607 194.446 118.907 194.634 119.298C194.823 119.689 194.918 120.161 194.918 120.714C194.918 121.26 194.823 121.728 194.634 122.119C194.452 122.51 194.193 122.814 193.856 123.029C193.519 123.238 193.121 123.343 192.663 123.343C192.211 123.343 191.82 123.228 191.49 122.999C191.159 122.77 190.94 122.456 190.832 122.059H190.944V125.436H190.124ZM192.501 122.676C192.986 122.676 193.37 122.51 193.654 122.18C193.943 121.843 194.088 121.354 194.088 120.714C194.088 120.067 193.943 119.578 193.654 119.248C193.37 118.911 192.986 118.742 192.501 118.742C192.022 118.742 191.638 118.911 191.348 119.248C191.065 119.578 190.923 120.067 190.923 120.714C190.923 121.354 191.065 121.843 191.348 122.18C191.638 122.51 192.022 122.676 192.501 122.676ZM196.188 123.252V115.81H197.007V123.252H196.188ZM200.68 123.343C200.195 123.343 199.77 123.238 199.406 123.029C199.049 122.814 198.772 122.51 198.577 122.119C198.381 121.722 198.284 121.253 198.284 120.714C198.284 120.168 198.381 119.699 198.577 119.308C198.772 118.917 199.049 118.617 199.406 118.408C199.77 118.193 200.195 118.085 200.68 118.085C201.172 118.085 201.597 118.193 201.954 118.408C202.318 118.617 202.598 118.917 202.794 119.308C202.996 119.699 203.097 120.168 203.097 120.714C203.097 121.253 202.996 121.722 202.794 122.119C202.598 122.51 202.318 122.814 201.954 123.029C201.597 123.238 201.172 123.343 200.68 123.343ZM200.68 122.676C201.166 122.676 201.55 122.51 201.833 122.18C202.116 121.843 202.258 121.354 202.258 120.714C202.258 120.067 202.113 119.578 201.823 119.248C201.54 118.911 201.159 118.742 200.68 118.742C200.202 118.742 199.821 118.911 199.538 119.248C199.255 119.578 199.113 120.067 199.113 120.714C199.113 121.354 199.255 121.843 199.538 122.18C199.821 122.51 200.202 122.676 200.68 122.676ZM206.305 123.343C205.854 123.343 205.459 123.238 205.122 123.029C204.785 122.814 204.522 122.51 204.334 122.119C204.152 121.728 204.061 121.26 204.061 120.714C204.061 120.161 204.152 119.689 204.334 119.298C204.522 118.907 204.785 118.607 205.122 118.398C205.459 118.189 205.854 118.085 206.305 118.085C206.764 118.085 207.158 118.203 207.489 118.439C207.826 118.668 208.048 118.981 208.156 119.379H208.035L208.146 118.176H208.935C208.914 118.371 208.894 118.57 208.874 118.772C208.86 118.968 208.854 119.16 208.854 119.349V123.252H208.035V122.059H208.146C208.038 122.456 207.816 122.77 207.478 122.999C207.141 123.228 206.75 123.343 206.305 123.343ZM206.467 122.676C206.953 122.676 207.337 122.51 207.62 122.18C207.903 121.843 208.045 121.354 208.045 120.714C208.045 120.067 207.903 119.578 207.62 119.248C207.337 118.911 206.953 118.742 206.467 118.742C205.989 118.742 205.604 118.911 205.315 119.248C205.031 119.578 204.89 120.067 204.89 120.714C204.89 121.354 205.031 121.843 205.315 122.18C205.604 122.51 205.989 122.676 206.467 122.676ZM212.359 123.343C211.914 123.343 211.523 123.238 211.186 123.029C210.849 122.814 210.586 122.51 210.397 122.119C210.215 121.728 210.124 121.26 210.124 120.714C210.124 120.161 210.215 119.689 210.397 119.298C210.586 118.907 210.849 118.607 211.186 118.398C211.523 118.189 211.914 118.085 212.359 118.085C212.817 118.085 213.211 118.199 213.542 118.429C213.879 118.658 214.105 118.968 214.219 119.359H214.098V115.81H214.917V123.252H214.108V122.039H214.219C214.111 122.443 213.889 122.763 213.552 122.999C213.215 123.228 212.817 123.343 212.359 123.343ZM212.531 122.676C213.009 122.676 213.393 122.51 213.683 122.18C213.973 121.843 214.118 121.354 214.118 120.714C214.118 120.067 213.973 119.578 213.683 119.248C213.393 118.911 213.009 118.742 212.531 118.742C212.052 118.742 211.668 118.911 211.378 119.248C211.095 119.578 210.953 120.067 210.953 120.714C210.953 121.354 211.095 121.843 211.378 122.18C211.668 122.51 212.052 122.676 212.531 122.676ZM218.189 123.343C217.785 123.343 217.407 123.289 217.057 123.181C216.706 123.067 216.416 122.908 216.187 122.706L216.47 122.13C216.72 122.325 216.989 122.47 217.279 122.564C217.576 122.659 217.883 122.706 218.199 122.706C218.604 122.706 218.907 122.635 219.109 122.494C219.318 122.345 219.423 122.143 219.423 121.887C219.423 121.691 219.356 121.536 219.221 121.422C219.093 121.3 218.88 121.206 218.584 121.139L217.643 120.946C217.212 120.852 216.888 120.694 216.672 120.471C216.457 120.242 216.349 119.952 216.349 119.602C216.349 119.305 216.426 119.045 216.581 118.823C216.737 118.594 216.962 118.415 217.259 118.287C217.556 118.152 217.903 118.085 218.301 118.085C218.671 118.085 219.012 118.142 219.322 118.257C219.639 118.364 219.902 118.523 220.111 118.732L219.817 119.298C219.615 119.103 219.383 118.958 219.12 118.863C218.863 118.762 218.597 118.712 218.321 118.712C217.923 118.712 217.623 118.793 217.421 118.954C217.225 119.109 217.128 119.315 217.128 119.571C217.128 119.767 217.188 119.928 217.31 120.057C217.438 120.178 217.633 120.269 217.896 120.33L218.836 120.522C219.295 120.623 219.635 120.781 219.858 120.997C220.087 121.206 220.202 121.489 220.202 121.846C220.202 122.15 220.117 122.416 219.949 122.645C219.78 122.868 219.544 123.04 219.241 123.161C218.944 123.282 218.594 123.343 218.189 123.343Z" fill="#444444"/>
<path d="M144.934 165.857H178.641V132.151H144.934V165.857Z" fill="#EBEBEB"/>
<path d="M146.917 163.879H176.656V134.139H146.917V163.879Z" fill="#DBDBDB"/>
<path d="M151.712 141.24C151.592 141.832 151.666 142.446 151.923 142.992C152.18 143.539 152.605 143.988 153.137 144.274C153.669 144.56 154.278 144.667 154.875 144.579C155.473 144.492 156.026 144.215 156.453 143.789C156.881 143.363 157.16 142.811 157.25 142.214C157.339 141.617 157.234 141.007 156.951 140.474C156.667 139.942 156.219 139.514 155.674 139.256C155.128 138.997 154.514 138.921 153.922 139.038C153.378 139.146 152.877 139.413 152.484 139.804C152.09 140.196 151.822 140.696 151.712 141.24Z" fill="#C7C7C7"/>
<path d="M155.172 156.159H176.664L165.918 144.109L155.172 156.159Z" fill="#C7C7C7"/>
<path d="M146.922 156.158H164.662L155.788 148.314L146.922 156.158Z" fill="#A6A6A6"/>
<path d="M176.662 156.158H146.922V163.878H176.662V156.158Z" fill="#A6A6A6"/>
<path d="M182.012 165.857H215.719V132.151H182.012V165.857Z" fill="#EBEBEB"/>
<path d="M183.995 163.879H213.734V134.139H183.995V163.879Z" fill="#DBDBDB"/>
<path d="M188.79 141.24C188.671 141.832 188.745 142.446 189.001 142.992C189.258 143.539 189.683 143.988 190.215 144.274C190.747 144.56 191.356 144.667 191.953 144.579C192.551 144.492 193.104 144.215 193.532 143.789C193.959 143.363 194.238 142.811 194.328 142.214C194.417 141.617 194.313 141.007 194.029 140.474C193.745 139.942 193.297 139.514 192.752 139.256C192.207 138.997 191.592 138.921 191 139.038C190.456 139.146 189.955 139.413 189.562 139.804C189.168 140.196 188.9 140.696 188.79 141.24Z" fill="#C7C7C7"/>
<path d="M192.25 156.159H213.742L202.996 144.109L192.25 156.159Z" fill="#C7C7C7"/>
<path d="M184 156.158H201.74L192.866 148.314L184 156.158Z" fill="#A6A6A6"/>
<path d="M213.74 156.158H184V163.878H213.74V156.158Z" fill="#A6A6A6"/>
<path d="M144.934 205.463H178.641V171.756H144.934V205.463Z" fill="#EBEBEB"/>
<path d="M146.917 203.484H176.656V173.745H146.917V203.484Z" fill="#DBDBDB"/>
<path d="M151.712 180.845C151.592 181.437 151.666 182.052 151.923 182.598C152.18 183.144 152.605 183.593 153.137 183.879C153.669 184.165 154.278 184.272 154.875 184.185C155.473 184.098 156.026 183.821 156.453 183.395C156.881 182.968 157.16 182.416 157.25 181.819C157.339 181.222 157.234 180.612 156.951 180.08C156.667 179.547 156.219 179.12 155.674 178.861C155.128 178.602 154.514 178.526 153.922 178.643C153.378 178.751 152.877 179.018 152.484 179.41C152.09 179.802 151.822 180.301 151.712 180.845Z" fill="#C7C7C7"/>
<path d="M155.172 195.764H176.664L165.918 183.715L155.172 195.764Z" fill="#C7C7C7"/>
<path d="M146.922 195.763H164.662L155.788 187.92L146.922 195.763Z" fill="#A6A6A6"/>
<path d="M176.662 195.764H146.922V203.483H176.662V195.764Z" fill="#A6A6A6"/>
<path d="M182.012 205.463H215.719V171.756H182.012V205.463Z" fill="#EBEBEB"/>
<path d="M183.995 203.484H213.734V173.745H183.995V203.484Z" fill="#DBDBDB"/>
<path d="M188.79 180.845C188.671 181.437 188.745 182.052 189.001 182.598C189.258 183.144 189.683 183.593 190.215 183.879C190.747 184.165 191.356 184.272 191.953 184.185C192.551 184.098 193.104 183.821 193.532 183.395C193.959 182.968 194.238 182.416 194.328 181.819C194.417 181.222 194.313 180.612 194.029 180.08C193.745 179.547 193.297 179.12 192.752 178.861C192.207 178.602 191.592 178.526 191 178.643C190.456 178.751 189.955 179.018 189.562 179.41C189.168 179.802 188.9 180.301 188.79 180.845Z" fill="#C7C7C7"/>
<path d="M192.25 195.764H213.742L202.996 183.715L192.25 195.764Z" fill="#C7C7C7"/>
<path d="M184 195.763H201.74L192.866 187.92L184 195.763Z" fill="#A6A6A6"/>
<path d="M213.74 195.764H184V203.483H213.74V195.764Z" fill="#A6A6A6"/>
<path d="M144.934 245.068H178.641V211.362H144.934V245.068Z" fill="#EBEBEB"/>
<path d="M146.917 243.09H176.656V213.35H146.917V243.09Z" fill="#DBDBDB"/>
<path d="M151.712 220.451C151.592 221.043 151.666 221.657 151.923 222.203C152.18 222.75 152.605 223.199 153.137 223.485C153.669 223.771 154.278 223.878 154.875 223.79C155.473 223.703 156.026 223.426 156.453 223C156.881 222.574 157.16 222.022 157.25 221.425C157.339 220.828 157.234 220.218 156.951 219.685C156.667 219.153 156.219 218.725 155.674 218.467C155.128 218.208 154.514 218.132 153.922 218.249C153.378 218.357 152.877 218.623 152.484 219.015C152.09 219.407 151.822 219.907 151.712 220.451Z" fill="#C7C7C7"/>
<path d="M155.172 235.37H176.664L165.918 223.32L155.172 235.37Z" fill="#C7C7C7"/>
<path d="M146.922 235.369H164.662L155.788 227.525L146.922 235.369Z" fill="#A6A6A6"/>
<path d="M176.662 235.369H146.922V243.089H176.662V235.369Z" fill="#A6A6A6"/>
<path d="M182.012 245.068H215.719V211.362H182.012V245.068Z" fill="#EBEBEB"/>
<path d="M183.995 243.09H213.734V213.35H183.995V243.09Z" fill="#DBDBDB"/>
<path d="M188.79 220.451C188.671 221.043 188.745 221.657 189.001 222.203C189.258 222.75 189.683 223.199 190.215 223.485C190.747 223.771 191.356 223.878 191.953 223.79C192.551 223.703 193.104 223.426 193.532 223C193.959 222.574 194.238 222.022 194.328 221.425C194.417 220.828 194.313 220.218 194.029 219.685C193.745 219.153 193.297 218.725 192.752 218.467C192.207 218.208 191.592 218.132 191 218.249C190.456 218.357 189.955 218.623 189.562 219.015C189.168 219.407 188.9 219.907 188.79 220.451Z" fill="#C7C7C7"/>
<path d="M192.25 235.37H213.742L202.996 223.32L192.25 235.37Z" fill="#C7C7C7"/>
<path d="M184 235.369H201.74L192.866 227.525L184 235.369Z" fill="#A6A6A6"/>
<path d="M213.74 235.369H184V243.089H213.74V235.369Z" fill="#A6A6A6"/>
<path d="M144.934 284.674H178.641V250.967H144.934V284.674Z" fill="#EBEBEB"/>
<path d="M146.917 282.695H176.656V252.956H146.917V282.695Z" fill="#DBDBDB"/>
<path d="M151.712 260.056C151.592 260.648 151.666 261.262 151.923 261.809C152.18 262.355 152.605 262.804 153.137 263.09C153.669 263.376 154.278 263.483 154.875 263.396C155.473 263.309 156.026 263.031 156.453 262.605C156.881 262.179 157.16 261.627 157.25 261.03C157.339 260.433 157.234 259.823 156.951 259.291C156.667 258.758 156.219 258.331 155.674 258.072C155.128 257.813 154.514 257.737 153.922 257.854C153.378 257.962 152.877 258.229 152.484 258.621C152.09 259.013 151.822 259.512 151.712 260.056Z" fill="#C7C7C7"/>
<path d="M155.172 274.975H176.664L165.918 262.926L155.172 274.975Z" fill="#C7C7C7"/>
<path d="M146.922 274.974H164.662L155.788 267.131L146.922 274.974Z" fill="#A6A6A6"/>
<path d="M176.662 274.975H146.922V282.694H176.662V274.975Z" fill="#A6A6A6"/>
<path d="M182.012 284.674H215.719V250.967H182.012V284.674Z" fill="#EBEBEB"/>
<path d="M183.995 282.695H213.734V252.956H183.995V282.695Z" fill="#DBDBDB"/>
<path d="M188.79 260.056C188.671 260.648 188.745 261.262 189.001 261.809C189.258 262.355 189.683 262.804 190.215 263.09C190.747 263.376 191.356 263.483 191.953 263.396C192.551 263.309 193.104 263.031 193.532 262.605C193.959 262.179 194.238 261.627 194.328 261.03C194.417 260.433 194.313 259.823 194.029 259.291C193.745 258.758 193.297 258.331 192.752 258.072C192.207 257.813 191.592 257.737 191 257.854C190.456 257.962 189.955 258.229 189.562 258.621C189.168 259.013 188.9 259.512 188.79 260.056Z" fill="#C7C7C7"/>
<path d="M192.25 274.975H213.742L202.996 262.926L192.25 274.975Z" fill="#C7C7C7"/>
<path d="M184 274.974H201.74L192.866 267.131L184 274.974Z" fill="#A6A6A6"/>
<path d="M213.74 274.975H184V282.694H213.74V274.975Z" fill="#A6A6A6"/>
</g>
<path d="M482.205 166.913C483.641 166.235 486.031 169.975 488.024 168.03C490.016 166.085 505.164 169.695 506.078 168.684C506.536 168.178 507.325 167.753 508.069 168.203C508.902 168.707 508.601 166.913 511.432 167.472C514.264 168.03 511.266 163.821 512.67 163.044C513.837 162.398 515.276 162.449 516.439 161.792C517.03 161.459 516.867 161.18 516.768 160.637C516.631 159.887 516.723 159.069 517 158.366C517.471 157.165 519.166 157.533 520.17 157.114C521.429 156.589 520.402 154.488 520.402 153.514C520.402 152.231 521.926 150.888 523.079 150.636C524.269 149.574 525.114 148.604 524.952 146.514C524.269 144.134 522.245 145.254 522.151 142.541C522.096 140.961 523.318 138.697 522.103 137.353C521.607 136.805 521.103 136.436 520.363 136.323C519.732 136.226 518.329 136.199 517.976 135.553C517.719 135.083 517.979 134.053 517.937 133.512C517.827 132.093 515.708 131.954 516.574 129.373C517.441 126.793 515.643 128.398 514.264 128.343C512.64 128.279 511.208 127.831 509.673 127.342C508.693 127.03 508.744 126.608 508.552 125.619C508.158 123.59 506.876 123.364 505.131 123.848C504.153 124.119 503.086 124.048 502.096 123.887C501.373 123.769 501.161 122.817 500.859 122.25C500.128 120.881 500.099 122.743 498.663 121.942C497.442 121.262 497.298 119.992 495.249 119.992C494.606 120.966 493.748 122.005 492.411 122.25C491.508 122.416 490.335 122.359 489.454 122.116C487.962 121.703 487.426 122.014 486.031 123.052C484.448 124.231 484.208 123.361 482.617 123.887C481.026 124.412 480.885 127 481.026 127.813C481.198 128.802 481.125 129.836 481.026 130.836C480.787 133.246 479.457 133.01 477.576 133.593C475.597 134.206 474.764 137.472 474.764 139.033C474.764 141.343 478.685 142.721 477.576 145.207C477.225 145.994 476.195 145.994 475.488 146.218C474.118 146.652 472.971 147.541 472.83 149.029C472.731 150.072 472.628 151.643 472.907 152.687C473.048 153.214 473.642 153.744 473.854 154.294C474.274 155.38 474.674 156.598 474.357 157.769C474.196 158.366 473.811 158.885 473.603 159.463C472.921 161.355 473.342 164.218 475.768 164.218C476.887 164.218 477.476 163.736 478.445 163.294C479.237 162.933 480.459 163.246 481.219 163.535C482.352 163.965 481.839 164.213 481.422 165.017C480.888 166.048 480.769 167.592 482.205 166.913Z" fill="black" stroke="black" stroke-width="0.842667" stroke-linecap="round"/>
<path d="M519.658 188.426C520.871 180.092 517.004 177.472 510.928 174.944C503.344 171.801 488.884 173.368 483.963 177.767L478.401 194.249C476.067 196.971 476.438 201.125 477.786 204.454C479.134 207.783 481.308 210.766 482.311 214.204C484.257 220.869 482.892 226.759 482.429 233.678C482.328 235.279 481.097 238.228 482.277 239.307C483.457 240.385 484.999 240.335 486.491 240.276C498.116 239.8 509.516 236.917 519.97 231.807C516.001 223.802 511.627 214.532 514.181 208.398C516.817 201.99 518.656 195.283 519.658 188.426Z" fill="#FF6C00"/>
<path d="M467.18 205.472L463.422 218.264C463.422 218.264 483.048 225.401 493.674 225.275C503.634 225.148 506.482 224.019 509.988 216.005C513.493 207.992 517.471 198.722 518.305 193.405C518.9 191.641 519.324 189.824 519.569 187.978C521.027 177.066 507.771 174.192 505.808 185.029L504.224 190.835C504.224 190.835 500.609 199.009 500.44 199.464C498.839 203.677 496.067 210.494 494.061 211.261C492.056 212.028 467.18 205.472 467.18 205.472Z" fill="#FF6C00"/>
<path d="M515.099 206.046C515.076 206.15 515.042 206.252 514.998 206.349L514.653 207.192C514.349 207.959 513.878 209.079 513.195 210.495C512.386 212.238 511.466 213.927 510.44 215.551C509.095 217.711 507.484 219.692 505.645 221.45C505.109 221.944 504.547 222.409 503.959 222.84C503.338 223.278 502.693 223.683 502.03 224.054L500.96 224.542L500.412 224.778L499.83 224.938L498.651 225.267L497.412 225.419C493.875 225.615 490.327 225.363 486.853 224.669C478.881 223.163 471.023 221.108 463.334 218.517L463.141 218.45L463.2 218.248L463.672 216.63L466.949 205.456L467.008 205.254L467.211 205.304C474.39 207.225 481.182 208.902 487.359 210.032C488.909 210.301 490.418 210.537 491.884 210.655C492.598 210.727 493.318 210.727 494.033 210.655C494.197 210.635 494.358 210.595 494.513 210.537C494.654 210.487 494.775 210.392 494.859 210.267C495.066 210.002 495.252 209.72 495.415 209.425C496.797 207.04 497.859 204.689 498.861 202.582C500.833 198.369 502.341 194.923 503.395 192.572C503.909 191.417 504.313 190.507 504.6 189.875C504.726 189.58 504.836 189.353 504.912 189.176C504.987 188.999 505.03 188.94 505.038 188.948C505.046 188.956 505.038 189.032 504.954 189.192C504.869 189.353 504.785 189.605 504.667 189.9L503.547 192.563C502.544 194.939 501.069 198.377 499.131 202.633C498.145 204.756 497.109 207.099 495.76 209.526C495.585 209.84 495.388 210.142 495.17 210.428C495.047 210.592 494.881 210.721 494.69 210.798C494.511 210.867 494.324 210.912 494.134 210.933C493.395 211.013 492.649 211.013 491.909 210.933C490.418 210.824 488.901 210.588 487.35 210.326C481.14 209.223 474.348 207.563 467.126 205.65L467.388 205.498L464.118 216.68L463.646 218.298L463.503 218.028C471.168 220.614 479.001 222.675 486.946 224.197C490.385 224.896 493.899 225.159 497.403 224.98L498.608 224.846L499.755 224.534L500.319 224.382L500.858 224.146L501.903 223.683C502.554 223.325 503.184 222.931 503.791 222.503C504.378 222.086 504.94 221.636 505.476 221.155C507.308 219.431 508.916 217.483 510.263 215.357C511.299 213.763 512.238 212.109 513.077 210.402C513.785 209.004 514.274 207.874 514.611 207.133L514.99 206.29C515.017 206.205 515.053 206.123 515.099 206.046Z" fill="#263238"/>
<path d="M481.349 191.139C480.945 191.943 480.489 192.72 479.984 193.464C478.813 195.26 477.995 197.262 477.574 199.363C477.31 201.49 477.67 203.648 478.61 205.574C479.011 206.378 479.366 207.205 479.672 208.051C479.509 207.869 479.373 207.665 479.267 207.444C478.926 206.879 478.613 206.297 478.332 205.7C477.894 204.817 477.549 203.891 477.304 202.936C476.999 201.747 476.942 200.508 477.136 199.296C477.565 197.136 478.447 195.091 479.722 193.296C480.195 192.527 480.74 191.805 481.349 191.139Z" fill="#263238"/>
<g opacity="0.2">
<path d="M483.087 223.742C483.071 224.473 483.213 225.199 483.504 225.869C483.795 226.54 484.228 227.139 484.773 227.627C485.87 228.596 487.181 229.292 488.598 229.657C490.809 230.283 493.124 230.446 495.4 230.137C497.676 229.828 499.864 229.054 501.828 227.863C505.738 225.478 508.401 221.121 509.48 216.697C509.48 216.697 507.011 219.807 505.384 221.425C503.353 223.474 500.671 224.752 497.8 225.04C492.854 225.739 487.848 224.736 482.961 223.734" fill="#444444"/>
</g>
<path d="M526.316 368.386C526.316 368.386 526.063 368.731 525.616 368.976C525.367 369.143 525.073 369.231 524.773 369.228C525.024 369.067 525.29 368.929 525.566 368.815C525.953 368.588 526.273 368.344 526.316 368.386Z" fill="#263238"/>
<path d="M529.188 342.034L513.178 351.725L492.743 318.12C488.698 303.533 484.797 252.189 484.797 252.189L507.237 253.875C507.237 253.875 510.692 290.741 516.119 309.735L529.188 342.034Z" fill="#ACAFB1"/>
<path d="M518.398 229.758C518.937 229.758 522.864 244.926 518.078 254.119C517.606 255.013 514.168 260.018 514.168 260.018C501.941 274.436 489.553 302.698 486.09 310.013C478.995 325.096 466.415 350.039 466.415 350.039L448.719 340.349L463.465 301.165L486.09 239.229L518.398 229.758Z" fill="#ACAFB1"/>
<path d="M450.401 341.191L446.188 349.618L460.091 358.045L465.147 349.197L450.401 341.191Z" fill="#9C735F"/>
<path d="M514.442 350.882L519.5 358.045L532.982 350.461L528.346 342.456L514.442 350.882Z" fill="#9C735F"/>
<path d="M473.57 335.715C473.514 335.715 472.794 334.674 471.425 333.124C470.622 332.22 469.768 331.369 468.867 330.576C467.76 329.617 466.593 328.739 465.373 327.948C464.139 327.175 462.854 326.494 461.53 325.91C460.443 325.438 459.33 325.036 458.197 324.706C456.261 324.153 455.024 323.968 455.031 323.924C455.324 323.906 455.617 323.929 455.905 323.99C456.248 324.023 456.588 324.078 456.925 324.153C457.323 324.234 457.777 324.308 458.26 324.448C459.416 324.738 460.551 325.116 461.656 325.578C463.003 326.155 464.309 326.836 465.562 327.616C466.804 328.417 467.986 329.318 469.098 330.311C469.996 331.125 470.842 332.003 471.627 332.939C471.977 333.33 472.249 333.722 472.501 334.054C472.723 334.331 472.928 334.622 473.116 334.925C473.295 335.169 473.448 335.434 473.57 335.715Z" fill="#455A64"/>
<path d="M525.566 330.861C525.537 330.909 524.274 330.982 522.237 331.347C521.048 331.562 519.877 331.85 518.731 332.207C517.337 332.654 515.98 333.195 514.67 333.826C513.368 334.479 512.119 335.222 510.931 336.05C509.963 336.733 509.041 337.475 508.17 338.272C506.691 339.638 505.891 340.598 505.856 340.569C505.994 340.31 506.165 340.071 506.367 339.858C506.574 339.582 506.797 339.319 507.036 339.071C507.313 338.773 507.612 338.423 507.982 338.084C508.831 337.247 509.744 336.474 510.713 335.77C511.906 334.918 513.167 334.157 514.484 333.492C515.814 332.847 517.198 332.306 518.624 331.872C519.787 331.528 520.977 331.262 522.185 331.077C522.701 330.982 523.177 330.953 523.591 330.911C523.943 330.865 524.298 330.841 524.655 330.838C524.957 330.812 525.263 330.819 525.566 330.861Z" fill="#455A64"/>
<path d="M507.367 268.73C507.098 269.124 506.862 269.538 506.659 269.969L504.839 273.458C503.305 276.365 501.148 280.359 498.763 284.775C496.379 289.19 494.255 293.201 492.789 296.159C492.056 297.634 491.474 298.831 491.104 299.665C490.884 300.089 490.695 300.528 490.539 300.979C490.813 300.588 491.053 300.173 491.255 299.741C491.71 298.898 492.326 297.701 493.067 296.294C494.601 293.387 496.758 289.393 499.151 284.977C501.544 280.562 503.659 276.55 505.117 273.593C505.859 272.118 506.44 270.921 506.803 270.087C507.024 269.65 507.213 269.196 507.367 268.73Z" fill="#455A64"/>
<path d="M461.002 214.9C458.033 214.662 455.079 214.257 452.154 213.687C448.556 212.844 448.615 212.49 448.784 212.086C449.222 210.99 455.171 213.375 454.168 212.086C453.166 210.797 446.584 210.03 447.081 208.909C447.73 207.443 453.924 210.055 454.455 210.24C454.986 210.426 455.255 209.642 454.767 209.499C454.05 209.305 446.635 207.03 447.267 205.589C447.612 204.746 448.952 205.589 448.952 205.589C448.952 205.589 455.744 208.235 456.022 207.544C456.3 206.853 452.357 205.151 450.966 204.679C449.576 204.207 449.281 203.373 449.963 202.943C450.427 202.648 454.649 203.996 455.988 204.502C457.328 205.008 460.994 206.44 459.73 204.249C458.466 202.058 458.365 199.935 458.702 199.303C459.039 198.671 460.016 198.982 460.101 199.766C460.272 200.601 460.555 201.409 460.943 202.168C461.234 202.789 461.624 203.358 462.098 203.853C462.511 204.283 462.89 204.645 463.235 204.965L466.244 207.797L464.154 215.162L461.002 214.9Z" fill="#9C735F"/>
<path d="M494.498 135.969C495.894 135.969 497.276 136.245 498.564 136.783C499.852 137.32 501.021 138.108 502.003 139.1C502.985 140.092 503.76 141.269 504.284 142.563C504.808 143.856 505.071 145.241 505.056 146.637L504.711 175.498C504.671 176.398 504.453 177.281 504.069 178.095C503.685 178.91 503.142 179.64 502.473 180.243C501.804 180.846 501.022 181.31 500.172 181.608C499.322 181.906 498.422 182.032 497.523 181.978C493.545 181.894 490.31 178.818 490.301 175.102C490.301 171.201 490.2 167.097 490.2 167.097C490.2 167.097 485.144 166.254 484.141 159.707C483.872 158.021 483.855 152.013 483.905 146.435C483.93 143.65 485.053 140.989 487.031 139.028C489.008 137.068 491.68 135.969 494.464 135.969H494.498Z" fill="#9C735F"/>
<path d="M485.438 150.43C485.438 150.654 485.526 150.868 485.684 151.026C485.842 151.184 486.057 151.273 486.28 151.273C486.49 151.274 486.692 151.197 486.848 151.057C487.004 150.916 487.102 150.723 487.123 150.515C487.123 150.291 487.034 150.077 486.876 149.919C486.718 149.761 486.504 149.672 486.28 149.672C486.071 149.671 485.868 149.748 485.712 149.888C485.556 150.028 485.458 150.222 485.438 150.43Z" fill="#263238"/>
<path d="M485.253 149.51C485.354 149.619 485.995 149.147 486.938 149.147C487.882 149.147 488.506 149.603 488.624 149.493C488.742 149.383 488.565 149.249 488.278 149.038C487.884 148.767 487.417 148.623 486.938 148.625C486.469 148.623 486.012 148.771 485.632 149.046C485.329 149.257 485.202 149.459 485.253 149.51Z" fill="#263238"/>
<path d="M494.484 150.43C494.484 150.654 494.573 150.868 494.731 151.026C494.889 151.184 495.104 151.273 495.327 151.273C495.432 151.28 495.538 151.265 495.638 151.231C495.738 151.196 495.83 151.142 495.908 151.071C495.987 151.001 496.05 150.915 496.095 150.819C496.14 150.724 496.165 150.62 496.17 150.515C496.17 150.291 496.081 150.077 495.923 149.919C495.765 149.761 495.551 149.672 495.327 149.672C495.117 149.671 494.915 149.748 494.759 149.888C494.603 150.028 494.505 150.222 494.484 150.43Z" fill="#263238"/>
<path d="M494.137 149.68C494.247 149.789 494.879 149.317 495.823 149.317C496.766 149.317 497.39 149.772 497.508 149.663C497.626 149.553 497.457 149.419 497.162 149.208C496.772 148.936 496.307 148.792 495.831 148.795C495.359 148.793 494.899 148.941 494.516 149.216C494.188 149.427 494.087 149.629 494.137 149.68Z" fill="#263238"/>
<path d="M490.86 156.387C490.381 156.243 489.886 156.155 489.386 156.126C489.158 156.126 488.939 156.05 488.897 155.898C488.879 155.657 488.935 155.416 489.057 155.207C489.268 154.651 489.495 154.07 489.74 153.454C490.369 151.963 490.882 150.425 491.273 148.854C490.518 150.288 489.881 151.782 489.369 153.32L488.712 155.089C488.568 155.367 488.527 155.686 488.594 155.991C488.627 156.072 488.678 156.145 488.744 156.204C488.81 156.262 488.888 156.305 488.973 156.328C489.102 156.366 489.235 156.386 489.369 156.387C489.864 156.451 490.365 156.451 490.86 156.387Z" fill="#263238"/>
<path d="M501.622 133.782C502.14 133.72 502.661 133.658 503.176 133.571C503.425 133.529 503.666 133.569 503.915 133.535C504.135 133.506 504.376 133.462 504.434 133.493C504.753 133.665 505.037 133.885 505.35 134.065C505.651 134.239 505.962 134.38 506.258 134.57C506.744 134.882 507.076 135.426 507.497 135.816C508.318 136.577 508.881 137.442 509.332 138.463C509.64 139.162 510.121 139.79 510.481 140.462C511.881 143.076 512.976 145.781 514.036 148.545C514.127 148.782 514.589 149.494 514.507 149.778C514.416 150.093 514.06 150.411 513.864 150.661C513.442 151.198 512.948 151.56 512.373 151.919C511.765 152.298 511.143 152.66 510.549 153.061C510.068 153.386 509.485 154.071 508.858 153.998C507.441 153.831 506.231 152.792 505.509 151.634L504.94 150.722C504.777 150.46 504.854 150.164 504.703 149.897C504.186 148.987 503.591 148.114 503.037 147.226C502.34 146.108 501.76 144.949 501.146 143.783C500.798 143.123 500.685 142.405 500.423 141.703C500.012 140.601 499.34 139.549 498.603 138.636C497.919 137.79 497.313 137.065 496.413 136.456C496.075 136.227 495.833 135.87 495.641 135.513C495.535 135.317 498.297 134.43 498.466 134.376L498.467 134.376C499.489 134.048 500.56 133.908 501.622 133.782Z" fill="black"/>
<path d="M490.234 167.097C493.322 167.145 496.362 166.334 499.015 164.754C499.015 164.754 496.891 169.254 490.327 168.647L490.234 167.097Z" fill="#51392D"/>
<path d="M491.231 158.57C491.406 158.356 491.632 158.189 491.888 158.083C492.144 157.977 492.421 157.936 492.697 157.963C492.896 157.982 493.088 158.042 493.263 158.137C493.439 158.233 493.593 158.363 493.717 158.519C493.84 158.667 493.913 158.85 493.927 159.042C493.941 159.234 493.893 159.426 493.792 159.589C493.648 159.754 493.457 159.871 493.245 159.925C493.033 159.979 492.81 159.968 492.604 159.893C492.176 159.744 491.783 159.509 491.45 159.202C491.346 159.129 491.258 159.038 491.189 158.932C491.157 158.882 491.141 158.823 491.141 158.764C491.141 158.704 491.157 158.646 491.189 158.595" fill="#68432F"/>
<path d="M495.208 157.068C494.653 157.828 493.909 158.429 493.05 158.813C492.262 159.323 491.364 159.638 490.43 159.731C491.197 159.233 492.003 158.796 492.84 158.425C493.603 157.928 494.393 157.476 495.208 157.068Z" fill="#263238"/>
<path d="M494.115 147.143C494.199 147.387 495.109 147.278 496.171 147.404C497.233 147.531 498.084 147.817 498.227 147.598C498.371 147.379 498.143 147.261 497.797 147.025C497.335 146.729 496.81 146.544 496.264 146.486C495.722 146.42 495.173 146.486 494.663 146.679C494.267 146.831 494.073 147.059 494.115 147.143Z" fill="#263238"/>
<path d="M485.585 146.889C485.745 147.092 486.368 146.889 487.118 146.889C487.868 146.889 488.5 147.024 488.652 146.814C488.804 146.603 488.61 146.502 488.34 146.308C487.967 146.075 487.534 145.958 487.094 145.972C486.655 145.985 486.229 146.129 485.871 146.384C485.601 146.578 485.517 146.788 485.585 146.889Z" fill="#263238"/>
<path d="M483.739 139.323C483.961 138.851 484.183 138.376 484.382 137.893C484.478 137.66 484.64 137.477 484.743 137.247C484.834 137.045 484.924 136.817 484.982 136.784C485.297 136.605 485.633 136.48 485.952 136.31C486.259 136.146 486.543 135.956 486.861 135.806C487.382 135.559 488.02 135.566 488.574 135.415C489.654 135.12 490.686 135.1 491.791 135.258C492.547 135.366 493.334 135.29 494.095 135.341C497.054 135.536 499.928 136.038 502.835 136.602C503.084 136.65 503.933 136.634 504.13 136.854C504.35 137.098 504.431 137.568 504.539 137.867C504.772 138.509 504.817 139.12 504.817 139.797C504.817 140.514 504.796 141.233 504.822 141.949C504.842 142.53 505.116 143.387 504.722 143.88C503.83 144.994 502.308 145.471 500.943 145.471H499.869C499.561 145.471 499.35 145.249 499.043 145.236C497.997 145.193 496.942 145.236 495.895 145.236C494.578 145.236 493.288 145.115 491.974 145.019C491.229 144.965 490.56 144.682 489.826 144.532C488.673 144.297 487.425 144.311 486.261 144.454C485.181 144.586 484.245 144.717 483.252 145.158C482.878 145.324 482.447 145.34 482.043 145.315C481.821 145.301 482.53 142.487 482.573 142.316L482.574 142.315C482.836 141.274 483.284 140.291 483.739 139.323Z" fill="black"/>
<path d="M490.757 139.747C491.431 137.387 492.161 135.955 492.442 135.533L490.757 145.224L489.914 144.381C489.914 143.819 490.083 142.106 490.757 139.747Z" fill="#9C735F"/>
<path d="M490.698 201.522L490.698 177.295L495.066 181.508L502.229 180.244L490.698 201.522Z" fill="white"/>
<path d="M493.87 188.67C493.681 188.67 493.872 186.644 494.291 183.619C494.709 180.594 495.715 178.132 495.904 178.137C496.093 178.142 495.973 180.589 495.555 183.614C495.136 186.639 494.059 188.675 493.87 188.67Z" fill="#9C735F"/>
<path d="M446.353 349.197L441.188 359.746L453.361 367.039L460.225 357.784L446.353 349.197Z" fill="#EDD8C8"/>
<path d="M451.028 372.772L452.263 370.539L425.768 355.552C425.768 355.552 424.242 355.34 423.859 356.278L451.028 372.772Z" fill="white"/>
<path d="M443.094 355.876L442.599 356.676C442.599 356.676 425.597 353.782 423.859 356.279L451.028 372.793L456.147 363.545C450.981 362.924 446.615 360.566 443.094 355.876Z" fill="#FF6C00"/>
<path d="M442.451 356.694C442.378 356.833 443.006 357.295 443.396 358.114C443.785 358.933 443.799 359.706 443.957 359.726C444.116 359.746 444.38 358.86 443.884 357.876C443.389 356.892 442.497 356.555 442.451 356.694Z" fill="#F7ECEC"/>
<path d="M442.726 357.105C442.972 356.934 443.25 356.816 443.544 356.758C444.337 356.54 445.165 356.482 445.981 356.586C446.584 356.611 447.162 356.833 447.626 357.219C447.767 357.36 447.86 357.541 447.893 357.738C447.926 357.934 447.898 358.136 447.811 358.315C447.625 358.655 447.32 358.914 446.955 359.043C446.196 359.276 445.379 359.238 444.646 358.935C443.912 358.632 443.306 358.082 442.934 357.381C442.582 356.68 442.445 355.89 442.542 355.111C442.64 354.332 442.966 353.6 443.479 353.007C443.609 352.859 443.77 352.741 443.95 352.661C444.13 352.582 444.325 352.542 444.521 352.545C444.721 352.566 444.908 352.649 445.057 352.783C445.206 352.917 445.309 353.095 445.352 353.291C445.437 353.878 445.367 354.477 445.148 355.028C444.906 355.811 444.522 356.543 444.017 357.188C443.856 357.441 443.642 357.657 443.391 357.821C443.999 356.932 444.474 355.958 444.801 354.931C444.974 354.445 445.021 353.922 444.938 353.413C444.918 353.305 444.864 353.206 444.783 353.131C444.702 353.056 444.599 353.01 444.49 352.998C444.361 353.01 444.235 353.046 444.12 353.106C444.006 353.166 443.904 353.248 443.821 353.348C443.394 353.873 443.128 354.51 443.054 355.183C442.979 355.855 443.099 356.535 443.399 357.141C443.715 357.733 444.222 358.199 444.837 358.465C445.452 358.73 446.139 358.779 446.786 358.604C447.045 358.521 447.267 358.349 447.411 358.119C447.459 358.02 447.475 357.909 447.457 357.8C447.439 357.692 447.388 357.592 447.311 357.514C446.919 357.187 446.436 356.991 445.927 356.953C444.859 356.815 443.776 356.867 442.726 357.105Z" fill="#F7ECEC"/>
<path d="M435.199 358.57C435.304 358.676 435.859 358.121 435.991 357.189C436.123 356.258 435.648 355.591 435.522 355.664C435.397 355.736 435.522 356.364 435.456 357.13C435.39 357.896 435.08 358.478 435.199 358.57Z" fill="#F7ECEC"/>
<path d="M439.113 359.045C439.218 359.15 439.773 358.595 439.905 357.664C440.038 356.733 439.562 356.066 439.436 356.138C439.311 356.211 439.436 356.838 439.37 357.605C439.304 358.371 438.994 358.952 439.113 359.045Z" fill="#F7ECEC"/>
<path d="M451.034 365.826C450.563 365.313 449.923 364.992 449.236 364.923C448.549 364.855 447.861 365.043 447.303 365.454C446.776 365.909 446.443 366.552 446.371 367.251C446.3 367.949 446.496 368.649 446.918 369.207C447.419 369.753 448.1 370.092 448.831 370.161C449.562 370.229 450.291 370.022 450.879 369.579C451.38 369.045 451.656 368.335 451.649 367.598C451.643 366.861 451.354 366.155 450.844 365.627" fill="#F7ECEC"/>
<path d="M452.953 366.371L452.293 369.013L450.972 370.307L450.641 370.995L446.348 368.353L451.962 367.692" stroke="#FF6C00" stroke-width="3.37067"/>
<path d="M518.772 356.909L525.201 366.739L537.69 360L532.558 349.198L518.772 356.909Z" fill="#EDD8C8"/>
<path d="M541.435 364.936L540.147 362.733L513.727 377.852C513.727 377.852 512.766 379.056 513.377 379.864L541.435 364.936Z" fill="white"/>
<path d="M522.854 363.123L523.288 363.958C523.288 363.958 512.114 377.095 513.373 379.865L541.449 364.946L536.115 355.821C532.942 359.944 528.684 362.493 522.854 363.123Z" fill="#FF6C00"/>
<path d="M523.232 364.092C523.314 364.226 524.032 363.922 524.935 364.006C525.838 364.089 526.509 364.473 526.608 364.347C526.706 364.22 526.08 363.541 524.98 363.464C523.881 363.387 523.136 363.982 523.232 364.092Z" fill="#F7ECEC"/>
<path d="M523.729 364.068C523.707 363.769 523.747 363.469 523.848 363.187C524.065 362.394 524.438 361.652 524.945 361.004C525.274 360.498 525.761 360.115 526.33 359.914C526.523 359.864 526.726 359.877 526.912 359.948C527.098 360.02 527.257 360.148 527.366 360.315C527.564 360.648 527.631 361.042 527.554 361.422C527.367 362.194 526.918 362.876 526.282 363.352C525.646 363.828 524.865 364.068 524.071 364.029C523.289 363.974 522.54 363.688 521.92 363.206C521.3 362.725 520.837 362.071 520.59 361.326C520.529 361.139 520.51 360.941 520.533 360.745C520.557 360.55 520.622 360.362 520.725 360.194C520.845 360.034 521.013 359.915 521.204 359.855C521.395 359.795 521.601 359.798 521.791 359.861C522.339 360.088 522.818 360.454 523.18 360.924C523.729 361.533 524.163 362.236 524.459 363C524.595 363.268 524.671 363.562 524.683 363.862C524.23 362.884 523.635 361.978 522.92 361.173C522.59 360.776 522.165 360.468 521.684 360.279C521.581 360.241 521.468 360.237 521.363 360.268C521.257 360.3 521.165 360.364 521.099 360.453C521.043 360.57 521.01 360.696 521.003 360.826C520.996 360.955 521.014 361.084 521.057 361.207C521.291 361.841 521.703 362.396 522.243 362.804C522.783 363.211 523.429 363.456 524.103 363.507C524.773 363.538 525.433 363.341 525.976 362.947C526.518 362.554 526.911 361.988 527.091 361.343C527.152 361.078 527.118 360.8 526.993 360.558C526.933 360.466 526.846 360.395 526.743 360.355C526.641 360.315 526.528 360.308 526.422 360.335C525.941 360.504 525.525 360.82 525.233 361.238C524.569 362.085 524.06 363.043 523.729 364.068Z" fill="#F7ECEC"/>
<path d="M521.142 371.285C521.287 371.248 521.093 370.488 520.36 369.898C519.627 369.309 518.81 369.377 518.809 369.522C518.807 369.667 519.411 369.879 520.036 370.328C520.661 370.776 521.002 371.34 521.142 371.285Z" fill="#F7ECEC"/>
<path d="M523.548 368.16C523.693 368.123 523.499 367.363 522.766 366.773C522.033 366.184 521.217 366.252 521.215 366.397C521.213 366.542 521.817 366.754 522.442 367.203C523.067 367.651 523.408 368.215 523.548 368.16Z" fill="#F7ECEC"/>
<path d="M535.463 361.383C534.781 361.526 534.179 361.912 533.768 362.468C533.358 363.024 533.169 363.711 533.237 364.4C533.36 365.086 533.742 365.701 534.306 366.119C534.87 366.538 535.572 366.727 536.267 366.649C536.992 366.497 537.632 366.085 538.064 365.492C538.496 364.898 538.691 364.165 538.61 363.433C538.407 362.731 537.938 362.131 537.301 361.76C536.664 361.389 535.909 361.276 535.195 361.445" fill="#F7ECEC"/>
<path d="M536.922 360.004L538.856 361.922L539.293 363.718L539.716 364.354L535.251 366.695L537.551 361.531" stroke="#FF6C00" stroke-width="3.37067"/>
</svg>
