<svg width="89" height="25" viewBox="0 0 89 25" fill="none" xmlns="http://www.w3.org/2000/svg">
<g clip-path="url(#clip0_106_6969)">
<path d="M3.32041 24.2242H2.58441C2.58441 22.4535 3.08574 19.2215 4.08841 14.5282C5.09108 9.83488 5.64574 7.02954 5.75241 6.11221C5.88041 5.17354 5.95508 4.46954 5.97641 4.00021C3.97108 4.04288 2.37108 4.35221 1.17641 4.92821C0.557747 4.22421 0.173747 3.18954 0.0244141 1.82421C1.06974 1.46154 2.86174 1.28021 5.40041 1.28021L15.4804 1.60021C15.9711 1.60021 16.7497 1.57888 17.8164 1.53621C17.9017 2.21888 17.9444 2.79488 17.9444 3.26421C17.9444 4.26688 17.3151 4.76821 16.0564 4.76821C15.6724 4.76821 15.0644 4.70421 14.2324 4.57621C13.4217 4.44821 12.7071 4.37354 12.0884 4.35221C12.0244 5.03488 11.4697 7.80821 10.4244 12.6722C9.40041 17.5362 8.88841 21.1095 8.88841 23.3922C7.94974 23.9469 6.09374 24.2242 3.32041 24.2242ZM19.9852 24.3842C18.3212 24.3842 17.0092 23.8615 16.0492 22.8162C15.0892 21.7495 14.6092 20.2562 14.6092 18.3362C14.6092 15.9895 15.3025 14.0055 16.6892 12.3842C18.0758 10.7415 19.8998 9.92021 22.1612 9.92021L23.6012 10.0482C24.1132 9.89888 24.5932 9.82421 25.0412 9.82421C26.1078 9.82421 26.8652 10.1869 27.3132 10.9122C27.7825 11.6375 28.0492 12.6722 28.1132 14.0162C29.0092 13.9735 29.8625 13.8349 30.6732 13.6002L31.1212 13.4722C31.2705 13.6215 31.3772 14.0695 31.4412 14.8162L31.4732 15.1682C30.5132 15.6589 29.3398 16.0429 27.9532 16.3202C27.4838 18.5815 26.5558 20.4909 25.1692 22.0482C23.7825 23.6055 22.0545 24.3842 19.9852 24.3842ZM20.6252 18.2082C20.6252 20.1922 21.1265 21.1842 22.1292 21.1842C22.8332 21.1842 23.5478 20.7362 24.2732 19.8402C25.0198 18.9442 25.5318 17.8562 25.8092 16.5762C23.6332 16.5762 22.5452 15.5309 22.5452 13.4402C22.5452 13.0775 22.5772 12.7042 22.6412 12.3202C22.4278 12.3202 22.2678 12.3522 22.1612 12.4162C21.7985 12.8002 21.4465 13.5789 21.1052 14.7522C20.7852 15.9042 20.6252 17.0562 20.6252 18.2082ZM33.6754 9.92021L40.2354 10.0802C40.9821 10.0802 41.6754 10.0482 42.3154 9.98421L42.6034 11.0722C39.5101 14.6562 37.3021 17.3655 35.9794 19.2002C38.0914 19.7549 39.4247 20.0429 39.9794 20.0642C40.5554 20.0642 41.0247 19.6162 41.3874 18.7202L42.7634 19.2002C42.3794 22.9549 41.1527 24.8322 39.0834 24.8322C38.3581 24.8322 37.3661 24.4802 36.1074 23.7762C34.8701 23.0722 34.0701 22.6562 33.7074 22.5282C32.6834 23.6162 31.9154 24.1602 31.4034 24.1602C30.9127 24.1602 30.3687 23.8722 29.7714 23.2962C29.1741 22.6989 28.8754 22.1442 28.8754 21.6322C28.8754 21.1202 29.2487 20.4909 29.9954 19.7442C30.7634 18.9975 31.5741 18.6242 32.4274 18.6242C32.6407 18.6242 32.9607 18.6455 33.3874 18.6882C34.6461 17.5149 35.7554 15.9682 36.7154 14.0482C34.1127 14.0482 32.1501 14.4322 30.8274 15.2002C30.5714 14.1762 30.4434 13.2909 30.4434 12.5442C30.4434 11.7975 30.4647 11.1469 30.5074 10.5922C30.8487 10.1442 31.9047 9.92021 33.6754 9.92021ZM51.0772 12.0002C51.0772 12.9389 50.8105 14.4002 50.2772 16.3842C49.7438 18.3469 49.4772 19.6269 49.4772 20.2242C49.4772 20.8215 49.5945 21.1202 49.8292 21.1202C50.0638 21.1202 50.4905 21.0135 51.1092 20.8002L51.3972 20.6722L51.9732 22.2722C51.2478 22.8269 50.3412 23.3175 49.2532 23.7442C48.1865 24.1709 47.2158 24.3842 46.3412 24.3842C45.4665 24.3842 44.7732 24.1389 44.2612 23.6482C43.7705 23.1575 43.5251 22.4535 43.5251 21.5362C43.5251 20.5975 43.7812 19.1789 44.2932 17.2802C44.8265 15.3602 45.0932 14.1442 45.0932 13.6322C45.0932 12.8429 44.8158 12.0962 44.2612 11.3922L44.0052 11.0402L44.1012 10.4962C45.2105 10.1549 47.3652 9.98421 50.5652 9.98421C50.9065 10.3682 51.0772 11.0402 51.0772 12.0002ZM48.6772 7.48821C47.7172 7.48821 46.9598 7.23221 46.4052 6.72021C45.8718 6.20821 45.6052 5.55754 45.6052 4.76821C45.6052 3.95754 45.9358 3.28554 46.5972 2.75221C47.2798 2.19754 48.1012 1.92021 49.0612 1.92021C50.0212 1.92021 50.7678 2.14421 51.3012 2.59221C51.8345 3.04021 52.1012 3.66954 52.1012 4.48021C52.1012 5.29088 51.7705 5.99488 51.1092 6.59221C50.4692 7.18954 49.6585 7.48821 48.6772 7.48821ZM61.6629 22.2082C60.9802 22.8055 60.0842 23.3175 58.9749 23.7442C57.8656 24.1709 56.8522 24.3842 55.9349 24.3842C55.0389 24.3842 54.3029 24.1282 53.7269 23.6162C53.1509 23.0829 52.8629 22.3255 52.8629 21.3442C52.8629 20.3629 53.3962 17.6322 54.4629 13.1522C55.5509 8.65088 56.0949 5.31221 56.0949 3.13621C56.0949 2.66688 56.0309 2.06954 55.9029 1.34421C57.9082 0.789541 59.8496 0.512207 61.7269 0.512207C61.9189 0.85354 62.0149 1.40821 62.0149 2.17621C62.0149 3.62688 61.4709 6.79488 60.3829 11.6802C59.3162 16.5442 58.7829 19.3495 58.7829 20.0962C58.7829 20.8429 58.9109 21.2162 59.1669 21.2162C59.3802 21.2162 59.8389 21.0775 60.5429 20.8002L60.8949 20.6402L61.6629 22.2082Z" fill="white"/>
<path d="M71.1623 22.2082C70.4796 22.8055 69.5836 23.3175 68.4743 23.7442C67.365 24.1709 66.3516 24.3842 65.4343 24.3842C64.5383 24.3842 63.8023 24.1282 63.2263 23.6162C62.6503 23.0829 62.3623 22.3255 62.3623 21.3442C62.3623 20.3629 62.8956 17.6322 63.9623 13.1522C65.0503 8.65088 65.5943 5.31221 65.5943 3.13621C65.5943 2.66688 65.5303 2.06954 65.4023 1.34421C67.4076 0.789541 69.349 0.512207 71.2263 0.512207C71.4183 0.85354 71.5143 1.40821 71.5143 2.17621C71.5143 3.62688 70.9703 6.79488 69.8823 11.6802C68.8156 16.5442 68.2823 19.3495 68.2823 20.0962C68.2823 20.8429 68.4103 21.2162 68.6663 21.2162C68.8796 21.2162 69.3383 21.0775 70.0423 20.8002L70.3943 20.6402L71.1623 22.2082ZM87.6383 11.0402C87.1903 12.4269 86.8063 14.0802 86.4863 16.0002C86.1663 17.8989 86.0063 19.2322 86.0063 20.0002C86.0063 20.7469 86.1236 21.1202 86.3583 21.1202L87.9583 20.6722L88.5343 22.2722C87.8516 22.8055 86.977 23.2962 85.9103 23.7442C84.865 24.1709 83.937 24.3842 83.1263 24.3842C81.7396 24.3842 80.865 23.7869 80.5023 22.5922C78.817 23.7869 77.3236 24.3842 76.0223 24.3842C74.7423 24.3842 73.7503 23.9149 73.0463 22.9762C72.3423 22.0375 71.9903 20.6935 71.9903 18.9442C71.9903 16.5335 72.609 14.4109 73.8463 12.5762C75.0836 10.7415 76.7156 9.82421 78.7423 9.82421C79.8516 9.82421 80.9823 10.1335 82.1343 10.7522C82.305 10.3682 82.4436 10.0909 82.5503 9.92021C84.0863 9.92021 85.7823 10.2935 87.6383 11.0402ZM78.0063 18.5602C78.0063 19.6269 78.081 20.2989 78.2303 20.5762C78.3796 20.8535 78.657 20.9922 79.0623 20.9922C79.4676 20.9922 79.8623 20.8322 80.2463 20.5122C80.3316 18.0375 80.737 15.4455 81.4623 12.7362C81.1423 12.5442 80.769 12.4482 80.3423 12.4482C79.937 12.4482 79.5636 12.6829 79.2223 13.1522C78.9023 13.6215 78.657 14.2082 78.4863 14.9122C78.1663 16.2562 78.0063 17.4722 78.0063 18.5602Z" fill="#FF6C00"/>
</g>
<defs>
<clipPath id="clip0_106_6969">
<rect width="89" height="25" fill="white"/>
</clipPath>
</defs>
</svg>
