<svg width="153" height="25" viewBox="0 0 153 25" fill="none" xmlns="http://www.w3.org/2000/svg">
<g clip-path="url(#clip0_2717_19854)">
<path d="M4.56051 3.39505V13.7372C4.56051 15.2459 4.62541 16.2722 4.75523 16.8161C4.88505 17.36 5.06123 17.7108 5.28378 17.8687C5.78451 18.2372 6.59123 18.4214 7.70396 18.4214H8.3716V18.8424H0.554688V18.4214H0.860687C1.93633 18.3863 2.74305 18.167 3.28087 17.7635C3.65178 17.4477 3.87432 16.7108 3.94851 15.5529C3.98559 15.1319 4.00414 14.5179 4.00414 13.7108V2.97399C4.00414 2.23715 3.80014 1.73715 3.39214 1.47399C2.98414 1.21084 2.33505 1.07926 1.44487 1.07926V0.658203H9.87378L14.6863 12.5529L18.7756 0.658203H25.8971V1.07926H24.1167V18.4214H25.8971V18.8424H16.8283V18.4214H18.6087V3.39505H18.414L13.1007 18.8424H12.5721C11.4965 18.8424 10.6991 18.1933 10.1798 16.895L4.67178 3.39505H4.56051ZM29.0998 7.1582H27.1247V6.73715H28.7938C30.8153 6.73715 32.6698 6.57049 34.3575 6.23715V18.4214H36.0822V18.8424H27.3751V18.4214H29.0998V7.1582ZM31.7147 5.13189C30.9915 5.13189 30.3702 4.89505 29.8509 4.42136C29.3502 3.93013 29.0998 3.34241 29.0998 2.6582C29.0998 1.95645 29.3502 1.36873 29.8509 0.895047C30.3702 0.403818 31.0007 0.158203 31.7426 0.158203C32.4844 0.158203 33.1056 0.403818 33.6064 0.895047C34.1071 1.36873 34.3575 1.95645 34.3575 2.6582C34.3575 3.34241 34.0979 3.93013 33.5786 4.42136C33.0778 4.89505 32.4566 5.13189 31.7147 5.13189ZM38.6054 7.1582H36.6303V6.73715H38.2994C40.3208 6.73715 42.1754 6.57049 43.863 6.23715V8.8161H44.0021C44.7254 7.09682 46.0236 6.23715 47.8966 6.23715C49.4916 6.23715 50.6136 6.71084 51.2626 7.6582C51.9118 8.58801 52.2363 9.92136 52.2363 11.6582V18.4214H53.961V18.8424H45.3652V18.4214H47.0899V12.7635C47.0899 10.974 47.0065 9.67577 46.8396 8.86873C46.6726 8.06169 46.3018 7.6582 45.7268 7.6582C45.0778 7.6582 44.5863 8.3161 44.2525 9.63189C43.9186 10.9301 43.7517 12.3687 43.7517 13.9477V18.8424H36.8806V18.4214H38.6054V7.1582ZM60.5461 13.8424C60.5461 15.4389 60.7501 16.6495 61.1581 17.474C61.5846 18.2985 62.3543 18.7108 63.467 18.7108C64.5983 18.7108 65.572 18.3687 66.3879 17.6845C67.2225 17.0003 67.7603 16.0793 68.0014 14.9214L68.057 14.6845L68.5578 14.7635C68.2981 16.2021 67.6583 17.3248 66.6383 18.1319C65.6183 18.9389 64.2923 19.3424 62.6603 19.3424C60.1937 19.3424 58.2836 18.7898 56.9298 17.6845C55.5759 16.5617 54.899 14.9564 54.899 12.8687C54.899 10.781 55.5481 9.1582 56.8463 8.00031C58.1445 6.82485 59.9063 6.23715 62.1318 6.23715C63.9492 6.23715 65.4607 6.56171 66.6661 7.21084C67.8901 7.84241 68.5021 8.82485 68.5021 10.1582C68.5021 11.4916 67.9365 12.4389 66.8052 13.0003C65.6739 13.5617 64.1996 13.8424 62.3821 13.8424H60.5461ZM60.5183 11.474V13.3687H61.2138C62.0483 13.3687 62.6232 13.1056 62.9385 12.5793C63.2723 12.0354 63.4392 11.2459 63.4392 10.2108C63.4392 7.87748 63.0034 6.71084 62.1318 6.71084C61.5568 6.71084 61.1396 7.02663 60.8799 7.6582C60.6388 8.28978 60.5183 9.56169 60.5183 11.474ZM76.49 8.36873H76.6291C76.9253 7.73715 77.3426 7.2284 77.8809 6.84241C78.4185 6.43891 79.0673 6.23715 79.8282 6.23715C80.6071 6.23715 81.265 6.48276 81.8032 6.97399C82.3596 7.44768 82.6378 8.02663 82.6378 8.71084C82.6378 9.39505 82.4243 9.96524 81.998 10.4214C81.571 10.8775 81.0243 11.1056 80.3567 11.1056C79.6891 11.1056 79.1417 10.9214 78.7154 10.5529C78.3072 10.1845 78.1034 9.7284 78.1034 9.18452C78.1034 8.62314 78.2703 8.16695 78.6042 7.8161C78.9561 7.44768 79.3921 7.26347 79.9116 7.26347C80.4304 7.26347 80.8477 7.43893 81.1634 7.78978C81.3116 8.05294 81.4597 8.18452 81.6085 8.18452C81.7754 8.18452 81.8589 8.10557 81.8589 7.94768C81.8589 7.84241 81.8033 7.71084 81.692 7.55294C81.2469 6.99156 80.6161 6.71084 79.8003 6.71084C77.5192 6.71084 76.3787 8.86873 76.3787 13.1845V18.4214H78.4651V18.8424H69.5073V18.4214H71.2323V7.1582H69.2569V6.73715H70.9263C72.9473 6.73715 74.8021 6.57049 76.49 6.23715V8.36873Z" fill="white"/>
<path d="M83.4645 11.3938C83.4645 9.74467 84.0856 8.47276 85.3283 7.57802C86.5711 6.68329 88.0823 6.23592 89.8627 6.23592C90.4378 6.23592 91.0032 6.28855 91.5596 6.39381C91.0957 5.90258 90.8641 5.30609 90.8641 4.60434C90.8641 3.90258 91.1145 3.29732 91.6152 2.78855C92.1347 2.27978 92.7558 2.02539 93.4791 2.02539C94.2211 2.02539 94.8331 2.22715 95.3151 2.63065C95.797 3.03416 96.0383 3.55171 96.0383 4.18329C96.0383 4.81486 95.8436 5.33241 95.4541 5.73592C95.0647 6.12188 94.573 6.31486 93.9798 6.31486C93.4046 6.31486 92.9227 6.15697 92.5332 5.84118C92.1626 5.50784 91.9769 5.08679 91.9769 4.57802C91.9769 4.06925 92.1626 3.66574 92.5332 3.3675C92.8114 3.24469 92.9505 3.10434 92.9505 2.94644C92.9505 2.78855 92.8671 2.7096 92.7001 2.7096C92.5889 2.7096 92.4498 2.76223 92.2829 2.8675C91.6709 3.30609 91.3649 3.89381 91.3649 4.63065C91.3649 5.56048 91.9303 6.29732 93.0618 6.84118C95.1947 7.71835 96.2609 9.23592 96.2609 11.3938C96.2609 13.043 95.6398 14.3149 94.3971 15.2096C93.1543 16.1043 91.6431 16.5517 89.8627 16.5517C88.6387 16.5517 87.5447 16.3499 86.5801 15.9464C85.393 16.4201 84.7998 16.9114 84.7998 17.4201C84.7998 17.771 84.9479 18.0078 85.2449 18.1307C85.5418 18.2359 86.0516 18.2885 86.7749 18.2885C87.4981 18.2885 88.6477 18.1131 90.2243 17.7622C91.819 17.4114 92.8671 17.2359 93.3678 17.2359C94.4437 17.2359 95.2963 17.4991 95.927 18.0254C96.5578 18.5517 96.8729 19.2447 96.8729 20.1043C96.8729 21.4552 96.2699 22.6043 95.0647 23.5517C93.8595 24.4991 92.4129 24.9728 90.7251 24.9728C88.7221 24.9728 87.0899 24.2272 85.8291 22.7359C84.9201 22.6657 84.1878 22.3412 83.6314 21.7622C83.0751 21.1833 82.7969 20.4815 82.7969 19.657C82.7969 18.8499 83.0751 18.0868 83.6314 17.3675C84.2066 16.6482 85.0036 16.078 86.0238 15.657C84.3178 14.7447 83.4645 13.3236 83.4645 11.3938ZM89.2229 15.9201C89.4086 16.0254 89.6214 16.078 89.8627 16.078C90.104 16.078 90.3078 16.0254 90.4747 15.9201C90.6604 15.7973 90.7995 15.6131 90.892 15.3675C91.0032 15.1043 91.0867 14.8587 91.1423 14.6307C91.2167 14.3851 91.2626 14.043 91.2814 13.6043C91.3002 13.1657 91.3092 12.8149 91.3092 12.5517C91.328 12.2885 91.3371 11.9026 91.3371 11.3938C91.3371 10.8851 91.328 10.4991 91.3092 10.2359C91.3092 9.97276 91.3002 9.6219 91.2814 9.18329C91.2626 8.74467 91.2167 8.41138 91.1423 8.18329C91.0867 7.93769 91.0032 7.69204 90.892 7.44644C90.7995 7.18329 90.6604 6.99907 90.4747 6.89381C90.3078 6.77098 90.104 6.7096 89.8627 6.7096C89.6214 6.7096 89.4086 6.77098 89.2229 6.89381C89.056 6.99907 88.9169 7.18329 88.8056 7.44644C88.7131 7.69204 88.6297 7.93769 88.5552 8.18329C88.4996 8.41138 88.4627 8.74467 88.444 9.18329C88.4252 9.6219 88.4071 9.97276 88.3883 10.2359C88.3883 10.4991 88.3883 10.8851 88.3883 11.3938C88.3883 11.9026 88.3883 12.2885 88.3883 12.5517C88.4071 12.8149 88.4252 13.1657 88.444 13.6043C88.4627 14.043 88.4996 14.3851 88.5552 14.6307C88.6297 14.8587 88.7131 15.1043 88.8056 15.3675C88.9169 15.6131 89.056 15.7973 89.2229 15.9201ZM93.2009 21.7359C92.6814 21.7359 91.5874 21.8938 89.9183 22.2096C88.2492 22.5254 87.1177 22.7009 86.5245 22.7359C87.5628 23.9114 88.9635 24.4991 90.7251 24.4991C91.6896 24.4991 92.5889 24.3149 93.4234 23.9464C94.2767 23.5956 94.7031 23.1833 94.7031 22.7096C94.7031 22.0605 94.2023 21.7359 93.2009 21.7359ZM104.856 8.3675H104.995C105.291 7.73592 105.709 7.22717 106.247 6.84118C106.784 6.43767 107.433 6.23592 108.194 6.23592C108.973 6.23592 109.631 6.48153 110.169 6.97276C110.726 7.44644 111.004 8.02539 111.004 8.7096C111.004 9.39381 110.79 9.96401 110.364 10.4201C109.937 10.8762 109.39 11.1043 108.723 11.1043C108.055 11.1043 107.508 10.9201 107.081 10.5517C106.673 10.1833 106.469 9.72717 106.469 9.18329C106.469 8.6219 106.636 8.16572 106.97 7.81486C107.322 7.44644 107.758 7.26223 108.278 7.26223C108.796 7.26223 109.214 7.43769 109.529 7.78855C109.678 8.05171 109.826 8.18329 109.975 8.18329C110.141 8.18329 110.225 8.10434 110.225 7.94644C110.225 7.84118 110.169 7.7096 110.058 7.55171C109.613 6.99032 108.982 6.7096 108.166 6.7096C105.885 6.7096 104.745 8.8675 104.745 13.1833V18.4201H106.831V18.8412H97.8736V18.4201H99.5984V7.15697H97.6233V6.73592H99.2924C101.313 6.73592 103.168 6.56925 104.856 6.23592V8.3675ZM119.977 14.8675V12.4201C119.903 12.4201 119.837 12.4201 119.782 12.4201C118.91 12.4201 118.178 12.6482 117.584 13.1043C116.991 13.543 116.694 14.2535 116.694 15.2359C116.694 16.2009 116.843 16.9114 117.139 17.3675C117.436 17.8061 117.835 18.0254 118.335 18.0254C118.836 18.0254 119.235 17.692 119.531 17.0254C119.828 16.3587 119.977 15.6394 119.977 14.8675ZM125.735 17.8412C126.44 17.8412 126.894 16.964 127.098 15.2096L127.599 15.2622C127.247 17.9815 125.957 19.3412 123.732 19.3412C122.805 19.3412 122.054 19.0517 121.479 18.4728C120.904 17.8762 120.58 17.1657 120.505 16.3412H120.338C120.079 17.2885 119.643 18.0254 119.031 18.5517C118.419 19.078 117.445 19.3412 116.11 19.3412C114.793 19.3412 113.681 19.0693 112.772 18.5254C111.881 17.964 111.436 17.078 111.436 15.8675C111.436 13.2535 114.284 11.9464 119.977 11.9464V11.078C119.977 9.37625 119.754 8.25348 119.309 7.7096C119.105 7.46401 118.799 7.24467 118.391 7.05171C118.001 6.85875 117.529 6.76223 116.972 6.76223C115.915 6.76223 114.979 6.99032 114.163 7.44644C113.366 7.90256 112.966 8.40256 112.966 8.94644C112.966 9.10434 113.05 9.18329 113.217 9.18329C113.328 9.18329 113.402 9.15697 113.439 9.10434C113.477 9.03414 113.505 8.97276 113.523 8.92013C113.542 8.84993 113.56 8.7973 113.578 8.76223C113.597 8.7096 113.634 8.63065 113.69 8.52539C113.764 8.42013 113.931 8.2798 114.19 8.10434C114.45 7.92888 114.802 7.84118 115.247 7.84118C115.693 7.84118 116.073 8.03414 116.388 8.42013C116.722 8.78855 116.889 9.24467 116.889 9.78855C116.889 10.3324 116.676 10.7973 116.249 11.1833C115.823 11.5517 115.285 11.7359 114.635 11.7359C113.987 11.7359 113.43 11.5254 112.966 11.1043C112.521 10.6657 112.299 10.1394 112.299 9.52539C112.299 8.50782 112.79 7.7096 113.773 7.13065C114.756 6.53416 116.165 6.23592 118.001 6.23592C119.856 6.23592 121.331 6.46399 122.425 6.92013C123.519 7.37625 124.261 8.02539 124.65 8.8675C125.039 9.69204 125.234 10.8324 125.234 12.2885V16.7622C125.234 17.4815 125.401 17.8412 125.735 17.8412ZM146.836 6.23592C148.43 6.23592 149.553 6.7096 150.202 7.65697C150.851 8.58677 151.175 9.92013 151.175 11.657V18.4201H152.9V18.8412H144.304V18.4201H146.029V12.7622C146.029 10.9728 145.946 9.67453 145.779 8.8675C145.612 8.06046 145.241 7.65697 144.666 7.65697C144.017 7.65697 143.525 8.31486 143.192 9.63065C142.858 10.9289 142.691 12.3675 142.691 13.9464V18.8412H136.404V18.4201H138.129V12.7622C138.129 10.9728 138.045 9.67453 137.878 8.8675C137.711 8.06046 137.341 7.65697 136.766 7.65697C136.117 7.65697 135.625 8.31486 135.291 9.63065C134.957 10.9289 134.79 12.3675 134.79 13.9464V18.8412H127.919V18.4201H129.644V7.15697H127.669V6.73592H129.338C131.36 6.73592 133.214 6.56925 134.902 6.23592V8.81486H135.041C135.764 7.09559 137.062 6.23592 138.935 6.23592C140.827 6.23592 142.107 7.10434 142.774 8.84118L142.802 8.81486H142.941C143.664 7.09559 144.963 6.23592 146.836 6.23592Z" fill="#FF6C00"/>
</g>
<defs>
<clipPath id="clip0_2717_19854">
<rect width="153" height="25" fill="white"/>
</clipPath>
</defs>
</svg>

