<svg width="115" height="24" viewBox="0 0 115 24" fill="none" xmlns="http://www.w3.org/2000/svg">
<path d="M7.19322 17.4001H7.98179C9.41556 17.4001 10.4829 16.7922 11.1839 15.5761C11.8848 14.3441 12.2353 12.2721 12.2353 9.36014C12.2353 6.44815 11.8769 4.43215 11.16 3.31214C10.459 2.17615 9.45539 1.60814 8.14906 1.60814H7.19322V17.4001ZM8.45971 17.7841H0.789062V17.4001H2.31841V1.60814H0.789062V1.20014H8.22075C11.4547 1.20014 13.8124 1.92814 15.294 3.38414C16.7915 4.82414 17.5402 6.79214 17.5402 9.28814C17.5402 11.7361 16.8552 13.7281 15.4852 15.2641C14.7842 16.0641 13.8363 16.6881 12.6415 17.1361C11.4467 17.5681 10.0528 17.7841 8.45971 17.7841ZM20.2338 7.12814H18.5371V6.74414H19.9709C21.7074 6.74414 23.3004 6.59215 24.7501 6.28814V17.4001H26.2317V17.7841H18.7522V17.4001H20.2338V7.12814ZM22.48 5.28014C21.8587 5.28014 21.3251 5.06414 20.879 4.63214C20.4488 4.18414 20.2338 3.64814 20.2338 3.02414C20.2338 2.38414 20.4488 1.84814 20.879 1.41614C21.3251 0.968142 21.8666 0.744141 22.5039 0.744141C23.1412 0.744141 23.6748 0.968142 24.1049 1.41614C24.5351 1.84814 24.7501 2.38414 24.7501 3.02414C24.7501 3.64814 24.5272 4.18414 24.081 4.63214C23.6509 5.06414 23.1173 5.28014 22.48 5.28014ZM36.6912 7.58414C36.5 7.39214 36.1574 7.21615 35.6636 7.05614C35.1857 6.88015 34.5962 6.79214 33.8953 6.79214C33.1943 6.79214 32.6129 6.95215 32.1509 7.27214C31.6888 7.57615 31.4579 7.98415 31.4579 8.49614C31.4579 8.99215 31.6888 9.43214 32.1509 9.81614C32.6129 10.1841 33.1704 10.5201 33.8236 10.8241C34.4767 11.1121 35.1299 11.4321 35.7831 11.7841C36.4522 12.1201 37.0177 12.5521 37.4797 13.0801C37.9417 13.6081 38.1727 14.2081 38.1727 14.8801C38.1727 15.9042 37.647 16.7202 36.5956 17.3281C35.56 17.9361 33.9988 18.2401 31.9119 18.2401C30.9719 18.2401 30.0161 18.0721 29.0444 17.7361C28.5505 17.5602 28.1443 17.2881 27.8257 16.9201C27.523 16.5361 27.3717 16.0641 27.3717 15.5041C27.3717 14.9441 27.5548 14.4641 27.9213 14.0641C28.2877 13.6481 28.7577 13.4401 29.3312 13.4401C29.9047 13.4401 30.3666 13.6081 30.7171 13.9441C31.0675 14.2641 31.2429 14.6801 31.2429 15.1921C31.2429 15.7041 31.0914 16.1202 30.7888 16.4401C30.5021 16.7442 30.1436 16.8961 29.7135 16.8961C29.2992 16.8961 28.9408 16.7442 28.6382 16.4401C28.6062 16.4082 28.5823 16.3842 28.5665 16.3681C28.5505 16.3362 28.5345 16.3122 28.5187 16.2961C28.5027 16.2801 28.4867 16.2642 28.4709 16.2481C28.4071 16.2162 28.3514 16.2001 28.3036 16.2001C28.1761 16.2001 28.1125 16.2721 28.1125 16.4161C28.1125 16.5601 28.2319 16.7361 28.4709 16.9441C28.7257 17.1522 29.14 17.3442 29.7135 17.5201C30.287 17.6961 30.9322 17.7841 31.6491 17.7841C32.3818 17.7841 33.0031 17.6641 33.513 17.4241C34.0387 17.1681 34.3016 16.8081 34.3016 16.3441C34.3016 15.8641 34.0705 15.4242 33.6086 15.0241C33.1465 14.6081 32.581 14.2321 31.9119 13.8961C31.2587 13.5441 30.5977 13.1841 29.9286 12.8161C29.2595 12.4481 28.6939 12.0081 28.2319 11.4961C27.7699 10.9681 27.539 10.4001 27.539 9.79214C27.539 8.78414 28.0009 7.95214 28.9249 7.29614C29.8648 6.64015 31.3225 6.31214 33.2979 6.31214C34.7635 6.31214 35.8627 6.56014 36.5956 7.05614C37.3283 7.53614 37.6948 8.17615 37.6948 8.97614C37.6948 9.56815 37.5116 10.0721 37.1452 10.4881C36.7787 10.8881 36.3088 11.0881 35.7353 11.0881C35.1776 11.0881 34.7236 10.9201 34.3732 10.5841C34.0227 10.2481 33.8475 9.83215 33.8475 9.33614C33.8475 8.82415 33.9909 8.40814 34.2777 8.08814C34.5644 7.76815 34.9229 7.60814 35.353 7.60814C35.7989 7.60814 36.1177 7.72814 36.3088 7.96814C36.5158 8.19214 36.6673 8.30414 36.7629 8.30414C36.9062 8.30414 36.9779 8.23214 36.9779 8.08814C36.9779 7.94414 36.8823 7.77614 36.6912 7.58414ZM46.6685 17.5681C47.449 17.5681 48.1262 17.2561 48.6997 16.6321C49.2732 16.0081 49.6475 15.2322 49.8228 14.3041L49.8706 14.0641H50.3007C50.1574 15.2961 49.6794 16.3041 48.867 17.0881C48.0545 17.8561 47.0509 18.2401 45.8561 18.2401C43.9124 18.2401 42.3831 17.7201 41.268 16.6801C40.1528 15.6402 39.5953 14.1761 39.5953 12.2881C39.5953 10.3841 40.1607 8.91214 41.2919 7.87214C42.4389 6.81614 43.9762 6.28814 45.9037 6.28814C47.2579 6.28814 48.2935 6.62414 49.0104 7.29614C49.7431 7.96814 50.1096 8.67214 50.1096 9.40814C50.1096 10.1441 49.9184 10.7121 49.5361 11.1121C49.1696 11.5121 48.6997 11.7121 48.1262 11.7121C47.5527 11.7121 47.0827 11.5361 46.7163 11.1841C46.3658 10.8321 46.1906 10.4081 46.1906 9.91214C46.1906 9.40015 46.334 8.98414 46.6207 8.66414C46.9233 8.32814 47.3137 8.16014 47.7917 8.16014C48.4607 8.16014 48.8988 8.48014 49.1059 9.12014C49.1696 9.32815 49.2572 9.43214 49.3688 9.43214C49.5122 9.43214 49.5839 9.35215 49.5839 9.19214C49.5839 9.14414 49.5679 9.05614 49.5361 8.92814C49.09 7.61614 48.142 6.96014 46.6924 6.96014C46.2623 6.96014 45.8958 7.08014 45.5932 7.32014C45.2905 7.54414 45.0594 7.80814 44.9002 8.11214C44.7568 8.41615 44.6453 8.83214 44.5657 9.36014C44.4701 10.0161 44.4223 10.8321 44.4223 11.8081C44.4223 12.7841 44.4302 13.5201 44.4462 14.0161C44.478 14.5121 44.5337 15.0081 44.6135 15.5041C44.6931 16.0002 44.8126 16.3842 44.9719 16.6561C45.3223 17.2641 45.8879 17.5681 46.6685 17.5681ZM57.0917 8.23214H57.2112C57.466 7.65614 57.8244 7.19215 58.2865 6.84014C58.7485 6.47215 59.306 6.28814 59.9593 6.28814C60.6283 6.28814 61.1938 6.51214 61.6559 6.96014C62.1338 7.39214 62.3728 7.92014 62.3728 8.54414C62.3728 9.16814 62.1895 9.68815 61.8231 10.1041C61.4566 10.5201 60.9868 10.7281 60.4133 10.7281C59.8398 10.7281 59.3698 10.5601 59.0034 10.2241C58.6529 9.88814 58.4777 9.47215 58.4777 8.97614C58.4777 8.46415 58.6211 8.04814 58.9078 7.72814C59.2104 7.39214 59.5848 7.22414 60.0309 7.22414C60.4769 7.22414 60.8353 7.38415 61.1063 7.70414C61.2337 7.94414 61.3611 8.06414 61.4886 8.06414C61.632 8.06414 61.7037 7.99214 61.7037 7.84814C61.7037 7.75214 61.6559 7.63214 61.5603 7.48814C61.178 6.97615 60.6363 6.72014 59.9354 6.72014C57.9759 6.72014 56.9961 8.68814 56.9961 12.6241V17.4001H58.7883V17.7841H51.0938V17.4001H52.5754V7.12814H50.8787V6.74414H52.3125C54.0488 6.74414 55.642 6.59215 57.0917 6.28814V8.23214ZM64.0589 7.12814H62.3623V6.74414H63.7961C65.5324 6.74414 67.1255 6.59215 68.5753 6.28814V17.4001H70.0568V17.7841H62.5774V17.4001H64.0589V7.12814ZM66.3052 5.28014C65.6839 5.28014 65.1501 5.06414 64.7041 4.63214C64.274 4.18414 64.0589 3.64814 64.0589 3.02414C64.0589 2.38414 64.274 1.84814 64.7041 1.41614C65.1501 0.968142 65.6918 0.744141 66.3291 0.744141C66.9662 0.744141 67.5 0.968142 67.9301 1.41614C68.3602 1.84814 68.5753 2.38414 68.5753 3.02414C68.5753 3.64814 68.3522 4.18414 67.9062 4.63214C67.4761 5.06414 66.9423 5.28014 66.3052 5.28014ZM76.645 16.5121V22.5361H78.4372V22.9201H70.6471V22.5361H72.1286V7.12814H70.432V6.74414H71.8658C73.6023 6.74414 75.1953 6.59215 76.645 6.28814V8.40014H76.7645C77.0672 7.63214 77.4814 7.08814 78.0071 6.76814C78.5488 6.44815 79.2497 6.28814 80.1099 6.28814C81.6075 6.28814 82.6986 6.84014 83.3837 7.94414C84.0846 9.04814 84.4351 10.4721 84.4351 12.2161C84.4351 13.9601 84.0368 15.4002 83.2403 16.5361C82.4597 17.6562 81.3207 18.2161 79.8232 18.2161C78.3416 18.2161 77.322 17.6481 76.7645 16.5121H76.645ZM76.5494 12.2401V12.8881C76.5494 14.2961 76.7327 15.3921 77.099 16.1761C77.4654 16.9441 77.8876 17.3281 78.3655 17.3281C79.194 17.3281 79.6081 15.6321 79.6081 12.2401C79.6081 10.5441 79.5205 9.31214 79.3453 8.54414C79.1859 7.76014 78.8594 7.36814 78.3655 7.36814C77.792 7.36814 77.3459 7.87214 77.0273 8.88014C76.7088 9.88814 76.5494 11.0081 76.5494 12.2401Z" fill="#1D1D1D"/>
<path d="M92.0563 16.8712C92.6616 16.8712 93.0518 16.0713 93.2272 14.4712L93.6573 14.5192C93.5139 15.7032 93.1794 16.6233 92.6537 17.2792C92.128 17.9193 91.3473 18.2392 90.3119 18.2392C88.177 18.2392 87.1098 17.0712 87.1098 14.7352V7.12723H85.8672V6.74323H86.0345C86.7832 6.74323 87.7151 6.45523 88.8303 5.87923C89.3878 5.59123 89.8976 5.15923 90.3597 4.58323C90.8216 4.00723 91.1402 3.35124 91.3155 2.61523H91.6261V6.74323H93.8485V7.12723H91.6261V15.8872C91.6261 16.5432 91.7695 16.8712 92.0563 16.8712ZM105.777 16.6072C104.614 17.6952 103.092 18.2392 101.212 18.2392C99.3325 18.2392 97.8112 17.6952 96.6482 16.6072C95.4852 15.5032 94.9038 14.0552 94.9038 12.2632C94.9038 10.4712 95.4852 9.03123 96.6482 7.94323C97.8112 6.83923 99.3325 6.28723 101.212 6.28723C103.092 6.28723 104.614 6.83923 105.777 7.94323C106.94 9.03123 107.521 10.4712 107.521 12.2632C107.521 14.0552 106.94 15.5032 105.777 16.6072ZM102.359 16.6072C102.582 15.7912 102.694 14.3432 102.694 12.2632C102.694 10.1832 102.582 8.74323 102.359 7.94323C102.152 7.12723 101.77 6.71923 101.212 6.71923C100.655 6.71923 100.264 7.12723 100.041 7.94323C99.8343 8.74323 99.7308 10.1832 99.7308 12.2632C99.7308 14.3432 99.8343 15.7912 100.041 16.6072C100.264 17.4072 100.655 17.8072 101.212 17.8072C101.77 17.8072 102.152 17.4072 102.359 16.6072Z" fill="#1D1D1D"/>
<path d="M111.746 18.2391C111.125 18.2391 110.591 18.0231 110.145 17.5911C109.715 17.1431 109.5 16.6071 109.5 15.9831C109.5 15.3431 109.715 14.8071 110.145 14.3751C110.591 13.9271 111.133 13.7031 111.77 13.7031C112.407 13.7031 112.941 13.9271 113.371 14.3751C113.801 14.8071 114.016 15.3431 114.016 15.9831C114.016 16.6071 113.793 17.1431 113.347 17.5911C112.917 18.0231 112.383 18.2391 111.746 18.2391Z" fill="#FF6C00"/>
</svg>
