<svg width="153" height="26" viewBox="0 0 153 26" fill="none" xmlns="http://www.w3.org/2000/svg">
<g clip-path="url(#clip0_1296_28225)">
<path d="M4.56051 3.8948V14.2369C4.56051 15.7457 4.62541 16.772 4.75523 17.3159C4.88505 17.8597 5.06123 18.2106 5.28378 18.3685C5.78451 18.7369 6.59123 18.9211 7.70396 18.9211H8.3716V19.3422H0.554688V18.9211H0.860687C1.93633 18.8861 2.74305 18.6667 3.28087 18.2632C3.65178 17.9474 3.87432 17.2106 3.94851 16.0527C3.98559 15.6316 4.00414 15.0176 4.00414 14.2106V3.47375C4.00414 2.73691 3.80014 2.23691 3.39214 1.97375C2.98414 1.71059 2.33505 1.57901 1.44487 1.57901V1.15796H9.87378L14.6863 13.0527L18.7756 1.15796H25.8971V1.57901H24.1167V18.9211H25.8971V19.3422H16.8283V18.9211H18.6087V3.8948H18.414L13.1007 19.3422H12.5721C11.4965 19.3422 10.6991 18.693 10.1798 17.3948L4.67178 3.8948H4.56051ZM29.0998 7.65796H27.1247V7.23691H28.7938C30.8153 7.23691 32.6698 7.07024 34.3575 6.73691V18.9211H36.0822V19.3422H27.3751V18.9211H29.0998V7.65796ZM31.7147 5.63164C30.9915 5.63164 30.3702 5.3948 29.8509 4.92112C29.3502 4.42989 29.0998 3.84217 29.0998 3.15796C29.0998 2.4562 29.3502 1.86849 29.8509 1.3948C30.3702 0.903573 31.0007 0.657959 31.7426 0.657959C32.4844 0.657959 33.1056 0.903573 33.6064 1.3948C34.1071 1.86849 34.3575 2.4562 34.3575 3.15796C34.3575 3.84217 34.0979 4.42989 33.5786 4.92112C33.0778 5.3948 32.4566 5.63164 31.7147 5.63164ZM38.6054 7.65796H36.6303V7.23691H38.2994C40.3208 7.23691 42.1754 7.07024 43.863 6.73691V9.31586H44.0021C44.7254 7.59658 46.0236 6.73691 47.8966 6.73691C49.4916 6.73691 50.6136 7.21059 51.2626 8.15796C51.9118 9.08776 52.2363 10.4211 52.2363 12.158V18.9211H53.961V19.3422H45.3652V18.9211H47.0899V13.2632C47.0899 11.4737 47.0065 10.1755 46.8396 9.36849C46.6726 8.56145 46.3018 8.15796 45.7268 8.15796C45.0778 8.15796 44.5863 8.81586 44.2525 10.1316C43.9186 11.4299 43.7517 12.8685 43.7517 14.4474V19.3422H36.8806V18.9211H38.6054V7.65796ZM60.5461 14.3422C60.5461 15.9387 60.7501 17.1492 61.1581 17.9737C61.5846 18.7983 62.3543 19.2106 63.467 19.2106C64.5983 19.2106 65.572 18.8685 66.3879 18.1843C67.2225 17.5001 67.7603 16.579 68.0014 15.4211L68.057 15.1843L68.5578 15.2632C68.2981 16.7018 67.6583 17.8246 66.6383 18.6316C65.6183 19.4387 64.2923 19.8422 62.6603 19.8422C60.1937 19.8422 58.2836 19.2895 56.9298 18.1843C55.5759 17.0614 54.899 15.4562 54.899 13.3685C54.899 11.2808 55.5481 9.65796 56.8463 8.50007C58.1445 7.3246 59.9063 6.73691 62.1318 6.73691C63.9492 6.73691 65.4607 7.06147 66.6661 7.71059C67.8901 8.34217 68.5021 9.3246 68.5021 10.658C68.5021 11.9913 67.9365 12.9387 66.8052 13.5001C65.6739 14.0614 64.1996 14.3422 62.3821 14.3422H60.5461ZM60.5183 11.9738V13.8685H61.2138C62.0483 13.8685 62.6232 13.6053 62.9385 13.079C63.2723 12.5351 63.4392 11.7457 63.4392 10.7106C63.4392 8.37724 63.0034 7.21059 62.1318 7.21059C61.5568 7.21059 61.1396 7.52638 60.8799 8.15796C60.6388 8.78954 60.5183 10.0614 60.5183 11.9738ZM76.49 8.86849H76.6291C76.9253 8.23691 77.3426 7.72816 77.8809 7.34217C78.4185 6.93866 79.0673 6.73691 79.8282 6.73691C80.6071 6.73691 81.265 6.98252 81.8032 7.47375C82.3596 7.94743 82.6378 8.52638 82.6378 9.21059C82.6378 9.8948 82.4243 10.465 81.998 10.9211C81.571 11.3772 81.0243 11.6053 80.3567 11.6053C79.6891 11.6053 79.1417 11.4211 78.7154 11.0527C78.3072 10.6843 78.1034 10.2282 78.1034 9.68428C78.1034 9.12289 78.2703 8.66671 78.6042 8.31586C78.9561 7.94743 79.3921 7.76322 79.9116 7.76322C80.4304 7.76322 80.8477 7.93868 81.1634 8.28954C81.3116 8.5527 81.4597 8.68428 81.6085 8.68428C81.7754 8.68428 81.8589 8.60533 81.8589 8.44743C81.8589 8.34217 81.8033 8.21059 81.692 8.0527C81.2469 7.49132 80.6161 7.21059 79.8003 7.21059C77.5192 7.21059 76.3787 9.36849 76.3787 13.6843V18.9211H78.4651V19.3422H69.5073V18.9211H71.2323V7.65796H69.2569V7.23691H70.9263C72.9473 7.23691 74.8021 7.07024 76.49 6.73691V8.86849Z" fill="#1D1D1D"/>
<path d="M83.4645 11.8948C83.4645 10.2456 84.0856 8.97374 85.3283 8.079C86.5711 7.18426 88.0823 6.73689 89.8627 6.73689C90.4378 6.73689 91.0032 6.78953 91.5596 6.89479C91.0957 6.40356 90.8641 5.80707 90.8641 5.10531C90.8641 4.40356 91.1145 3.79829 91.6152 3.28952C92.1347 2.78076 92.7558 2.52637 93.4791 2.52637C94.2211 2.52637 94.8331 2.72812 95.3151 3.13163C95.797 3.53514 96.0383 4.05268 96.0383 4.68426C96.0383 5.31584 95.8436 5.83339 95.4541 6.23689C95.0647 6.62286 94.573 6.81584 93.9798 6.81584C93.4046 6.81584 92.9227 6.65795 92.5332 6.34216C92.1626 6.00882 91.9769 5.58777 91.9769 5.079C91.9769 4.57023 92.1626 4.16672 92.5332 3.86847C92.8114 3.74566 92.9505 3.60531 92.9505 3.44742C92.9505 3.28953 92.8671 3.21058 92.7001 3.21058C92.5889 3.21058 92.4498 3.26321 92.2829 3.36847C91.6709 3.80707 91.3649 4.39479 91.3649 5.13163C91.3649 6.06145 91.9303 6.79829 93.0618 7.34216C95.1947 8.21933 96.2609 9.73689 96.2609 11.8948C96.2609 13.5439 95.6398 14.8158 94.3971 15.7106C93.1543 16.6053 91.6431 17.0527 89.8627 17.0527C88.6387 17.0527 87.5447 16.8509 86.5801 16.4474C85.393 16.9211 84.7998 17.4124 84.7998 17.9211C84.7998 18.272 84.9479 18.5088 85.2449 18.6316C85.5418 18.7369 86.0516 18.7895 86.7749 18.7895C87.4981 18.7895 88.6477 18.6141 90.2243 18.2632C91.819 17.9124 92.8671 17.7369 93.3678 17.7369C94.4437 17.7369 95.2963 18.0001 95.927 18.5264C96.5578 19.0527 96.8729 19.7456 96.8729 20.6053C96.8729 21.9562 96.2699 23.1053 95.0647 24.0527C93.8595 25.0001 92.4129 25.4737 90.7251 25.4737C88.7221 25.4737 87.0899 24.7281 85.8291 23.2369C84.9201 23.1667 84.1878 22.8422 83.6314 22.2632C83.0751 21.6843 82.7969 20.9825 82.7969 20.1579C82.7969 19.3509 83.0751 18.5877 83.6314 17.8685C84.2066 17.1492 85.0036 16.579 86.0238 16.1579C84.3178 15.2456 83.4645 13.8246 83.4645 11.8948ZM89.2229 16.4211C89.4086 16.5264 89.6214 16.579 89.8627 16.579C90.104 16.579 90.3078 16.5264 90.4747 16.4211C90.6604 16.2983 90.7995 16.1141 90.892 15.8685C91.0032 15.6053 91.0867 15.3597 91.1423 15.1316C91.2167 14.886 91.2626 14.5439 91.2814 14.1053C91.3002 13.6667 91.3092 13.3158 91.3092 13.0527C91.328 12.7895 91.3371 12.4035 91.3371 11.8948C91.3371 11.386 91.328 11.0001 91.3092 10.7369C91.3092 10.4737 91.3002 10.1229 91.2814 9.68426C91.2626 9.24564 91.2167 8.91235 91.1423 8.68426C91.0867 8.43867 91.0032 8.19301 90.892 7.94742C90.7995 7.68426 90.6604 7.50005 90.4747 7.39479C90.3078 7.27196 90.104 7.21058 89.8627 7.21058C89.6214 7.21058 89.4086 7.27196 89.2229 7.39479C89.056 7.50005 88.9169 7.68426 88.8056 7.94742C88.7131 8.19301 88.6297 8.43867 88.5552 8.68426C88.4996 8.91235 88.4627 9.24564 88.444 9.68426C88.4252 10.1229 88.4071 10.4737 88.3883 10.7369C88.3883 11.0001 88.3883 11.386 88.3883 11.8948C88.3883 12.4035 88.3883 12.7895 88.3883 13.0527C88.4071 13.3158 88.4252 13.6667 88.444 14.1053C88.4627 14.5439 88.4996 14.886 88.5552 15.1316C88.6297 15.3597 88.7131 15.6053 88.8056 15.8685C88.9169 16.1141 89.056 16.2983 89.2229 16.4211ZM93.2009 22.2369C92.6814 22.2369 91.5874 22.3948 89.9183 22.7106C88.2492 23.0264 87.1177 23.2018 86.5245 23.2369C87.5628 24.4124 88.9635 25.0001 90.7251 25.0001C91.6896 25.0001 92.5889 24.8158 93.4234 24.4474C94.2767 24.0966 94.7031 23.6843 94.7031 23.2106C94.7031 22.5614 94.2023 22.2369 93.2009 22.2369ZM104.856 8.86847H104.995C105.291 8.23689 105.709 7.72814 106.247 7.34216C106.784 6.93865 107.433 6.73689 108.194 6.73689C108.973 6.73689 109.631 6.98251 110.169 7.47374C110.726 7.94742 111.004 8.52637 111.004 9.21058C111.004 9.89479 110.79 10.465 110.364 10.9211C109.937 11.3772 109.39 11.6053 108.723 11.6053C108.055 11.6053 107.508 11.4211 107.081 11.0527C106.673 10.6843 106.469 10.2281 106.469 9.68426C106.469 9.12288 106.636 8.6667 106.97 8.31584C107.322 7.94742 107.758 7.76321 108.278 7.76321C108.796 7.76321 109.214 7.93867 109.529 8.28953C109.678 8.55268 109.826 8.68426 109.975 8.68426C110.141 8.68426 110.225 8.60531 110.225 8.44742C110.225 8.34216 110.169 8.21058 110.058 8.05268C109.613 7.4913 108.982 7.21058 108.166 7.21058C105.885 7.21058 104.745 9.36847 104.745 13.6843V18.9211H106.831V19.3422H97.8736V18.9211H99.5984V7.65795H97.6233V7.23689H99.2924C101.313 7.23689 103.168 7.07023 104.856 6.73689V8.86847ZM119.977 15.3685V12.9211C119.903 12.9211 119.837 12.9211 119.782 12.9211C118.91 12.9211 118.178 13.1492 117.584 13.6053C116.991 14.0439 116.694 14.7545 116.694 15.7369C116.694 16.7018 116.843 17.4124 117.139 17.8685C117.436 18.3071 117.835 18.5264 118.335 18.5264C118.836 18.5264 119.235 18.193 119.531 17.5264C119.828 16.8597 119.977 16.1404 119.977 15.3685ZM125.735 18.3422C126.44 18.3422 126.894 17.465 127.098 15.7106L127.599 15.7632C127.247 18.4825 125.957 19.8422 123.732 19.8422C122.805 19.8422 122.054 19.5527 121.479 18.9737C120.904 18.3772 120.58 17.6667 120.505 16.8422H120.338C120.079 17.7895 119.643 18.5264 119.031 19.0527C118.419 19.579 117.445 19.8422 116.11 19.8422C114.793 19.8422 113.681 19.5702 112.772 19.0264C111.881 18.465 111.436 17.579 111.436 16.3685C111.436 13.7545 114.284 12.4474 119.977 12.4474V11.579C119.977 9.87722 119.754 8.75446 119.309 8.21058C119.105 7.96499 118.799 7.74564 118.391 7.55268C118.001 7.35972 117.529 7.26321 116.972 7.26321C115.915 7.26321 114.979 7.4913 114.163 7.94742C113.366 8.40354 112.966 8.90354 112.966 9.44742C112.966 9.60531 113.05 9.68426 113.217 9.68426C113.328 9.68426 113.402 9.65795 113.439 9.60531C113.477 9.53512 113.505 9.47374 113.523 9.4211C113.542 9.35091 113.56 9.29827 113.578 9.26321C113.597 9.21058 113.634 9.13163 113.69 9.02637C113.764 8.9211 113.931 8.78078 114.19 8.60531C114.45 8.42985 114.802 8.34216 115.247 8.34216C115.693 8.34216 116.073 8.53512 116.388 8.9211C116.722 9.28953 116.889 9.74564 116.889 10.2895C116.889 10.8334 116.676 11.2983 116.249 11.6843C115.823 12.0527 115.285 12.2369 114.635 12.2369C113.987 12.2369 113.43 12.0264 112.966 11.6053C112.521 11.1667 112.299 10.6404 112.299 10.0264C112.299 9.0088 112.79 8.21058 113.773 7.63163C114.756 7.03514 116.165 6.73689 118.001 6.73689C119.856 6.73689 121.331 6.96497 122.425 7.4211C123.519 7.87722 124.261 8.52637 124.65 9.36847C125.039 10.193 125.234 11.3334 125.234 12.7895V17.2632C125.234 17.9825 125.401 18.3422 125.735 18.3422ZM146.836 6.73689C148.43 6.73689 149.553 7.21058 150.202 8.15795C150.851 9.08775 151.175 10.4211 151.175 12.1579V18.9211H152.9V19.3422H144.304V18.9211H146.029V13.2632C146.029 11.4737 145.946 10.1755 145.779 9.36847C145.612 8.56143 145.241 8.15795 144.666 8.15795C144.017 8.15795 143.525 8.81584 143.192 10.1316C142.858 11.4299 142.691 12.8685 142.691 14.4474V19.3422H136.404V18.9211H138.129V13.2632C138.129 11.4737 138.045 10.1755 137.878 9.36847C137.711 8.56143 137.341 8.15795 136.766 8.15795C136.117 8.15795 135.625 8.81584 135.291 10.1316C134.957 11.4299 134.79 12.8685 134.79 14.4474V19.3422H127.919V18.9211H129.644V7.65795H127.669V7.23689H129.338C131.36 7.23689 133.214 7.07023 134.902 6.73689V9.31584H135.041C135.764 7.59656 137.062 6.73689 138.935 6.73689C140.827 6.73689 142.107 7.60531 142.774 9.34216L142.802 9.31584H142.941C143.664 7.59656 144.963 6.73689 146.836 6.73689Z" fill="#FF6C00"/>
</g>
<defs>
<clipPath id="clip0_1296_28225">
<rect width="153" height="25" fill="white" transform="translate(0 0.5)"/>
</clipPath>
</defs>
</svg>
