<svg width="153" height="26" viewBox="0 0 153 26" fill="none" xmlns="http://www.w3.org/2000/svg">
<g clip-path="url(#clip0_1401_69748)">
<path d="M4.56221 3.89456V14.2367C4.56221 15.7454 4.62712 16.7717 4.75694 17.3156C4.88676 17.8595 5.06294 18.2103 5.28549 18.3682C5.78621 18.7367 6.59294 18.9209 7.70567 18.9209H8.37331V19.3419H0.556396V18.9209H0.862396C1.93804 18.8858 2.74476 18.6665 3.28258 18.263C3.65349 17.9472 3.87603 17.2103 3.95021 16.0525C3.9873 15.6314 4.00585 15.0174 4.00585 14.2103V3.47351C4.00585 2.73666 3.80185 2.23666 3.39385 1.97351C2.98585 1.71035 2.33676 1.57877 1.44658 1.57877V1.15771H9.87549L14.688 13.0525L18.7773 1.15771H25.8988V1.57877H24.1184V18.9209H25.8988V19.3419H16.83V18.9209H18.6104V3.89456H18.4157L13.1024 19.3419H12.5739C11.4982 19.3419 10.7008 18.6928 10.1815 17.3946L4.67349 3.89456H4.56221ZM29.1015 7.65772H27.1264V7.23666H28.7955C30.817 7.23666 32.6715 7.07 34.3592 6.73666V18.9209H36.0839V19.3419H27.3768V18.9209H29.1015V7.65772ZM31.7164 5.6314C30.9932 5.6314 30.3719 5.39456 29.8526 4.92087C29.3519 4.42964 29.1015 3.84193 29.1015 3.15772C29.1015 2.45596 29.3519 1.86824 29.8526 1.39456C30.3719 0.903329 31.0024 0.657715 31.7443 0.657715C32.4861 0.657715 33.1074 0.903329 33.6081 1.39456C34.1088 1.86824 34.3592 2.45596 34.3592 3.15772C34.3592 3.84193 34.0996 4.42964 33.5803 4.92087C33.0795 5.39456 32.4583 5.6314 31.7164 5.6314ZM38.6071 7.65772H36.632V7.23666H38.3011C40.3226 7.23666 42.1771 7.07 43.8647 6.73666V9.31561H44.0038C44.7271 7.59633 46.0253 6.73666 47.8983 6.73666C49.4933 6.73666 50.6153 7.21035 51.2644 8.15772C51.9135 9.08752 52.238 10.4209 52.238 12.1577V18.9209H53.9627V19.3419H45.3669V18.9209H47.0916V13.263C47.0916 11.4735 47.0082 10.1753 46.8413 9.36824C46.6744 8.5612 46.3035 8.15772 45.7285 8.15772C45.0795 8.15772 44.588 8.81561 44.2542 10.1314C43.9204 11.4296 43.7534 12.8682 43.7534 14.4472V19.3419H36.8824V18.9209H38.6071V7.65772ZM60.5478 14.3419C60.5478 15.9384 60.7518 17.149 61.1598 17.9735C61.5864 18.798 62.356 19.2103 63.4687 19.2103C64.6 19.2103 65.5737 18.8682 66.3896 18.184C67.2242 17.4998 67.762 16.5788 68.0031 15.4209L68.0587 15.184L68.5595 15.263C68.2999 16.7016 67.66 17.8244 66.64 18.6314C65.62 19.4384 64.294 19.8419 62.662 19.8419C60.1954 19.8419 58.2853 19.2893 56.9315 18.184C55.5776 17.0612 54.9007 15.4559 54.9007 13.3682C54.9007 11.2805 55.5498 9.65772 56.848 8.49982C58.1462 7.32436 59.908 6.73666 62.1335 6.73666C63.9509 6.73666 65.4624 7.06122 66.6678 7.71035C67.8918 8.34193 68.5038 9.32436 68.5038 10.6577C68.5038 11.9911 67.9382 12.9384 66.8069 13.4998C65.6756 14.0612 64.2013 14.3419 62.3838 14.3419H60.5478ZM60.52 11.9735V13.8682H61.2155C62.05 13.8682 62.6249 13.6051 62.9402 13.0788C63.274 12.5349 63.4409 11.7454 63.4409 10.7103C63.4409 8.37699 63.0051 7.21035 62.1335 7.21035C61.5585 7.21035 61.1413 7.52614 60.8816 8.15772C60.6405 8.7893 60.52 10.0612 60.52 11.9735ZM76.4917 8.86824H76.6308C76.927 8.23666 77.3443 7.72791 77.8826 7.34193C78.4202 6.93842 79.069 6.73666 79.8299 6.73666C80.6088 6.73666 81.2667 6.98228 81.805 7.47351C82.3613 7.94719 82.6395 8.52614 82.6395 9.21035C82.6395 9.89456 82.426 10.4648 81.9997 10.9209C81.5727 11.377 81.026 11.6051 80.3584 11.6051C79.6908 11.6051 79.1435 11.4209 78.7171 11.0525C78.3089 10.684 78.1051 10.2279 78.1051 9.68403C78.1051 9.12265 78.272 8.66647 78.6059 8.31561C78.9578 7.94719 79.3938 7.76298 79.9133 7.76298C80.4321 7.76298 80.8494 7.93844 81.1651 8.2893C81.3133 8.55245 81.4614 8.68403 81.6102 8.68403C81.7771 8.68403 81.8606 8.60508 81.8606 8.44719C81.8606 8.34193 81.805 8.21035 81.6937 8.05245C81.2486 7.49107 80.6178 7.21035 79.802 7.21035C77.521 7.21035 76.3804 9.36824 76.3804 13.684V18.9209H78.4668V19.3419H69.509V18.9209H71.234V7.65772H69.2586V7.23666H70.928C72.949 7.23666 74.8038 7.07 76.4917 6.73666V8.86824Z" fill="#1D1D1D"/>
<path d="M83.4616 11.8948C83.4616 10.2456 84.0826 8.97374 85.3254 8.079C86.5682 7.18426 88.0794 6.73689 89.8598 6.73689C90.4349 6.73689 91.0003 6.78953 91.5567 6.89479C91.0928 6.40356 90.8612 5.80707 90.8612 5.10531C90.8612 4.40356 91.1116 3.79829 91.6123 3.28952C92.1318 2.78076 92.7529 2.52637 93.4761 2.52637C94.2182 2.52637 94.8302 2.72812 95.3121 3.13163C95.7941 3.53514 96.0354 4.05268 96.0354 4.68426C96.0354 5.31584 95.8407 5.83339 95.4512 6.23689C95.0618 6.62286 94.5701 6.81584 93.9769 6.81584C93.4017 6.81584 92.9198 6.65795 92.5303 6.34216C92.1596 6.00882 91.9739 5.58777 91.9739 5.079C91.9739 4.57023 92.1596 4.16672 92.5303 3.86847C92.8085 3.74566 92.9476 3.60531 92.9476 3.44742C92.9476 3.28953 92.8641 3.21058 92.6972 3.21058C92.5859 3.21058 92.4469 3.26321 92.2799 3.36847C91.6679 3.80707 91.3619 4.39479 91.3619 5.13163C91.3619 6.06145 91.9273 6.79829 93.0589 7.34216C95.1918 8.21933 96.2579 9.73689 96.2579 11.8948C96.2579 13.5439 95.6369 14.8158 94.3941 15.7106C93.1513 16.6053 91.6401 17.0527 89.8598 17.0527C88.6358 17.0527 87.5418 16.8509 86.5772 16.4474C85.3901 16.9211 84.7969 17.4124 84.7969 17.9211C84.7969 18.272 84.945 18.5088 85.2419 18.6316C85.5389 18.7369 86.0487 18.7895 86.7719 18.7895C87.4952 18.7895 88.6448 18.6141 90.2214 18.2632C91.8161 17.9124 92.8641 17.7369 93.3649 17.7369C94.4407 17.7369 95.2933 18.0001 95.9241 18.5264C96.5549 19.0527 96.8699 19.7456 96.8699 20.6053C96.8699 21.9562 96.267 23.1053 95.0618 24.0527C93.8565 25.0001 92.41 25.4737 90.7221 25.4737C88.7192 25.4737 87.087 24.7281 85.8261 23.2369C84.9172 23.1667 84.1849 22.8422 83.6285 22.2632C83.0721 21.6843 82.7939 20.9825 82.7939 20.1579C82.7939 19.3509 83.0721 18.5877 83.6285 17.8685C84.2036 17.1492 85.0006 16.579 86.0209 16.1579C84.3149 15.2456 83.4616 13.8246 83.4616 11.8948ZM89.2199 16.4211C89.4056 16.5264 89.6184 16.579 89.8598 16.579C90.1011 16.579 90.3048 16.5264 90.4718 16.4211C90.6574 16.2983 90.7965 16.1141 90.889 15.8685C91.0003 15.6053 91.0838 15.3597 91.1394 15.1316C91.2138 14.886 91.2597 14.5439 91.2785 14.1053C91.2973 13.6667 91.3063 13.3158 91.3063 13.0527C91.3251 12.7895 91.3341 12.4035 91.3341 11.8948C91.3341 11.386 91.3251 11.0001 91.3063 10.7369C91.3063 10.4737 91.2973 10.1229 91.2785 9.68426C91.2597 9.24564 91.2138 8.91235 91.1394 8.68426C91.0838 8.43867 91.0003 8.19301 90.889 7.94742C90.7965 7.68426 90.6574 7.50005 90.4718 7.39479C90.3048 7.27196 90.1011 7.21058 89.8598 7.21058C89.6184 7.21058 89.4056 7.27196 89.2199 7.39479C89.053 7.50005 88.9139 7.68426 88.8027 7.94742C88.7102 8.19301 88.6267 8.43867 88.5523 8.68426C88.4967 8.91235 88.4598 9.24564 88.441 9.68426C88.4223 10.1229 88.4042 10.4737 88.3854 10.7369C88.3854 11.0001 88.3854 11.386 88.3854 11.8948C88.3854 12.4035 88.3854 12.7895 88.3854 13.0527C88.4042 13.3158 88.4223 13.6667 88.441 14.1053C88.4598 14.5439 88.4967 14.886 88.5523 15.1316C88.6267 15.3597 88.7102 15.6053 88.8027 15.8685C88.9139 16.1141 89.053 16.2983 89.2199 16.4211ZM93.1979 22.2369C92.6784 22.2369 91.5845 22.3948 89.9154 22.7106C88.2463 23.0264 87.1148 23.2018 86.5216 23.2369C87.5599 24.4124 88.9605 25.0001 90.7221 25.0001C91.6867 25.0001 92.5859 24.8158 93.4205 24.4474C94.2738 24.0966 94.7001 23.6843 94.7001 23.2106C94.7001 22.5614 94.1994 22.2369 93.1979 22.2369ZM104.853 8.86847H104.992C105.288 8.23689 105.706 7.72814 106.244 7.34216C106.782 6.93865 107.43 6.73689 108.191 6.73689C108.97 6.73689 109.628 6.98251 110.166 7.47374C110.723 7.94742 111.001 8.52637 111.001 9.21058C111.001 9.89479 110.787 10.465 110.361 10.9211C109.934 11.3772 109.387 11.6053 108.72 11.6053C108.052 11.6053 107.505 11.4211 107.079 11.0527C106.67 10.6843 106.467 10.2281 106.467 9.68426C106.467 9.12288 106.633 8.6667 106.967 8.31584C107.319 7.94742 107.755 7.76321 108.275 7.76321C108.794 7.76321 109.211 7.93867 109.527 8.28953C109.675 8.55268 109.823 8.68426 109.972 8.68426C110.139 8.68426 110.222 8.60531 110.222 8.44742C110.222 8.34216 110.166 8.21058 110.055 8.05268C109.61 7.4913 108.979 7.21058 108.163 7.21058C105.882 7.21058 104.742 9.36847 104.742 13.6843V18.9211H106.828V19.3422H97.8707V18.9211H99.5954V7.65795H97.6203V7.23689H99.2894C101.31 7.23689 103.165 7.07023 104.853 6.73689V8.86847ZM119.974 15.3685V12.9211C119.9 12.9211 119.835 12.9211 119.779 12.9211C118.908 12.9211 118.175 13.1492 117.581 13.6053C116.988 14.0439 116.691 14.7545 116.691 15.7369C116.691 16.7018 116.84 17.4124 117.136 17.8685C117.433 18.3071 117.832 18.5264 118.332 18.5264C118.833 18.5264 119.232 18.193 119.529 17.5264C119.826 16.8597 119.974 16.1404 119.974 15.3685ZM125.732 18.3422C126.437 18.3422 126.891 17.465 127.095 15.7106L127.596 15.7632C127.244 18.4825 125.955 19.8422 123.729 19.8422C122.802 19.8422 122.051 19.5527 121.476 18.9737C120.901 18.3772 120.577 17.6667 120.502 16.8422H120.335C120.076 17.7895 119.64 18.5264 119.028 19.0527C118.416 19.579 117.442 19.8422 116.107 19.8422C114.79 19.8422 113.678 19.5702 112.769 19.0264C111.879 18.465 111.433 17.579 111.433 16.3685C111.433 13.7545 114.281 12.4474 119.974 12.4474V11.579C119.974 9.87722 119.751 8.75446 119.306 8.21058C119.102 7.96499 118.796 7.74564 118.388 7.55268C117.999 7.35972 117.526 7.26321 116.969 7.26321C115.912 7.26321 114.976 7.4913 114.16 7.94742C113.363 8.40354 112.963 8.90354 112.963 9.44742C112.963 9.60531 113.047 9.68426 113.214 9.68426C113.325 9.68426 113.4 9.65795 113.436 9.60531C113.474 9.53512 113.502 9.47374 113.52 9.4211C113.539 9.35091 113.557 9.29827 113.575 9.26321C113.594 9.21058 113.631 9.13163 113.687 9.02637C113.761 8.9211 113.928 8.78078 114.187 8.60531C114.448 8.42985 114.799 8.34216 115.245 8.34216C115.69 8.34216 116.07 8.53512 116.385 8.9211C116.719 9.28953 116.886 9.74564 116.886 10.2895C116.886 10.8334 116.673 11.2983 116.246 11.6843C115.82 12.0527 115.282 12.2369 114.633 12.2369C113.984 12.2369 113.427 12.0264 112.963 11.6053C112.518 11.1667 112.296 10.6404 112.296 10.0264C112.296 9.0088 112.788 8.21058 113.77 7.63163C114.754 7.03514 116.163 6.73689 117.999 6.73689C119.853 6.73689 121.328 6.96497 122.422 7.4211C123.516 7.87722 124.258 8.52637 124.647 9.36847C125.037 10.193 125.231 11.3334 125.231 12.7895V17.2632C125.231 17.9825 125.398 18.3422 125.732 18.3422ZM146.833 6.73689C148.427 6.73689 149.55 7.21058 150.199 8.15795C150.848 9.08775 151.172 10.4211 151.172 12.1579V18.9211H152.897V19.3422H144.301V18.9211H146.026V13.2632C146.026 11.4737 145.943 10.1755 145.776 9.36847C145.609 8.56143 145.238 8.15795 144.663 8.15795C144.014 8.15795 143.522 8.81584 143.189 10.1316C142.855 11.4299 142.688 12.8685 142.688 14.4474V19.3422H136.401V18.9211H138.126V13.2632C138.126 11.4737 138.042 10.1755 137.875 9.36847C137.708 8.56143 137.338 8.15795 136.763 8.15795C136.114 8.15795 135.622 8.81584 135.288 10.1316C134.954 11.4299 134.788 12.8685 134.788 14.4474V19.3422H127.916V18.9211H129.641V7.65795H127.666V7.23689H129.335C131.357 7.23689 133.211 7.07023 134.899 6.73689V9.31584H135.038C135.761 7.59656 137.06 6.73689 138.932 6.73689C140.824 6.73689 142.104 7.60531 142.771 9.34216L142.799 9.31584H142.938C143.662 7.59656 144.96 6.73689 146.833 6.73689Z" fill="#FF6C00"/>
</g>
<defs>
<clipPath id="clip0_1401_69748">
<rect width="153" height="25" fill="white" transform="translate(0 0.5)"/>
</clipPath>
</defs>
</svg>
