<svg width="153" height="25" viewBox="0 0 153 25" fill="none" xmlns="http://www.w3.org/2000/svg">
<g clip-path="url(#clip0_1296_21707)">
<path d="M4.56051 3.39456V13.7367C4.56051 15.2454 4.62541 16.2717 4.75523 16.8156C4.88505 17.3595 5.06123 17.7103 5.28378 17.8682C5.78451 18.2367 6.59123 18.4209 7.70396 18.4209H8.3716V18.8419H0.554688V18.4209H0.860687C1.93633 18.3858 2.74305 18.1665 3.28087 17.763C3.65178 17.4472 3.87432 16.7103 3.94851 15.5525C3.98559 15.1314 4.00414 14.5174 4.00414 13.7103V2.97351C4.00414 2.23666 3.80014 1.73666 3.39214 1.47351C2.98414 1.21035 2.33505 1.07877 1.44487 1.07877V0.657715H9.87378L14.6863 12.5525L18.7756 0.657715H25.8971V1.07877H24.1167V18.4209H25.8971V18.8419H16.8283V18.4209H18.6087V3.39456H18.414L13.1007 18.8419H12.5721C11.4965 18.8419 10.6991 18.1928 10.1798 16.8946L4.67178 3.39456H4.56051ZM29.0998 7.15772H27.1247V6.73666H28.7938C30.8153 6.73666 32.6698 6.57 34.3575 6.23666V18.4209H36.0822V18.8419H27.3751V18.4209H29.0998V7.15772ZM31.7147 5.1314C30.9915 5.1314 30.3702 4.89456 29.8509 4.42087C29.3502 3.92964 29.0998 3.34193 29.0998 2.65772C29.0998 1.95596 29.3502 1.36824 29.8509 0.894558C30.3702 0.403329 31.0007 0.157715 31.7426 0.157715C32.4844 0.157715 33.1056 0.403329 33.6064 0.894558C34.1071 1.36824 34.3575 1.95596 34.3575 2.65772C34.3575 3.34193 34.0979 3.92964 33.5786 4.42087C33.0778 4.89456 32.4566 5.1314 31.7147 5.1314ZM38.6054 7.15772H36.6303V6.73666H38.2994C40.3208 6.73666 42.1754 6.57 43.863 6.23666V8.81561H44.0021C44.7254 7.09633 46.0236 6.23666 47.8966 6.23666C49.4916 6.23666 50.6136 6.71035 51.2626 7.65772C51.9118 8.58752 52.2363 9.92087 52.2363 11.6577V18.4209H53.961V18.8419H45.3652V18.4209H47.0899V12.763C47.0899 10.9735 47.0065 9.67528 46.8396 8.86824C46.6726 8.0612 46.3018 7.65772 45.7268 7.65772C45.0778 7.65772 44.5863 8.31561 44.2525 9.6314C43.9186 10.9296 43.7517 12.3682 43.7517 13.9472V18.8419H36.8806V18.4209H38.6054V7.15772ZM60.5461 13.8419C60.5461 15.4384 60.7501 16.649 61.1581 17.4735C61.5846 18.298 62.3543 18.7103 63.467 18.7103C64.5983 18.7103 65.572 18.3682 66.3879 17.684C67.2225 16.9998 67.7603 16.0788 68.0014 14.9209L68.057 14.684L68.5578 14.763C68.2981 16.2016 67.6583 17.3244 66.6383 18.1314C65.6183 18.9384 64.2923 19.3419 62.6603 19.3419C60.1937 19.3419 58.2836 18.7893 56.9298 17.684C55.5759 16.5612 54.899 14.9559 54.899 12.8682C54.899 10.7805 55.5481 9.15772 56.8463 7.99982C58.1445 6.82436 59.9063 6.23666 62.1318 6.23666C63.9492 6.23666 65.4607 6.56122 66.6661 7.21035C67.8901 7.84193 68.5021 8.82436 68.5021 10.1577C68.5021 11.4911 67.9365 12.4384 66.8052 12.9998C65.6739 13.5612 64.1996 13.8419 62.3821 13.8419H60.5461ZM60.5183 11.4735V13.3682H61.2138C62.0483 13.3682 62.6232 13.1051 62.9385 12.5788C63.2723 12.0349 63.4392 11.2454 63.4392 10.2103C63.4392 7.87699 63.0034 6.71035 62.1318 6.71035C61.5568 6.71035 61.1396 7.02614 60.8799 7.65772C60.6388 8.2893 60.5183 9.5612 60.5183 11.4735ZM76.49 8.36824H76.6291C76.9253 7.73666 77.3426 7.22791 77.8809 6.84193C78.4185 6.43842 79.0673 6.23666 79.8282 6.23666C80.6071 6.23666 81.265 6.48228 81.8032 6.97351C82.3596 7.44719 82.6378 8.02614 82.6378 8.71035C82.6378 9.39456 82.4243 9.96476 81.998 10.4209C81.571 10.877 81.0243 11.1051 80.3567 11.1051C79.6891 11.1051 79.1417 10.9209 78.7154 10.5525C78.3072 10.184 78.1034 9.72791 78.1034 9.18403C78.1034 8.62265 78.2703 8.16647 78.6042 7.81561C78.9561 7.44719 79.3921 7.26298 79.9116 7.26298C80.4304 7.26298 80.8477 7.43844 81.1634 7.7893C81.3116 8.05245 81.4597 8.18403 81.6085 8.18403C81.7754 8.18403 81.8589 8.10508 81.8589 7.94719C81.8589 7.84193 81.8033 7.71035 81.692 7.55245C81.2469 6.99107 80.6161 6.71035 79.8003 6.71035C77.5192 6.71035 76.3787 8.86824 76.3787 13.184V18.4209H78.4651V18.8419H69.5073V18.4209H71.2323V7.15772H69.2569V6.73666H70.9263C72.9473 6.73666 74.8021 6.57 76.49 6.23666V8.36824Z" fill="white"/>
<path d="M83.4645 11.3948C83.4645 9.74564 84.0856 8.47374 85.3283 7.579C86.5711 6.68426 88.0823 6.23689 89.8627 6.23689C90.4378 6.23689 91.0032 6.28953 91.5596 6.39479C91.0957 5.90356 90.8641 5.30707 90.8641 4.60531C90.8641 3.90356 91.1145 3.29829 91.6152 2.78952C92.1347 2.28076 92.7558 2.02637 93.4791 2.02637C94.2211 2.02637 94.8331 2.22812 95.3151 2.63163C95.797 3.03514 96.0383 3.55268 96.0383 4.18426C96.0383 4.81584 95.8436 5.33339 95.4541 5.73689C95.0647 6.12286 94.573 6.31584 93.9798 6.31584C93.4046 6.31584 92.9227 6.15795 92.5332 5.84216C92.1626 5.50882 91.9769 5.08777 91.9769 4.579C91.9769 4.07023 92.1626 3.66672 92.5332 3.36847C92.8114 3.24566 92.9505 3.10531 92.9505 2.94742C92.9505 2.78953 92.8671 2.71058 92.7001 2.71058C92.5889 2.71058 92.4498 2.76321 92.2829 2.86847C91.6709 3.30707 91.3649 3.89479 91.3649 4.63163C91.3649 5.56145 91.9303 6.29829 93.0618 6.84216C95.1947 7.71933 96.2609 9.23689 96.2609 11.3948C96.2609 13.0439 95.6398 14.3158 94.3971 15.2106C93.1543 16.1053 91.6431 16.5527 89.8627 16.5527C88.6387 16.5527 87.5447 16.3509 86.5801 15.9474C85.393 16.4211 84.7998 16.9124 84.7998 17.4211C84.7998 17.772 84.9479 18.0088 85.2449 18.1316C85.5418 18.2369 86.0516 18.2895 86.7749 18.2895C87.4981 18.2895 88.6477 18.1141 90.2243 17.7632C91.819 17.4124 92.8671 17.2369 93.3678 17.2369C94.4437 17.2369 95.2963 17.5001 95.927 18.0264C96.5578 18.5527 96.8729 19.2456 96.8729 20.1053C96.8729 21.4562 96.2699 22.6053 95.0647 23.5527C93.8595 24.5001 92.4129 24.9737 90.7251 24.9737C88.7221 24.9737 87.0899 24.2281 85.8291 22.7369C84.9201 22.6667 84.1878 22.3422 83.6314 21.7632C83.0751 21.1843 82.7969 20.4825 82.7969 19.6579C82.7969 18.8509 83.0751 18.0877 83.6314 17.3685C84.2066 16.6492 85.0036 16.079 86.0238 15.6579C84.3178 14.7456 83.4645 13.3246 83.4645 11.3948ZM89.2229 15.9211C89.4086 16.0264 89.6214 16.079 89.8627 16.079C90.104 16.079 90.3078 16.0264 90.4747 15.9211C90.6604 15.7983 90.7995 15.6141 90.892 15.3685C91.0032 15.1053 91.0867 14.8597 91.1423 14.6316C91.2167 14.386 91.2626 14.0439 91.2814 13.6053C91.3002 13.1667 91.3092 12.8158 91.3092 12.5527C91.328 12.2895 91.3371 11.9035 91.3371 11.3948C91.3371 10.886 91.328 10.5001 91.3092 10.2369C91.3092 9.97374 91.3002 9.62288 91.2814 9.18426C91.2626 8.74564 91.2167 8.41235 91.1423 8.18426C91.0867 7.93867 91.0032 7.69301 90.892 7.44742C90.7995 7.18426 90.6604 7.00005 90.4747 6.89479C90.3078 6.77196 90.104 6.71058 89.8627 6.71058C89.6214 6.71058 89.4086 6.77196 89.2229 6.89479C89.056 7.00005 88.9169 7.18426 88.8056 7.44742C88.7131 7.69301 88.6297 7.93867 88.5552 8.18426C88.4996 8.41235 88.4627 8.74564 88.444 9.18426C88.4252 9.62288 88.4071 9.97374 88.3883 10.2369C88.3883 10.5001 88.3883 10.886 88.3883 11.3948C88.3883 11.9035 88.3883 12.2895 88.3883 12.5527C88.4071 12.8158 88.4252 13.1667 88.444 13.6053C88.4627 14.0439 88.4996 14.386 88.5552 14.6316C88.6297 14.8597 88.7131 15.1053 88.8056 15.3685C88.9169 15.6141 89.056 15.7983 89.2229 15.9211ZM93.2009 21.7369C92.6814 21.7369 91.5874 21.8948 89.9183 22.2106C88.2492 22.5264 87.1177 22.7018 86.5245 22.7369C87.5628 23.9124 88.9635 24.5001 90.7251 24.5001C91.6896 24.5001 92.5889 24.3158 93.4234 23.9474C94.2767 23.5966 94.7031 23.1843 94.7031 22.7106C94.7031 22.0614 94.2023 21.7369 93.2009 21.7369ZM104.856 8.36847H104.995C105.291 7.73689 105.709 7.22814 106.247 6.84216C106.784 6.43865 107.433 6.23689 108.194 6.23689C108.973 6.23689 109.631 6.48251 110.169 6.97374C110.726 7.44742 111.004 8.02637 111.004 8.71058C111.004 9.39479 110.79 9.96499 110.364 10.4211C109.937 10.8772 109.39 11.1053 108.723 11.1053C108.055 11.1053 107.508 10.9211 107.081 10.5527C106.673 10.1843 106.469 9.72814 106.469 9.18426C106.469 8.62288 106.636 8.1667 106.97 7.81584C107.322 7.44742 107.758 7.26321 108.278 7.26321C108.796 7.26321 109.214 7.43867 109.529 7.78953C109.678 8.05268 109.826 8.18426 109.975 8.18426C110.141 8.18426 110.225 8.10531 110.225 7.94742C110.225 7.84216 110.169 7.71058 110.058 7.55268C109.613 6.9913 108.982 6.71058 108.166 6.71058C105.885 6.71058 104.745 8.86847 104.745 13.1843V18.4211H106.831V18.8422H97.8736V18.4211H99.5984V7.15795H97.6233V6.73689H99.2924C101.313 6.73689 103.168 6.57023 104.856 6.23689V8.36847ZM119.977 14.8685V12.4211C119.903 12.4211 119.837 12.4211 119.782 12.4211C118.91 12.4211 118.178 12.6492 117.584 13.1053C116.991 13.5439 116.694 14.2545 116.694 15.2369C116.694 16.2018 116.843 16.9124 117.139 17.3685C117.436 17.8071 117.835 18.0264 118.335 18.0264C118.836 18.0264 119.235 17.693 119.531 17.0264C119.828 16.3597 119.977 15.6404 119.977 14.8685ZM125.735 17.8422C126.44 17.8422 126.894 16.965 127.098 15.2106L127.599 15.2632C127.247 17.9825 125.957 19.3422 123.732 19.3422C122.805 19.3422 122.054 19.0527 121.479 18.4737C120.904 17.8772 120.58 17.1667 120.505 16.3422H120.338C120.079 17.2895 119.643 18.0264 119.031 18.5527C118.419 19.079 117.445 19.3422 116.11 19.3422C114.793 19.3422 113.681 19.0702 112.772 18.5264C111.881 17.965 111.436 17.079 111.436 15.8685C111.436 13.2545 114.284 11.9474 119.977 11.9474V11.079C119.977 9.37722 119.754 8.25446 119.309 7.71058C119.105 7.46499 118.799 7.24564 118.391 7.05268C118.001 6.85972 117.529 6.76321 116.972 6.76321C115.915 6.76321 114.979 6.9913 114.163 7.44742C113.366 7.90354 112.966 8.40354 112.966 8.94742C112.966 9.10531 113.05 9.18426 113.217 9.18426C113.328 9.18426 113.402 9.15795 113.439 9.10531C113.477 9.03512 113.505 8.97374 113.523 8.9211C113.542 8.85091 113.56 8.79827 113.578 8.76321C113.597 8.71058 113.634 8.63163 113.69 8.52637C113.764 8.4211 113.931 8.28078 114.19 8.10531C114.45 7.92985 114.802 7.84216 115.247 7.84216C115.693 7.84216 116.073 8.03512 116.388 8.4211C116.722 8.78953 116.889 9.24564 116.889 9.78953C116.889 10.3334 116.676 10.7983 116.249 11.1843C115.823 11.5527 115.285 11.7369 114.635 11.7369C113.987 11.7369 113.43 11.5264 112.966 11.1053C112.521 10.6667 112.299 10.1404 112.299 9.52637C112.299 8.5088 112.79 7.71058 113.773 7.13163C114.756 6.53514 116.165 6.23689 118.001 6.23689C119.856 6.23689 121.331 6.46497 122.425 6.9211C123.519 7.37722 124.261 8.02637 124.65 8.86847C125.039 9.69301 125.234 10.8334 125.234 12.2895V16.7632C125.234 17.4825 125.401 17.8422 125.735 17.8422ZM146.836 6.23689C148.43 6.23689 149.553 6.71058 150.202 7.65795C150.851 8.58775 151.175 9.9211 151.175 11.6579V18.4211H152.9V18.8422H144.304V18.4211H146.029V12.7632C146.029 10.9737 145.946 9.67551 145.779 8.86847C145.612 8.06143 145.241 7.65795 144.666 7.65795C144.017 7.65795 143.525 8.31584 143.192 9.63163C142.858 10.9299 142.691 12.3685 142.691 13.9474V18.8422H136.404V18.4211H138.129V12.7632C138.129 10.9737 138.045 9.67551 137.878 8.86847C137.711 8.06143 137.341 7.65795 136.766 7.65795C136.117 7.65795 135.625 8.31584 135.291 9.63163C134.957 10.9299 134.79 12.3685 134.79 13.9474V18.8422H127.919V18.4211H129.644V7.15795H127.669V6.73689H129.338C131.36 6.73689 133.214 6.57023 134.902 6.23689V8.81584H135.041C135.764 7.09656 137.062 6.23689 138.935 6.23689C140.827 6.23689 142.107 7.10531 142.774 8.84216L142.802 8.81584H142.941C143.664 7.09656 144.963 6.23689 146.836 6.23689Z" fill="#FF6C00"/>
</g>
<defs>
<clipPath id="clip0_1296_21707">
<rect width="153" height="25" fill="white"/>
</clipPath>
</defs>
</svg>
