<svg width="153" height="25" viewBox="0 0 153 25" fill="none" xmlns="http://www.w3.org/2000/svg">
<g clip-path="url(#clip0_56_4647)">
<path d="M4.56221 3.39505V13.7372C4.56221 15.2459 4.62712 16.2722 4.75694 16.8161C4.88676 17.36 5.06294 17.7108 5.28549 17.8687C5.78621 18.2372 6.59294 18.4214 7.70567 18.4214H8.37331V18.8424H0.556396V18.4214H0.862396C1.93804 18.3863 2.74476 18.167 3.28258 17.7635C3.65349 17.4477 3.87603 16.7108 3.95021 15.5529C3.9873 15.1319 4.00585 14.5179 4.00585 13.7108V2.97399C4.00585 2.23715 3.80185 1.73715 3.39385 1.47399C2.98585 1.21084 2.33676 1.07926 1.44658 1.07926V0.658203H9.87549L14.688 12.5529L18.7773 0.658203H25.8988V1.07926H24.1184V18.4214H25.8988V18.8424H16.83V18.4214H18.6104V3.39505H18.4157L13.1024 18.8424H12.5739C11.4982 18.8424 10.7008 18.1933 10.1815 16.895L4.67349 3.39505H4.56221ZM29.1015 7.1582H27.1264V6.73715H28.7955C30.817 6.73715 32.6715 6.57049 34.3592 6.23715V18.4214H36.0839V18.8424H27.3768V18.4214H29.1015V7.1582ZM31.7164 5.13189C30.9932 5.13189 30.3719 4.89505 29.8526 4.42136C29.3519 3.93013 29.1015 3.34241 29.1015 2.6582C29.1015 1.95645 29.3519 1.36873 29.8526 0.895047C30.3719 0.403818 31.0024 0.158203 31.7443 0.158203C32.4861 0.158203 33.1074 0.403818 33.6081 0.895047C34.1088 1.36873 34.3592 1.95645 34.3592 2.6582C34.3592 3.34241 34.0996 3.93013 33.5803 4.42136C33.0795 4.89505 32.4583 5.13189 31.7164 5.13189ZM38.6071 7.1582H36.632V6.73715H38.3011C40.3226 6.73715 42.1771 6.57049 43.8647 6.23715V8.8161H44.0038C44.7271 7.09682 46.0253 6.23715 47.8983 6.23715C49.4933 6.23715 50.6153 6.71084 51.2644 7.6582C51.9135 8.58801 52.238 9.92136 52.238 11.6582V18.4214H53.9627V18.8424H45.3669V18.4214H47.0916V12.7635C47.0916 10.974 47.0082 9.67577 46.8413 8.86873C46.6744 8.06169 46.3035 7.6582 45.7285 7.6582C45.0795 7.6582 44.588 8.3161 44.2542 9.63189C43.9204 10.9301 43.7534 12.3687 43.7534 13.9477V18.8424H36.8824V18.4214H38.6071V7.1582ZM60.5478 13.8424C60.5478 15.4389 60.7518 16.6495 61.1598 17.474C61.5864 18.2985 62.356 18.7108 63.4687 18.7108C64.6 18.7108 65.5737 18.3687 66.3896 17.6845C67.2242 17.0003 67.762 16.0793 68.0031 14.9214L68.0587 14.6845L68.5595 14.7635C68.2999 16.2021 67.66 17.3248 66.64 18.1319C65.62 18.9389 64.294 19.3424 62.662 19.3424C60.1954 19.3424 58.2853 18.7898 56.9315 17.6845C55.5776 16.5617 54.9007 14.9564 54.9007 12.8687C54.9007 10.781 55.5498 9.1582 56.848 8.00031C58.1462 6.82485 59.908 6.23715 62.1335 6.23715C63.9509 6.23715 65.4624 6.56171 66.6678 7.21084C67.8918 7.84241 68.5038 8.82485 68.5038 10.1582C68.5038 11.4916 67.9382 12.4389 66.8069 13.0003C65.6756 13.5617 64.2013 13.8424 62.3838 13.8424H60.5478ZM60.52 11.474V13.3687H61.2155C62.05 13.3687 62.6249 13.1056 62.9402 12.5793C63.274 12.0354 63.4409 11.2459 63.4409 10.2108C63.4409 7.87748 63.0051 6.71084 62.1335 6.71084C61.5585 6.71084 61.1413 7.02663 60.8816 7.6582C60.6405 8.28978 60.52 9.56169 60.52 11.474ZM76.4917 8.36873H76.6308C76.927 7.73715 77.3443 7.2284 77.8826 6.84241C78.4202 6.43891 79.069 6.23715 79.8299 6.23715C80.6088 6.23715 81.2667 6.48276 81.805 6.97399C82.3613 7.44768 82.6395 8.02663 82.6395 8.71084C82.6395 9.39505 82.426 9.96524 81.9997 10.4214C81.5727 10.8775 81.026 11.1056 80.3584 11.1056C79.6908 11.1056 79.1435 10.9214 78.7171 10.5529C78.3089 10.1845 78.1051 9.7284 78.1051 9.18452C78.1051 8.62314 78.272 8.16695 78.6059 7.8161C78.9578 7.44768 79.3938 7.26347 79.9133 7.26347C80.4321 7.26347 80.8494 7.43893 81.1651 7.78978C81.3133 8.05294 81.4614 8.18452 81.6102 8.18452C81.7771 8.18452 81.8606 8.10557 81.8606 7.94768C81.8606 7.84241 81.805 7.71084 81.6937 7.55294C81.2486 6.99156 80.6178 6.71084 79.802 6.71084C77.521 6.71084 76.3804 8.86873 76.3804 13.1845V18.4214H78.4668V18.8424H69.509V18.4214H71.234V7.1582H69.2586V6.73715H70.928C72.949 6.73715 74.8038 6.57049 76.4917 6.23715V8.36873Z" fill="#1D1D1D"/>
<path d="M83.4616 11.3938C83.4616 9.74467 84.0826 8.47276 85.3254 7.57802C86.5682 6.68329 88.0794 6.23592 89.8598 6.23592C90.4349 6.23592 91.0003 6.28855 91.5567 6.39381C91.0928 5.90258 90.8612 5.30609 90.8612 4.60434C90.8612 3.90258 91.1116 3.29732 91.6123 2.78855C92.1318 2.27978 92.7529 2.02539 93.4761 2.02539C94.2182 2.02539 94.8302 2.22715 95.3121 2.63065C95.7941 3.03416 96.0354 3.55171 96.0354 4.18329C96.0354 4.81486 95.8407 5.33241 95.4512 5.73592C95.0618 6.12188 94.5701 6.31486 93.9769 6.31486C93.4017 6.31486 92.9198 6.15697 92.5303 5.84118C92.1596 5.50784 91.9739 5.08679 91.9739 4.57802C91.9739 4.06925 92.1596 3.66574 92.5303 3.3675C92.8085 3.24469 92.9476 3.10434 92.9476 2.94644C92.9476 2.78855 92.8641 2.7096 92.6972 2.7096C92.5859 2.7096 92.4469 2.76223 92.2799 2.8675C91.6679 3.30609 91.3619 3.89381 91.3619 4.63065C91.3619 5.56048 91.9273 6.29732 93.0589 6.84118C95.1918 7.71835 96.2579 9.23592 96.2579 11.3938C96.2579 13.043 95.6369 14.3149 94.3941 15.2096C93.1513 16.1043 91.6401 16.5517 89.8598 16.5517C88.6358 16.5517 87.5418 16.3499 86.5772 15.9464C85.3901 16.4201 84.7969 16.9114 84.7969 17.4201C84.7969 17.771 84.945 18.0078 85.2419 18.1307C85.5389 18.2359 86.0487 18.2885 86.7719 18.2885C87.4952 18.2885 88.6448 18.1131 90.2214 17.7622C91.8161 17.4114 92.8641 17.2359 93.3649 17.2359C94.4407 17.2359 95.2933 17.4991 95.9241 18.0254C96.5549 18.5517 96.8699 19.2447 96.8699 20.1043C96.8699 21.4552 96.267 22.6043 95.0618 23.5517C93.8565 24.4991 92.41 24.9728 90.7221 24.9728C88.7192 24.9728 87.087 24.2272 85.8261 22.7359C84.9172 22.6657 84.1849 22.3412 83.6285 21.7622C83.0721 21.1833 82.7939 20.4815 82.7939 19.657C82.7939 18.8499 83.0721 18.0868 83.6285 17.3675C84.2036 16.6482 85.0006 16.078 86.0209 15.657C84.3149 14.7447 83.4616 13.3236 83.4616 11.3938ZM89.2199 15.9201C89.4056 16.0254 89.6184 16.078 89.8598 16.078C90.1011 16.078 90.3048 16.0254 90.4718 15.9201C90.6574 15.7973 90.7965 15.6131 90.889 15.3675C91.0003 15.1043 91.0838 14.8587 91.1394 14.6307C91.2138 14.3851 91.2597 14.043 91.2785 13.6043C91.2973 13.1657 91.3063 12.8149 91.3063 12.5517C91.3251 12.2885 91.3341 11.9026 91.3341 11.3938C91.3341 10.8851 91.3251 10.4991 91.3063 10.2359C91.3063 9.97276 91.2973 9.6219 91.2785 9.18329C91.2597 8.74467 91.2138 8.41138 91.1394 8.18329C91.0838 7.93769 91.0003 7.69204 90.889 7.44644C90.7965 7.18329 90.6574 6.99907 90.4718 6.89381C90.3048 6.77098 90.1011 6.7096 89.8598 6.7096C89.6184 6.7096 89.4056 6.77098 89.2199 6.89381C89.053 6.99907 88.9139 7.18329 88.8027 7.44644C88.7102 7.69204 88.6267 7.93769 88.5523 8.18329C88.4967 8.41138 88.4598 8.74467 88.441 9.18329C88.4223 9.6219 88.4042 9.97276 88.3854 10.2359C88.3854 10.4991 88.3854 10.8851 88.3854 11.3938C88.3854 11.9026 88.3854 12.2885 88.3854 12.5517C88.4042 12.8149 88.4223 13.1657 88.441 13.6043C88.4598 14.043 88.4967 14.3851 88.5523 14.6307C88.6267 14.8587 88.7102 15.1043 88.8027 15.3675C88.9139 15.6131 89.053 15.7973 89.2199 15.9201ZM93.1979 21.7359C92.6784 21.7359 91.5845 21.8938 89.9154 22.2096C88.2463 22.5254 87.1148 22.7009 86.5216 22.7359C87.5599 23.9114 88.9605 24.4991 90.7221 24.4991C91.6867 24.4991 92.5859 24.3149 93.4205 23.9464C94.2738 23.5956 94.7001 23.1833 94.7001 22.7096C94.7001 22.0605 94.1994 21.7359 93.1979 21.7359ZM104.853 8.3675H104.992C105.288 7.73592 105.706 7.22717 106.244 6.84118C106.782 6.43767 107.43 6.23592 108.191 6.23592C108.97 6.23592 109.628 6.48153 110.166 6.97276C110.723 7.44644 111.001 8.02539 111.001 8.7096C111.001 9.39381 110.787 9.96401 110.361 10.4201C109.934 10.8762 109.387 11.1043 108.72 11.1043C108.052 11.1043 107.505 10.9201 107.079 10.5517C106.67 10.1833 106.467 9.72717 106.467 9.18329C106.467 8.6219 106.633 8.16572 106.967 7.81486C107.319 7.44644 107.755 7.26223 108.275 7.26223C108.794 7.26223 109.211 7.43769 109.527 7.78855C109.675 8.05171 109.823 8.18329 109.972 8.18329C110.139 8.18329 110.222 8.10434 110.222 7.94644C110.222 7.84118 110.166 7.7096 110.055 7.55171C109.61 6.99032 108.979 6.7096 108.163 6.7096C105.882 6.7096 104.742 8.8675 104.742 13.1833V18.4201H106.828V18.8412H97.8707V18.4201H99.5954V7.15697H97.6203V6.73592H99.2894C101.31 6.73592 103.165 6.56925 104.853 6.23592V8.3675ZM119.974 14.8675V12.4201C119.9 12.4201 119.835 12.4201 119.779 12.4201C118.908 12.4201 118.175 12.6482 117.581 13.1043C116.988 13.543 116.691 14.2535 116.691 15.2359C116.691 16.2009 116.84 16.9114 117.136 17.3675C117.433 17.8061 117.832 18.0254 118.332 18.0254C118.833 18.0254 119.232 17.692 119.529 17.0254C119.826 16.3587 119.974 15.6394 119.974 14.8675ZM125.732 17.8412C126.437 17.8412 126.891 16.964 127.095 15.2096L127.596 15.2622C127.244 17.9815 125.955 19.3412 123.729 19.3412C122.802 19.3412 122.051 19.0517 121.476 18.4728C120.901 17.8762 120.577 17.1657 120.502 16.3412H120.335C120.076 17.2885 119.64 18.0254 119.028 18.5517C118.416 19.078 117.442 19.3412 116.107 19.3412C114.79 19.3412 113.678 19.0693 112.769 18.5254C111.879 17.964 111.433 17.078 111.433 15.8675C111.433 13.2535 114.281 11.9464 119.974 11.9464V11.078C119.974 9.37625 119.751 8.25348 119.306 7.7096C119.102 7.46401 118.796 7.24467 118.388 7.05171C117.999 6.85875 117.526 6.76223 116.969 6.76223C115.912 6.76223 114.976 6.99032 114.16 7.44644C113.363 7.90256 112.963 8.40256 112.963 8.94644C112.963 9.10434 113.047 9.18329 113.214 9.18329C113.325 9.18329 113.4 9.15697 113.436 9.10434C113.474 9.03414 113.502 8.97276 113.52 8.92013C113.539 8.84993 113.557 8.7973 113.575 8.76223C113.594 8.7096 113.631 8.63065 113.687 8.52539C113.761 8.42013 113.928 8.2798 114.187 8.10434C114.448 7.92888 114.799 7.84118 115.245 7.84118C115.69 7.84118 116.07 8.03414 116.385 8.42013C116.719 8.78855 116.886 9.24467 116.886 9.78855C116.886 10.3324 116.673 10.7973 116.246 11.1833C115.82 11.5517 115.282 11.7359 114.633 11.7359C113.984 11.7359 113.427 11.5254 112.963 11.1043C112.518 10.6657 112.296 10.1394 112.296 9.52539C112.296 8.50782 112.788 7.7096 113.77 7.13065C114.754 6.53416 116.163 6.23592 117.999 6.23592C119.853 6.23592 121.328 6.46399 122.422 6.92013C123.516 7.37625 124.258 8.02539 124.647 8.8675C125.037 9.69204 125.231 10.8324 125.231 12.2885V16.7622C125.231 17.4815 125.398 17.8412 125.732 17.8412ZM146.833 6.23592C148.427 6.23592 149.55 6.7096 150.199 7.65697C150.848 8.58677 151.172 9.92013 151.172 11.657V18.4201H152.897V18.8412H144.301V18.4201H146.026V12.7622C146.026 10.9728 145.943 9.67453 145.776 8.8675C145.609 8.06046 145.238 7.65697 144.663 7.65697C144.014 7.65697 143.522 8.31486 143.189 9.63065C142.855 10.9289 142.688 12.3675 142.688 13.9464V18.8412H136.401V18.4201H138.126V12.7622C138.126 10.9728 138.042 9.67453 137.875 8.8675C137.708 8.06046 137.338 7.65697 136.763 7.65697C136.114 7.65697 135.622 8.31486 135.288 9.63065C134.954 10.9289 134.788 12.3675 134.788 13.9464V18.8412H127.916V18.4201H129.641V7.15697H127.666V6.73592H129.335C131.357 6.73592 133.211 6.56925 134.899 6.23592V8.81486H135.038C135.761 7.09559 137.06 6.23592 138.932 6.23592C140.824 6.23592 142.104 7.10434 142.771 8.84118L142.799 8.81486H142.938C143.662 7.09559 144.96 6.23592 146.833 6.23592Z" fill="#FF6C00"/>
</g>
<defs>
<clipPath id="clip0_56_4647">
<rect width="153" height="25" fill="white"/>
</clipPath>
</defs>
</svg>
